RobotoFlexCondensed-Thin.ufo
<glyph name="exclam" format="2">
  <advance width="473"/>
  <unicode hex="0021"/>
  <outline>
    <contour>
      <point x="186.0" y="56.21470588233667" type="qcurve" smooth="yes"/>
      <point x="186.0" y="88.49738562089334"/>
      <point x="212.41535947711333" y="134.42941176467335"/>
      <point x="237.16339869278335" y="134.42941176467335" type="qcurve" smooth="yes"/>
      <point x="261.9114379084533" y="134.42941176467335"/>
      <point x="286.94346405223337" y="88.49738562089334"/>
      <point x="286.94346405223337" y="56.21470588233667" type="qcurve" smooth="yes"/>
      <point x="286.94346405223337" y="23.932026143780003"/>
      <point x="261.9114379084533" y="-22.0"/>
      <point x="237.16339869278335" y="-22.0" type="qcurve" smooth="yes"/>
      <point x="213.36470588233666" y="-22.0"/>
      <point x="186.0" y="23.932026143780003"/>
    </contour>
    <contour>
      <point x="215.43267973855666" y="383.99738562089334" type="line"/>
      <point x="211.61666666666667" y="1456.0" type="line"/>
      <point x="261.64346405223336" y="1456.0" type="line"/>
      <point x="257.3934640522333" y="383.99738562089334" type="line"/>
    </contour>
  </outline>
</glyph>
<glyph name="quotedbl" format="2">
  <advance width="537"/>
  <unicode hex="0022"/>
  <outline>
    <contour>
      <point x="105.66967973855667" y="1149.52785620921" type="line"/>
      <point x="100.0" y="1370.0812941176632" type="line"/>
      <point x="100.0" y="1456.0" type="line"/>
      <point x="168.74007843133998" y="1456.0" type="line"/>
      <point x="168.74007843133998" y="1370.0812941176632" type="line"/>
      <point x="162.95307843134003" y="1149.52785620921" type="line"/>
    </contour>
    <contour>
      <point x="374.4097581698967" y="1149.52785620921" type="line"/>
      <point x="368.74007843133995" y="1370.0812941176632" type="line"/>
      <point x="368.74007843133995" y="1456.0" type="line"/>
      <point x="437.362836601375" y="1456.0" type="line"/>
      <point x="437.362836601375" y="1370.0812941176632" type="line"/>
      <point x="431.575836601375" y="1149.52785620921" type="line"/>
    </contour>
  </outline>
</glyph>
<glyph name="numbersign" format="2">
  <advance width="1388"/>
  <unicode hex="0023"/>
  <outline>
    <contour>
      <point x="207.73563398694165" y="-20.0" type="line"/>
      <point x="748.4853725490033" y="1416.0163398692785" type="line"/>
      <point x="800.6007973855666" y="1416.0163398692785" type="line"/>
      <point x="259.9683790849483" y="-20.0" type="line"/>
    </contour>
    <contour>
      <point x="646.3054248365634" y="-20.0" type="line"/>
      <point x="1187.1591764706534" y="1416.0163398692785" type="line"/>
      <point x="1241.2906143791067" y="1416.0163398692785" type="line"/>
      <point x="700.4368627451549" y="-20.0" type="line"/>
    </contour>
    <contour>
      <point x="48.604705882336674" y="454.0812941176634" type="line"/>
      <point x="48.604705882336674" y="513.5453594771134" type="line"/>
      <point x="1260.3897385620617" y="513.5453594771134" type="line"/>
      <point x="1260.3897385620617" y="454.0812941176634" type="line"/>
    </contour>
    <contour>
      <point x="187.62049673195833" y="882.4709803921651" type="line"/>
      <point x="187.62049673195833" y="941.935045751615" type="line"/>
      <point x="1398.522849673265" y="941.935045751615" type="line"/>
      <point x="1398.522849673265" y="882.4709803921651" type="line"/>
    </contour>
  </outline>
</glyph>
<glyph name="dollar" format="2">
  <advance width="1149"/>
  <unicode hex="0024"/>
  <outline>
    <contour>
      <point x="168.07941176467332" y="484.879084967285" type="qcurve" smooth="yes"/>
      <point x="168.07941176467332" y="499.27843137250835" type="line"/>
      <point x="234.70228758171834" y="499.27843137250835" type="line"/>
      <point x="234.70228758171834" y="484.879084967285" type="line" smooth="yes"/>
      <point x="234.70228758171834" y="289.82973856206166"/>
      <point x="431.44346405223337" y="91.470915032715"/>
      <point x="610.03594771244" y="91.470915032715" type="qcurve" smooth="yes"/>
      <point x="786.5970588235049" y="91.470915032715"/>
      <point x="977.6042483660484" y="282.763071895395"/>
      <point x="976.2209150327151" y="420.463071895395" type="qcurve" smooth="yes"/>
      <point x="974.8375816993818" y="572.36993464055"/>
      <point x="851.7928104574567" y="652.2117647058416"/>
      <point x="620.9271241829549" y="705.5692810457733" type="qcurve" smooth="yes"/>
      <point x="406.609150326735" y="755.3147058823366"/>
      <point x="188.34281045745666" y="878.2408496732651"/>
      <point x="188.34281045745666" y="1048.7163398692785" type="qcurve" smooth="yes"/>
      <point x="188.34281045745666" y="1223.9836601307215"/>
      <point x="407.78464052288666" y="1451.2013071895533"/>
      <point x="600.1532679738833" y="1451.2013071895533" type="qcurve" smooth="yes"/>
      <point x="786.9111111110649" y="1451.2013071895533"/>
      <point x="1012.7457516339517" y="1189.6496732026117"/>
      <point x="1012.7457516339517" y="989.1176470588317" type="qcurve" smooth="yes"/>
      <point x="1012.7457516339517" y="974.7183006536084" type="line"/>
      <point x="943.7901960784884" y="974.7183006536084" type="line"/>
      <point x="943.7901960784884" y="989.1176470588317" type="line" smooth="yes"/>
      <point x="943.7901960784884" y="1159.4843137254984"/>
      <point x="769.0803921568382" y="1376.5258169934016"/>
      <point x="601.21993464055" y="1376.5258169934016" type="qcurve" smooth="yes"/>
      <point x="427.56078431367666" y="1376.5258169934016"/>
      <point x="255.84967320261165" y="1206.9663398692785"/>
      <point x="255.84967320261165" y="1063.6496732026117" type="qcurve" smooth="yes"/>
      <point x="255.84967320261165" y="919.852941176495"/>
      <point x="414.32810457512" y="852.890849673265"/>
      <point x="650.6601307189001" y="788.8434640522333" type="qcurve" smooth="yes"/>
      <point x="845.8647058823367" y="732.16209150323"/>
      <point x="1043.1764705881785" y="603.9032679738833"/>
      <point x="1043.1764705881785" y="469.96470588233666" type="qcurve" smooth="yes"/>
      <point x="1043.1764705881785" y="258.0637254901717"/>
      <point x="810.4905228758766" y="14.396078431340001"/>
      <point x="610.03594771244" y="14.396078431340001" type="qcurve" smooth="yes"/>
      <point x="409.73006535945" y="14.396078431340001"/>
      <point x="168.07941176467332" y="260.83039215683834"/>
    </contour>
    <contour>
      <point x="581.1552287582133" y="-102.013071895395" type="line"/>
      <point x="581.1552287582133" y="656.0196078431618" type="line"/>
      <point x="639.69803921567" y="656.0196078431618" type="line"/>
      <point x="639.69803921567" y="78.82026143793833" type="line"/>
      <point x="629.9833333333333" y="68.82026143793833" type="line"/>
      <point x="629.9833333333333" y="-102.013071895395" type="line"/>
    </contour>
    <contour>
      <point x="570.9251633986249" y="656.0196078431618" type="line"/>
      <point x="570.9251633986249" y="1353.1862745098283" type="line"/>
      <point x="579.2565359477667" y="1363.1862745098283" type="line"/>
      <point x="579.2565359477667" y="1653.986928104605" type="line"/>
      <point x="628.0846405228866" y="1653.986928104605" type="line"/>
      <point x="628.0846405228866" y="656.0196078431618" type="line"/>
    </contour>
  </outline>
</glyph>
<glyph name="ampersand" format="2">
  <advance width="1036"/>
  <unicode hex="0026"/>
  <outline>
    <contour>
      <point x="80.0" y="380.0" type="qcurve" smooth="yes"/>
      <point x="78.93333333333334" y="518.6173202614433"/>
      <point x="199.37433333333334" y="707.3338692811001"/>
      <point x="371.11239869278336" y="821.22203921567" type="qcurve" smooth="yes"/>
      <point x="491.7224313725083" y="909.54402614378" type="line" smooth="yes"/>
      <point x="565.16396078433" y="960.83202614378"/>
      <point x="647.4261307189" y="1084.3706143791067"/>
      <point x="647.4261307189" y="1177.50797385622" type="qcurve" smooth="yes"/>
      <point x="647.4261307189" y="1289.6213333333335"/>
      <point x="552.2978300652917" y="1429.46793464055"/>
      <point x="464.00428758171836" y="1429.46793464055" type="qcurve" smooth="yes"/>
      <point x="372.71869281044667" y="1429.46793464055"/>
      <point x="265.71300653594506" y="1279.6213333333335"/>
      <point x="265.71300653594506" y="1158.1013071895534" type="qcurve" smooth="yes"/>
      <point x="265.71300653594506" y="1079.1839607843299"/>
      <point x="322.3435882353267" y="930.9592549019933"/>
      <point x="415.86377124178665" y="805.3326143791066" type="qcurve" smooth="yes"/>
      <point x="1012.8601960784883" y="0.0" type="line"/>
      <point x="947.3012549019934" y="0.0" type="line"/>
      <point x="372.83998692811" y="777.2373071895533" type="line" smooth="yes"/>
      <point x="266.3814313725083" y="919.8906274509966"/>
      <point x="213.15820915037835" y="1067.50797385622"/>
      <point x="213.15820915037835" y="1158.1013071895534" type="qcurve" smooth="yes"/>
      <point x="213.15820915037835" y="1311.981359477113"/>
      <point x="351.93932026144336" y="1486.0"/>
      <point x="464.00428758171836" y="1486.0" type="qcurve" smooth="yes"/>
      <point x="571.3865359477667" y="1486.0"/>
      <point x="706.4496470588316" y="1324.9867189542267"/>
      <point x="706.4496470588316" y="1178.3226405228868" type="qcurve" smooth="yes"/>
      <point x="706.4496470588316" y="1077.03196078433"/>
      <point x="605.6017450980066" y="922.0666405228867"/>
      <point x="532.4233333333333" y="865.6053725490033" type="qcurve" smooth="yes"/>
      <point x="398.88251633993167" y="769.99797385622" type="line" smooth="yes"/>
      <point x="243.79327450982834" y="665.4284967319584"/>
      <point x="132.1601307189" y="496.48267973855667"/>
      <point x="131.8834640522333" y="380.9493464052233" type="qcurve" smooth="yes"/>
      <point x="132.1601307189" y="224.11535947711334"/>
      <point x="297.34520261443333" y="36.53206535945"/>
      <point x="435.07619607848835" y="36.53206535945" type="qcurve" smooth="yes"/>
      <point x="626.2152941176633" y="36.53206535945"/>
      <point x="902.7545751634368" y="382.1386928104467"/>
      <point x="902.7545751634368" y="674.0" type="qcurve"/>
      <point x="955.9887058823366" y="674.0" type="line"/>
      <point x="955.9887058823366" y="380.0"/>
      <point x="655.9546928104467" y="-20.0"/>
      <point x="435.07619607848835" y="-20.0" type="qcurve" smooth="yes"/>
      <point x="267.9597908496217" y="-20.0"/>
      <point x="81.06666666666666" y="204.08660130721665"/>
    </contour>
  </outline>
</glyph>
<glyph name="quotesingle" format="2">
  <advance width="276"/>
  <unicode hex="0027"/>
  <outline>
    <contour>
      <point x="105.51601307189" y="1149.1405228758767" type="line"/>
      <point x="109.68333333333334" y="1370.4686274509968" type="line"/>
      <point x="109.68333333333334" y="1456.0" type="line"/>
      <point x="166.37875816989668" y="1456.0" type="line"/>
      <point x="166.37875816989668" y="1370.4686274509968" type="line"/>
      <point x="170.42875816989667" y="1149.1405228758767" type="line"/>
    </contour>
  </outline>
</glyph>
<glyph name="parenleft" format="2">
  <advance width="555"/>
  <unicode hex="0028"/>
  <outline>
    <contour>
      <point x="541.6503267973884" y="-436.0" type="line"/>
      <point x="343.9005228758766" y="-370.3014771241233"/>
      <point x="124.0" y="72.96241830061834"/>
      <point x="124.0" y="515.0" type="qcurve" smooth="yes"/>
      <point x="124.0" y="525.0" type="line" smooth="yes"/>
      <point x="124.0" y="926.2486928104466"/>
      <point x="343.9005228758766" y="1410.3014771241233"/>
      <point x="541.6503267973884" y="1476.0" type="qcurve"/>
      <point x="541.6503267973884" y="1468.7575163399317" type="line"/>
      <point x="373.27254901965665" y="1403.0016339869417"/>
      <point x="174.63078431367668" y="961.5501960784883"/>
      <point x="174.63078431367668" y="532.0" type="qcurve" smooth="yes"/>
      <point x="174.63078431367668" y="508.0" type="line" smooth="yes"/>
      <point x="174.63078431367668" y="44.858954248385004"/>
      <point x="373.27254901965665" y="-360.234967320275"/>
      <point x="541.6503267973884" y="-425.99084967326496" type="qcurve"/>
    </contour>
  </outline>
</glyph>
<glyph name="parenright" format="2">
  <advance width="555"/>
  <unicode hex="0029"/>
  <outline>
    <contour>
      <point x="13.544444444398337" y="-436.0" type="qcurve"/>
      <point x="13.544444444398337" y="-421.840849673265" type="line"/>
      <point x="183.30555555560167" y="-356.084967320275"/>
      <point x="381.0" y="44.858954248385004"/>
      <point x="381.0" y="508.0" type="qcurve" smooth="yes"/>
      <point x="381.0" y="532.0" type="line" smooth="yes"/>
      <point x="381.0" y="961.5501960784883"/>
      <point x="183.30555555560167" y="1394.7016339869415"/>
      <point x="13.544444444398337" y="1460.4575163399318" type="qcurve"/>
      <point x="13.544444444398337" y="1476.0" type="line"/>
      <point x="211.45359477127167" y="1409.6928104574565"/>
      <point x="431.74810457512" y="926.2486928104466"/>
      <point x="431.74810457512" y="525.0" type="qcurve" smooth="yes"/>
      <point x="431.74810457512" y="515.0" type="line" smooth="yes"/>
      <point x="431.74810457512" y="72.96241830061834"/>
      <point x="211.45359477127167" y="-369.6928104574567"/>
    </contour>
  </outline>
</glyph>
<glyph name="asterisk" format="2">
  <advance width="1002"/>
  <unicode hex="002A"/>
  <outline>
    <contour>
      <point x="58.0" y="1130.8037124182817" type="line"/>
      <point x="71.60670588233666" y="1188.169137254845" type="line"/>
      <point x="478.285967320275" y="1052.447045751615" type="line"/>
      <point x="477.266967320275" y="1476.0" type="line"/>
      <point x="524.9137647058417" y="1476.0" type="line"/>
      <point x="524.9614313725083" y="1052.447045751615" type="line"/>
      <point x="930.5740261437801" y="1188.169137254845" type="line"/>
      <point x="944.1807320261166" y="1130.8037124182817" type="line"/>
      <point x="536.9611241829549" y="1006.1143006536083" type="line"/>
      <point x="790.3496274509966" y="665.9893986927834" type="line"/>
      <point x="752.8022026144333" y="631.5933464052234" type="line"/>
      <point x="501.0903660130583" y="976.7655816993816" type="line"/>
      <point x="249.3785294118217" y="631.5933464052234" type="line"/>
      <point x="212.89777124178667" y="665.9893986927834" type="line"/>
      <point x="465.21960784316167" y="1006.1143006536083" type="line"/>
    </contour>
  </outline>
</glyph>
<glyph name="plus" format="2">
  <advance width="1520"/>
  <unicode hex="002B"/>
  <outline>
    <contour>
      <point x="213.74427450982833" y="648.25198692811" type="line"/>
      <point x="213.74427450982833" y="704.5467058823367" type="line"/>
      <point x="1306.5603006536082" y="704.5467058823367" type="line"/>
      <point x="1306.5603006536082" y="648.25198692811" type="line"/>
    </contour>
    <contour>
      <point x="734.1632222222682" y="104.74324183010332" type="line"/>
      <point x="734.1632222222682" y="1243.2567581698966" type="line"/>
      <point x="786.1413529411684" y="1243.2567581698966" type="line"/>
      <point x="786.1413529411684" y="104.74324183010332" type="line"/>
    </contour>
  </outline>
</glyph>
<glyph name="comma" format="2">
  <advance width="470"/>
  <unicode hex="002C"/>
  <outline>
    <contour>
      <point x="169.6933071895533" y="-134.7346928104467" type="line"/>
      <point x="190.8433333333333" y="-96.37601307189001"/>
      <point x="210.0" y="-11.525320261443333"/>
      <point x="210.0" y="43.42669281044667" type="qcurve" smooth="yes"/>
      <point x="210.0" y="138.65074509800667" type="line"/>
      <point x="280.6387712417866" y="138.65074509800667" type="line"/>
      <point x="280.6387712417866" y="43.42669281044667" type="line" smooth="yes"/>
      <point x="280.6387712417866" y="-24.949333333333335"/>
      <point x="248.45806535944996" y="-124.75203921567001"/>
      <point x="218.87170588233667" y="-165.17005228756" type="qcurve"/>
    </contour>
  </outline>
</glyph>
<glyph name="hyphen" format="2">
  <advance width="469"/>
  <unicode hex="002D"/>
  <outline>
    <contour>
      <point x="-7.986928104604999" y="613.0293071895534" type="line"/>
      <point x="-7.986928104604999" y="668.73202614378" type="line"/>
      <point x="475.9380653594499" y="668.73202614378" type="line"/>
      <point x="475.9380653594499" y="613.0293071895534" type="line"/>
    </contour>
  </outline>
</glyph>
<glyph name="period" format="2">
  <advance width="421"/>
  <unicode hex="002E"/>
  <outline>
    <contour>
      <point x="160.0" y="56.681372549003335" type="qcurve" smooth="yes"/>
      <point x="160.0" y="89.75939869278334"/>
      <point x="186.76803921567" y="136.31209150323002"/>
      <point x="211.58341176467334" y="136.31209150323002" type="qcurve" smooth="yes"/>
      <point x="234.38277124178663" y="136.31209150323002"/>
      <point x="260.08414379079" y="89.75939869278334"/>
      <point x="260.08414379079" y="56.56405228756" type="qcurve" smooth="yes"/>
      <point x="260.08414379079" y="24.552692810446672"/>
      <point x="234.38277124178663" y="-22.0"/>
      <point x="209.56739869278334" y="-22.0" type="qcurve" smooth="yes"/>
      <point x="186.76803921567" y="-22.0"/>
      <point x="160.0" y="24.552692810446672"/>
    </contour>
  </outline>
</glyph>
<glyph name="slash" format="2">
  <advance width="491"/>
  <unicode hex="002F"/>
  <outline>
    <contour>
      <point x="-115.89346405223334" y="-125.0" type="line"/>
      <point x="522.9104313725082" y="1456.0" type="line"/>
      <point x="608.01215686268" y="1456.0" type="line"/>
      <point x="-32.91176470584166" y="-125.0" type="line"/>
    </contour>
  </outline>
</glyph>
<glyph name="zero" format="2">
  <advance width="1141"/>
  <unicode hex="0030"/>
  <outline>
    <contour>
      <point x="183.73986928109997" y="455.52745098034336" type="qcurve" smooth="yes"/>
      <point x="183.73986928109997" y="997.70588235299" type="line" smooth="yes"/>
      <point x="183.73986928109997" y="1233.036928104605"/>
      <point x="386.01633986927834" y="1486.0"/>
      <point x="570.1287581698966" y="1486.0" type="qcurve" smooth="yes"/>
      <point x="755.00784313732" y="1486.0"/>
      <point x="957.4669934640549" y="1233.036928104605"/>
      <point x="957.4669934640549" y="997.70588235299" type="qcurve" smooth="yes"/>
      <point x="957.4669934640549" y="455.52745098034336" type="line" smooth="yes"/>
      <point x="957.4669934640549" y="220.431045751615"/>
      <point x="755.00784313732" y="-30.0"/>
      <point x="570.1287581698966" y="-30.0" type="qcurve" smooth="yes"/>
      <point x="386.01633986927834" y="-30.0"/>
      <point x="183.73986928109997" y="220.431045751615"/>
    </contour>
    <contour>
      <point x="236.21666666666667" y="451.06078431367666" type="line" smooth="yes"/>
      <point x="236.21666666666667" y="257.94575163395166"/>
      <point x="410.13169934639166" y="27.37941176467335"/>
      <point x="570.1287581698966" y="27.37941176467335" type="qcurve" smooth="yes"/>
      <point x="730.1258169934016" y="27.37941176467335"/>
      <point x="905.9395424837118" y="257.94575163395166"/>
      <point x="905.9395424837118" y="451.06078431367666" type="qcurve" smooth="yes"/>
      <point x="905.9395424837118" y="998.0225490196567" type="line" smooth="yes"/>
      <point x="905.9395424837118" y="1189.988888888935"/>
      <point x="731.5091503267349" y="1428.6205882353267"/>
      <point x="570.1287581698966" y="1428.6205882353267" type="qcurve" smooth="yes"/>
      <point x="408.74836601305833" y="1428.6205882353267"/>
      <point x="236.21666666666667" y="1189.988888888935"/>
      <point x="236.21666666666667" y="998.0225490196567" type="qcurve" smooth="yes"/>
    </contour>
  </outline>
</glyph>
<glyph name="one" format="2">
  <advance width="1141"/>
  <unicode hex="0031"/>
  <outline>
    <contour>
      <point x="603.98006535945" y="0.0" type="line"/>
      <point x="603.98006535945" y="1412.9813725490033" type="line"/>
      <point x="213.759150326735" y="1287.8026143791067" type="line"/>
      <point x="213.759150326735" y="1339.7833333333333" type="line"/>
      <point x="615.4326797385567" y="1476.0" type="line"/>
      <point x="655.8401960784884" y="1476.0" type="line"/>
      <point x="655.8401960784884" y="0.0" type="line"/>
    </contour>
  </outline>
</glyph>
<glyph name="two" format="2">
  <advance width="1141"/>
  <unicode hex="0032"/>
  <outline>
    <contour>
      <point x="184.68921568632334" y="0.0" type="line"/>
      <point x="184.68921568632334" y="57.04607843134001" type="line"/>
      <point x="735.3104575162882" y="701.6434640522333" type="line" smooth="yes"/>
      <point x="810.9437908496216" y="795.35196078433"/>
      <point x="921.9581699347084" y="1006.3486928104467"/>
      <point x="921.9581699347084" y="1133.81797385622" type="qcurve" smooth="yes"/>
      <point x="921.9581699347084" y="1252.03594771244"/>
      <point x="760.0444444443982" y="1430.00392156866"/>
      <point x="604.3614379084534" y="1428.6205882353267" type="qcurve" smooth="yes"/>
      <point x="436.81633986927835" y="1427.2372549019933"/>
      <point x="239.13333333333333" y="1245.4738562092102"/>
      <point x="239.13333333333333" y="1050.2346405228866" type="qcurve" smooth="yes"/>
      <point x="239.13333333333333" y="1031.9346405228866" type="line"/>
      <point x="187.8898692811" y="1031.9346405228866" type="line"/>
      <point x="187.8898692811" y="1048.8513071895534" type="line" smooth="yes"/>
      <point x="187.8898692811" y="1255.32189542488"/>
      <point x="413.50294117649497" y="1486.0"/>
      <point x="604.3614379084534" y="1486.0" type="qcurve" smooth="yes"/>
      <point x="783.9251633986249" y="1486.0"/>
      <point x="974.5849673202749" y="1275.8346405228867"/>
      <point x="974.5849673202749" y="1132.7513071895532" type="qcurve" smooth="yes"/>
      <point x="974.5849673202749" y="1001.8852941176633"/>
      <point x="893.1627450980067" y="804.85"/>
      <point x="772.9251633986249" y="661.2506535947766" type="qcurve" smooth="yes"/>
      <point x="239.102941176495" y="32.76928104577334" type="line"/>
      <point x="1025.8156862745016" y="32.76928104577334" type="line"/>
      <point x="1025.8156862745016" y="0.0" type="line"/>
    </contour>
  </outline>
</glyph>
<glyph name="three" format="2">
  <advance width="1141"/>
  <unicode hex="0033"/>
  <outline>
    <contour>
      <point x="156.50653594776665" y="379.13202614378" type="qcurve" smooth="yes"/>
      <point x="156.50653594776665" y="391.8986928104467" type="line"/>
      <point x="207.9" y="391.8986928104467" type="line"/>
      <point x="207.9" y="381.8986928104467" type="line" smooth="yes"/>
      <point x="207.9" y="213.68137254900333"/>
      <point x="422.1284313725083" y="26.430065359450012"/>
      <point x="577.24411764701" y="26.430065359450012" type="qcurve" smooth="yes"/>
      <point x="718.5264705881782" y="26.430065359450012"/>
      <point x="941.8215686274917" y="210.4807189542267"/>
      <point x="941.8215686274917" y="375.6153594771133" type="qcurve" smooth="yes"/>
      <point x="941.8215686274917" y="560.4333333333333"/>
      <point x="687.1964444443984" y="728.3186274509967"/>
      <point x="537.89405228756" y="728.3186274509967" type="qcurve" smooth="yes"/>
      <point x="412.42179084962163" y="728.3186274509967" type="line"/>
      <point x="412.42179084962163" y="788.73202614378" type="line"/>
      <point x="527.3473725490034" y="788.73202614378" type="line" smooth="yes"/>
      <point x="676.9470718953951" y="788.73202614378"/>
      <point x="889.7588235293467" y="959.25"/>
      <point x="889.7588235293467" y="1099.8006535947768" type="qcurve" smooth="yes"/>
      <point x="889.7588235293467" y="1256.318627450997"/>
      <point x="707.9450980391749" y="1430.9532679738834"/>
      <point x="577.2994509803433" y="1430.1786013072165" type="qcurve" smooth="yes"/>
      <point x="462.32254901965666" y="1429.5699346405502"/>
      <point x="245.93006535945" y="1242.9192810457732"/>
      <point x="245.93006535945" y="1098.1013071895534" type="qcurve" smooth="yes"/>
      <point x="245.93006535945" y="1074.26797385622" type="line"/>
      <point x="196.35392156865998" y="1074.26797385622" type="line"/>
      <point x="196.35392156865998" y="1098.1013071895534" type="line" smooth="yes"/>
      <point x="196.35392156865998" y="1268.7339869281102"/>
      <point x="438.559150326735" y="1486.0"/>
      <point x="577.2994509803433" y="1486.0" type="qcurve" smooth="yes"/>
      <point x="731.8258169934016" y="1486.0"/>
      <point x="941.6189542483851" y="1269.0506535947768"/>
      <point x="941.6189542483851" y="1099.0506535947768" type="qcurve" smooth="yes"/>
      <point x="941.6189542483851" y="990.3166666666667"/>
      <point x="814.9614379084534" y="814.6166666666667"/>
      <point x="685.9385620915467" y="761.85" type="qcurve"/>
      <point x="685.9385620915467" y="757.85" type="line"/>
      <point x="811.4447712417866" y="732.7666666666667"/>
      <point x="995.6816993463917" y="546.4826797385566"/>
      <point x="995.6816993463917" y="367.36601307189" type="qcurve" smooth="yes"/>
      <point x="995.6816993463917" y="202.33267973855666"/>
      <point x="749.1411764706534" y="-30.0"/>
      <point x="577.24411764701" y="-31.383333333333333" type="qcurve" smooth="yes"/>
      <point x="433.18986928109996" y="-32.766666666666666"/>
      <point x="156.50653594776665" y="184.34934640522334"/>
    </contour>
  </outline>
</glyph>
<glyph name="four" format="2">
  <advance width="1141"/>
  <unicode hex="0034"/>
  <outline>
    <contour>
      <point x="787.88202614378" y="0.0" type="line"/>
      <point x="787.88202614378" y="391.0833333333333" type="line"/>
      <point x="787.88202614378" y="400.8333333333333" type="line"/>
      <point x="787.88202614378" y="1308.6029411764948" type="line"/>
      <point x="781.4153594771133" y="1308.6029411764948" type="line"/>
      <point x="135.30816993470833" y="424.83071895422665" type="line"/>
      <point x="799.8924836600683" y="424.83071895422665" type="line"/>
      <point x="813.03594771244" y="424.83071895422665" type="line"/>
      <point x="1050.5084967319585" y="424.83071895422665" type="line"/>
      <point x="1050.5084967319585" y="369.4673202614433" type="line"/>
      <point x="80.62189542488" y="369.4673202614433" type="line"/>
      <point x="80.62189542488" y="441.12941176467336" type="line"/>
      <point x="807.56797385622" y="1456.0" type="line"/>
      <point x="841.1415032680418" y="1456.0" type="line"/>
      <point x="841.1415032680418" y="0.0" type="line"/>
    </contour>
  </outline>
</glyph>
<glyph name="five" format="2">
  <advance width="1141"/>
  <unicode hex="0035"/>
  <outline>
    <contour>
      <point x="148.8398692811" y="362.74869281044664" type="qcurve" smooth="yes"/>
      <point x="148.8398692811" y="376.8986928104467" type="line"/>
      <point x="199.61666666666667" y="376.8986928104467" type="line"/>
      <point x="199.61666666666667" y="366.8986928104467" type="line" smooth="yes"/>
      <point x="199.61666666666667" y="208.68137254900333"/>
      <point x="408.579084967285" y="26.430065359450012"/>
      <point x="575.52810457512" y="26.430065359450012" type="qcurve" smooth="yes"/>
      <point x="741.211111111065" y="26.430065359450012"/>
      <point x="932.1549019608251" y="257.29803921567"/>
      <point x="932.1549019608251" y="465.0" type="qcurve" smooth="yes"/>
      <point x="932.1549019608251" y="651.8346405228866"/>
      <point x="741.211111111065" y="848.16993464055"/>
      <point x="575.6454248365633" y="848.16993464055" type="qcurve" smooth="yes"/>
      <point x="497.8032679738833" y="849.5532679738833"/>
      <point x="294.01437908494836" y="738.2705882353266"/>
      <point x="252.654901960825" y="678.1065359477667" type="qcurve"/>
      <point x="196.75261437910666" y="704.5846405228866" type="line"/>
      <point x="271.38594771244" y="1456.0" type="line"/>
      <point x="922.0882352941584" y="1456.0" type="line"/>
      <point x="922.0882352941584" y="1400.1372549019934" type="line"/>
      <point x="317.48006535945" y="1400.1372549019934" type="line"/>
      <point x="244.11339869278333" y="720.0604575162882" type="line"/>
      <point x="280.84215686268" y="790.45784313732"/>
      <point x="490.4532679738833" y="904.2166666666667"/>
      <point x="587.4735294118217" y="904.2166666666667" type="qcurve" smooth="yes"/>
      <point x="763.3565359477667" y="904.2166666666667"/>
      <point x="984.7816993463917" y="673.1833333333333"/>
      <point x="984.7816993463917" y="465.0" type="qcurve" smooth="yes"/>
      <point x="984.7816993463917" y="235.0"/>
      <point x="762.3251633986249" y="-30.0"/>
      <point x="575.52810457512" y="-30.0" type="qcurve" smooth="yes"/>
      <point x="421.05588235299" y="-30.0"/>
      <point x="148.8398692811" y="172.43267973855666"/>
    </contour>
  </outline>
</glyph>
<glyph name="six" format="2">
  <advance width="1141"/>
  <unicode hex="0036"/>
  <outline>
    <contour>
      <point x="148.61176470584167" y="614.0" type="qcurve" smooth="yes"/>
      <point x="148.61176470584167" y="644.0" type="line" smooth="yes"/>
      <point x="148.61176470584167" y="1029.5333333333333"/>
      <point x="531.7552287582133" y="1486.0"/>
      <point x="804.8346405228867" y="1486.0" type="qcurve" smooth="yes"/>
      <point x="824.9166666666666" y="1486.0" type="line"/>
      <point x="824.9166666666666" y="1428.6205882353267" type="line"/>
      <point x="804.8346405228867" y="1428.6205882353267" type="line" smooth="yes"/>
      <point x="561.4506535947767" y="1428.6205882353267"/>
      <point x="199.23856209154667" y="1016.3686274509967"/>
      <point x="199.23856209154667" y="654.0" type="qcurve" smooth="yes"/>
      <point x="199.23856209154667" y="604.0" type="line" smooth="yes"/>
      <point x="199.23856209154667" y="288.3147058823367"/>
      <point x="438.0643790849483" y="26.430065359450012"/>
      <point x="613.9467320261167" y="26.430065359450012" type="qcurve" smooth="yes"/>
      <point x="790.6611111110649" y="26.430065359450012"/>
      <point x="969.6401960784883" y="256.29803921567"/>
      <point x="969.6401960784883" y="464.0" type="qcurve" smooth="yes"/>
      <point x="969.6401960784883" y="653.6013071895534"/>
      <point x="790.6611111110649" y="861.03594771244"/>
      <point x="620.8633986927833" y="861.03594771244" type="qcurve" smooth="yes"/>
      <point x="448.1464052287283" y="861.03594771244"/>
      <point x="193.23856209154667" y="627.6346405228867"/>
      <point x="193.23856209154667" y="464.0" type="qcurve"/>
      <point x="164.14117647065333" y="464.0" type="line"/>
      <point x="164.14117647065333" y="661.7493464052234"/>
      <point x="433.715032679725" y="917.46601307189"/>
      <point x="623.12614379079" y="917.46601307189" type="qcurve" smooth="yes"/>
      <point x="814.8232026144333" y="917.46601307189"/>
      <point x="1022.2669934640548" y="667.2826797385567"/>
      <point x="1022.2669934640548" y="464.0" type="qcurve" smooth="yes"/>
      <point x="1022.2669934640548" y="244.0"/>
      <point x="804.7764705881782" y="-30.0"/>
      <point x="614.89607843134" y="-30.0" type="qcurve" smooth="yes"/>
      <point x="406.083006535945" y="-30.0"/>
      <point x="148.61176470584167" y="304.43333333333334"/>
    </contour>
  </outline>
</glyph>
<glyph name="seven" format="2">
  <advance width="1141"/>
  <unicode hex="0037"/>
  <outline>
    <contour>
      <point x="341.05326797388335" y="0.0" type="line"/>
      <point x="946.5254901960134" y="1404.1186274509969" type="line"/>
      <point x="98.07058823532665" y="1404.1186274509969" type="line"/>
      <point x="98.07058823532665" y="1456.0" type="line"/>
      <point x="1000.383006535945" y="1456.0" type="line"/>
      <point x="1000.383006535945" y="1394.5212418301035" type="line"/>
      <point x="402.96209150323" y="0.0" type="line"/>
    </contour>
  </outline>
</glyph>
<glyph name="eight" format="2">
  <advance width="1141"/>
  <unicode hex="0038"/>
  <outline>
    <contour>
      <point x="143.15653594776666" y="376.31666666666666" type="qcurve" smooth="yes"/>
      <point x="143.15653594776666" y="521.85"/>
      <point x="311.9928104574567" y="704.08398692811"/>
      <point x="440.56830065360833" y="742.7186274509967" type="qcurve"/>
      <point x="440.56830065360833" y="746.7186274509967" type="line"/>
      <point x="323.8075163399317" y="778.8866013072167"/>
      <point x="188.45261437910665" y="973.6"/>
      <point x="188.45261437910665" y="1096.6833333333334" type="qcurve" smooth="yes"/>
      <point x="188.45261437910665" y="1272.5333333333333"/>
      <point x="404.14379084962167" y="1486.0"/>
      <point x="568.6787581698967" y="1486.0" type="qcurve" smooth="yes"/>
      <point x="733.2137254901716" y="1486.0"/>
      <point x="953.7035947712717" y="1267.7346405228866"/>
      <point x="953.7035947712717" y="1096.6833333333334" type="qcurve" smooth="yes"/>
      <point x="953.7035947712717" y="973.6"/>
      <point x="818.5986928104467" y="780.26993464055"/>
      <point x="699.1885620915467" y="746.7186274509967" type="qcurve"/>
      <point x="699.1885620915467" y="742.7186274509967" type="line"/>
      <point x="834.6807189542267" y="712.38398692811"/>
      <point x="999.9490196078349" y="524.3"/>
      <point x="999.9490196078349" y="376.31666666666666" type="qcurve" smooth="yes"/>
      <point x="999.9490196078349" y="182.46666666666667"/>
      <point x="751.9124183006182" y="-30.0"/>
      <point x="568.6787581698967" y="-30.0" type="qcurve" smooth="yes"/>
      <point x="385.445098039175" y="-30.0"/>
      <point x="143.15653594776666" y="182.46666666666667"/>
    </contour>
    <contour>
      <point x="196.55" y="376.51601307189003" type="qcurve" smooth="yes"/>
      <point x="196.55" y="221.38137254900334"/>
      <point x="396.993137254845" y="24.09738562089335"/>
      <point x="568.6787581698967" y="25.480718954226674" type="qcurve" smooth="yes"/>
      <point x="740.247058823505" y="25.480718954226674"/>
      <point x="945.4888888889351" y="206.59869281044666"/>
      <point x="945.4888888889351" y="376.51601307189003" type="qcurve" smooth="yes"/>
      <point x="945.4888888889351" y="527.18398692811"/>
      <point x="740.247058823505" y="717.41797385622"/>
      <point x="568.6787581698967" y="717.41797385622" type="qcurve" smooth="yes"/>
      <point x="396.993137254845" y="716.0346405228867"/>
      <point x="196.55" y="528.1333333333333"/>
    </contour>
    <contour>
      <point x="240.61274509800666" y="1096.4839869281102" type="qcurve" smooth="yes"/>
      <point x="240.61274509800666" y="955.81601307189"/>
      <point x="418.0245098039867" y="773.9653594771133"/>
      <point x="568.6787581698967" y="772.58202614378" type="qcurve" smooth="yes"/>
      <point x="719.2156862745016" y="772.58202614378"/>
      <point x="901.5434640522333" y="955.81601307189"/>
      <point x="901.5434640522333" y="1096.4839869281102" type="qcurve" smooth="yes"/>
      <point x="901.5434640522333" y="1242.6852941176635"/>
      <point x="719.2156862745016" y="1430.5192810457734"/>
      <point x="568.6787581698967" y="1430.5192810457734" type="qcurve" smooth="yes"/>
      <point x="418.0245098039867" y="1431.9026143791066"/>
      <point x="240.61274509800666" y="1242.6852941176635"/>
    </contour>
  </outline>
</glyph>
<glyph name="nine" format="2">
  <advance width="1141"/>
  <unicode hex="0039"/>
  <outline>
    <contour>
      <point x="118.93986928109999" y="988.1666666666666" type="qcurve" smooth="yes"/>
      <point x="118.93986928109999" y="1209.7"/>
      <point x="348.88039215683835" y="1486.0"/>
      <point x="538.7607843136767" y="1486.0" type="qcurve" smooth="yes"/>
      <point x="747.6911764706533" y="1486.0"/>
      <point x="992.5950980391749" y="1151.5666666666666"/>
      <point x="992.5950980391749" y="842.0" type="qcurve" smooth="yes"/>
      <point x="992.5950980391749" y="812.0" type="line" smooth="yes"/>
      <point x="992.5950980391749" y="426.46666666666664"/>
      <point x="598.3849673202751" y="-30.0"/>
      <point x="336.3722222222683" y="-30.0" type="qcurve" smooth="yes"/>
      <point x="315.340849673265" y="-30.0" type="line"/>
      <point x="315.340849673265" y="27.37941176467335" type="line"/>
      <point x="336.3722222222683" y="27.37941176467335" type="line" smooth="yes"/>
      <point x="579.7562091503784" y="27.37941176467335"/>
      <point x="941.0189542483851" y="439.63137254900334"/>
      <point x="941.0189542483851" y="802.0" type="qcurve" smooth="yes"/>
      <point x="941.0189542483851" y="852.0" type="line" smooth="yes"/>
      <point x="941.0189542483851" y="1167.6852941176635"/>
      <point x="715.5924836600683" y="1429.5699346405502"/>
      <point x="538.7607843136767" y="1429.5699346405502" type="qcurve" smooth="yes"/>
      <point x="362.0464052287283" y="1429.5699346405502"/>
      <point x="172.63333333333333" y="1197.7852941176634"/>
      <point x="172.63333333333333" y="988.1666666666666" type="qcurve" smooth="yes"/>
      <point x="172.63333333333333" y="796.6486928104466"/>
      <point x="349.5964052287284" y="587.2973856208934"/>
      <point x="519.39411764701" y="587.2973856208934" type="qcurve" smooth="yes"/>
      <point x="693.0604575162882" y="587.2973856208934"/>
      <point x="947.0189542483851" y="821.5486928104467"/>
      <point x="947.0189542483851" y="988.1666666666666" type="qcurve"/>
      <point x="978.1323529411683" y="988.1666666666666" type="line"/>
      <point x="978.1323529411683" y="788.88398692811"/>
      <point x="706.5424836600682" y="530.8673202614433"/>
      <point x="517.1313725490033" y="530.8673202614433" type="qcurve" smooth="yes"/>
      <point x="326.9496732026117" y="530.8673202614433"/>
      <point x="118.93986928109999" y="784.3"/>
    </contour>
  </outline>
</glyph>
<glyph name="colon" format="2">
  <advance width="453"/>
  <unicode hex="003A"/>
  <outline>
    <contour>
      <point x="176.0" y="56.21470588233667" type="qcurve" smooth="yes"/>
      <point x="176.0" y="96.79738562089334"/>
      <point x="206.56535947711333" y="134.42941176467335"/>
      <point x="227.16339869278335" y="134.42941176467335" type="qcurve" smooth="yes"/>
      <point x="247.76143790845333" y="134.42941176467335"/>
      <point x="276.94346405223337" y="96.79738562089334"/>
      <point x="276.94346405223337" y="56.21470588233667" type="qcurve" smooth="yes"/>
      <point x="276.94346405223337" y="15.632026143780003"/>
      <point x="247.76143790845333" y="-22.0"/>
      <point x="227.16339869278335" y="-22.0" type="qcurve" smooth="yes"/>
      <point x="207.51470588233667" y="-22.0"/>
      <point x="176.0" y="15.632026143780003"/>
    </contour>
    <contour>
      <point x="176.0" y="989.7852941176633" type="qcurve" smooth="yes"/>
      <point x="176.0" y="1031.3173202614432"/>
      <point x="206.56535947711333" y="1068.0"/>
      <point x="227.16339869278335" y="1068.0" type="qcurve" smooth="yes"/>
      <point x="247.76143790845333" y="1068.0"/>
      <point x="276.94346405223337" y="1031.3173202614432"/>
      <point x="276.94346405223337" y="989.7852941176633" type="qcurve" smooth="yes"/>
      <point x="276.94346405223337" y="949.2026143791066"/>
      <point x="247.76143790845333" y="911.5705882353267"/>
      <point x="227.16339869278335" y="911.5705882353267" type="qcurve" smooth="yes"/>
      <point x="207.51470588233667" y="911.5705882353267"/>
      <point x="176.0" y="949.2026143791066"/>
    </contour>
  </outline>
</glyph>
<glyph name="semicolon" format="2">
  <advance width="453"/>
  <unicode hex="003B"/>
  <outline>
    <contour>
      <point x="170.28866666666664" y="-134.7346928104467" type="line"/>
      <point x="191.4386928104467" y="-96.37601307189001"/>
      <point x="211.66202614378" y="-11.525320261443333"/>
      <point x="211.66202614378" y="43.42669281044667" type="qcurve" smooth="yes"/>
      <point x="211.66202614378" y="137.70139869278333" type="line"/>
      <point x="279.33543790845334" y="137.70139869278333" type="line"/>
      <point x="279.33543790845334" y="44.49335947711334" type="line" smooth="yes"/>
      <point x="279.33543790845334" y="-24.949333333333335"/>
      <point x="250.12009150323001" y="-123.68537254900335"/>
      <point x="219.46706535945" y="-165.17005228756" type="qcurve"/>
    </contour>
    <contour>
      <point x="176.0" y="989.7852941176633" type="qcurve" smooth="yes"/>
      <point x="176.0" y="1031.3173202614432"/>
      <point x="206.56535947711333" y="1068.0"/>
      <point x="227.16339869278335" y="1068.0" type="qcurve" smooth="yes"/>
      <point x="247.76143790845333" y="1068.0"/>
      <point x="276.94346405223337" y="1031.3173202614432"/>
      <point x="276.94346405223337" y="989.7852941176633" type="qcurve" smooth="yes"/>
      <point x="276.94346405223337" y="949.2026143791066"/>
      <point x="247.76143790845333" y="911.5705882353267"/>
      <point x="227.16339869278335" y="911.5705882353267" type="qcurve" smooth="yes"/>
      <point x="207.51470588233667" y="911.5705882353267"/>
      <point x="176.0" y="949.2026143791066"/>
    </contour>
  </outline>
</glyph>
<glyph name="less" format="2">
  <advance width="1554"/>
  <unicode hex="003C"/>
  <outline>
    <contour>
      <point x="1197.836967320275" y="259.86396078433" type="line"/>
      <point x="342.8542483660483" y="645.5919869281099" type="line"/>
      <point x="342.8542483660483" y="712.0053986927833" type="line"/>
      <point x="1197.836967320275" y="1097.7334248365632" type="line"/>
      <point x="1197.836967320275" y="1039.87405228756" type="line"/>
      <point x="378.69715032673497" y="666.80196078433" type="line"/>
      <point x="1197.836967320275" y="293.72986928110004" type="line"/>
    </contour>
  </outline>
</glyph>
<glyph name="equal" format="2">
  <advance width="1556"/>
  <unicode hex="003D"/>
  <outline>
    <contour>
      <point x="447.0079084967699" y="472.14874509800666" type="line"/>
      <point x="447.0079084967699" y="516.3294117646733" type="line"/>
      <point x="1108.4340784313401" y="516.3294117646733" type="line"/>
      <point x="1108.4340784313401" y="472.14874509800666" type="line"/>
    </contour>
    <contour>
      <point x="447.0079084967699" y="884.4562091503784" type="line"/>
      <point x="447.0079084967699" y="928.6368758170449" type="line"/>
      <point x="1108.4340784313401" y="928.6368758170449" type="line"/>
      <point x="1108.4340784313401" y="884.4562091503784" type="line"/>
    </contour>
  </outline>
</glyph>
<glyph name="greater" format="2">
  <advance width="1554"/>
  <unicode hex="003E"/>
  <outline>
    <contour>
      <point x="355.652941176495" y="259.86396078433" type="line"/>
      <point x="355.652941176495" y="317.72333333333336" type="line"/>
      <point x="1174.7927581698966" y="690.7954248365634" type="line"/>
      <point x="355.652941176495" y="1063.8675163399316" type="line"/>
      <point x="355.652941176495" y="1097.7334248365632" type="line"/>
      <point x="1210.6356601307216" y="712.0053986927833" type="line"/>
      <point x="1210.6356601307216" y="645.5919869281099" type="line"/>
    </contour>
  </outline>
</glyph>
<glyph name="question" format="2">
  <advance width="705"/>
  <unicode hex="003F"/>
  <outline>
    <contour>
      <point x="247.87405228756" y="56.32537254900333" type="qcurve" smooth="yes"/>
      <point x="247.87405228756" y="88.27605228756"/>
      <point x="274.71309150323" y="134.65074509800667"/>
      <point x="298.5327973855667" y="134.65074509800667" type="qcurve" smooth="yes"/>
      <point x="322.4698235293466" y="134.65074509800667"/>
      <point x="349.308862745155" y="88.27605228756"/>
      <point x="349.308862745155" y="56.32537254900333" type="qcurve" smooth="yes"/>
      <point x="349.308862745155" y="24.374692810446668"/>
      <point x="323.53649019601335" y="-22.0"/>
      <point x="299.5994640522334" y="-22.0" type="qcurve" smooth="yes"/>
      <point x="274.71309150323" y="-22.0"/>
      <point x="247.87405228756" y="24.374692810446668"/>
    </contour>
    <contour>
      <point x="44.38337254900334" y="1092.1519607843302" type="line"/>
      <point x="44.38337254900334" y="1112.1519607843302" type="line" smooth="yes"/>
      <point x="44.38337254900334" y="1276.7732287582132"/>
      <point x="202.09513725484499" y="1476.0"/>
      <point x="339.808849673265" y="1476.0" type="qcurve" smooth="yes"/>
      <point x="474.74721568632344" y="1476.0"/>
      <point x="628.1809673202749" y="1286.6532287582131"/>
      <point x="628.1809673202749" y="1147.26797385622" type="qcurve" smooth="yes"/>
      <point x="628.1809673202749" y="1008.60001307189"/>
      <point x="557.76414379079" y="848.8346928104467"/>
      <point x="471.7986535947767" y="749.9040261437799" type="qcurve" smooth="yes"/>
      <point x="384.59141830061833" y="647.8072810457733"/>
      <point x="324.63254248371163" y="501.95605228756"/>
      <point x="324.63254248371163" y="421.8986928104467" type="qcurve" smooth="yes"/>
      <point x="324.63254248371163" y="411.8986928104467" type="line"/>
      <point x="270.8233986927833" y="411.8986928104467" type="line"/>
      <point x="270.8233986927833" y="421.8986928104467" type="line" smooth="yes"/>
      <point x="270.8233986927833" y="532.0473725490033"/>
      <point x="356.1846470588317" y="695.87609150323"/>
      <point x="431.0217516339517" y="783.9226535947766" type="qcurve" smooth="yes"/>
      <point x="509.3902679738834" y="875.1926666666667"/>
      <point x="575.3211699347083" y="1028.5586535947766"/>
      <point x="575.3211699347083" y="1147.26797385622" type="qcurve" smooth="yes"/>
      <point x="575.3211699347083" y="1264.7932287582134"/>
      <point x="458.16384313731993" y="1420.8906143791069"/>
      <point x="339.808849673265" y="1420.8906143791069" type="qcurve" smooth="yes"/>
      <point x="221.67518954254336" y="1420.8906143791069"/>
      <point x="98.21618300659833" y="1257.7352287582132"/>
      <point x="98.21618300659833" y="1112.1519607843302" type="qcurve" smooth="yes"/>
      <point x="98.21618300659833" y="1092.1519607843302" type="line"/>
    </contour>
  </outline>
</glyph>
<glyph name="at" format="2">
  <advance width="1933"/>
  <unicode hex="0040"/>
  <outline>
    <contour>
      <point x="636.2982614379383" y="400.0" type="qcurve" smooth="yes"/>
      <point x="636.2982614379383" y="680.0"/>
      <point x="879.58314379079" y="1052.0"/>
      <point x="1056.8671633986248" y="1052.0" type="qcurve" smooth="yes"/>
      <point x="1121.6543071895535" y="1052.0"/>
      <point x="1239.9915424837116" y="977.3486666666666"/>
      <point x="1268.238967320275" y="946.0" type="qcurve"/>
      <point x="1295.7545359477665" y="946.0" type="line"/>
      <point x="1169.9249934640548" y="350.0" type="line" smooth="yes"/>
      <point x="1134.594967320275" y="182.73202614378"/>
      <point x="1281.2704313725083" y="53.68403921567"/>
      <point x="1396.9372287582132" y="53.68403921567" type="qcurve" smooth="yes"/>
      <point x="1562.2215732605334" y="53.68403921567"/>
      <point x="1770.8553725490033" y="384.02002614378006"/>
      <point x="1770.8553725490033" y="650.0" type="qcurve" smooth="yes"/>
      <point x="1770.8553725490033" y="959.7426405228866"/>
      <point x="1372.8935043634167" y="1431.2466143791066"/>
      <point x="1012.7204967319583" y="1431.2466143791066" type="qcurve" smooth="yes"/>
      <point x="651.789298039175" y="1431.2466143791066"/>
      <point x="164.88678431367666" y="861.6239738562199"/>
      <point x="164.88678431367666" y="460.0" type="qcurve" smooth="yes"/>
      <point x="164.88678431367666" y="51.791359477113325"/>
      <point x="589.3707077497099" y="-391.24661437910663"/>
      <point x="908.7123267973884" y="-391.24661437910663" type="qcurve" smooth="yes"/>
      <point x="1053.3978823529899" y="-391.24661437910663"/>
      <point x="1256.1555424837115" y="-337.24661437910663"/>
      <point x="1324.9796470588317" y="-301.24661437910663" type="qcurve"/>
      <point x="1324.9796470588317" y="-356.0" type="line"/>
      <point x="1250.984862745155" y="-400.0"/>
      <point x="1053.3978823529899" y="-446.0"/>
      <point x="908.7123267973884" y="-446.0" type="qcurve" smooth="yes"/>
      <point x="574.6009803921651" y="-446.0"/>
      <point x="114.0" y="40.0"/>
      <point x="114.0" y="460.0" type="qcurve" smooth="yes"/>
      <point x="114.0" y="880.0"/>
      <point x="638.049084967285" y="1486.0"/>
      <point x="1012.7204967319583" y="1486.0" type="qcurve" smooth="yes"/>
      <point x="1383.2972418301033" y="1486.0"/>
      <point x="1819.8055032680418" y="1000.0"/>
      <point x="1819.8055032680418" y="650.0" type="qcurve" smooth="yes"/>
      <point x="1819.8055032680418" y="360.0"/>
      <point x="1568.0076209150516" y="0.0"/>
      <point x="1387.9705620915468" y="0.0" type="qcurve" smooth="yes"/>
      <point x="1283.20743733884" y="0.0"/>
      <point x="1143.5820095865465" y="102.35449969432334"/>
      <point x="1112.4822483660482" y="189.4066666666667" type="qcurve"/>
      <point x="1083.6019458126184" y="100.10669078074666"/>
      <point x="950.8281868466332" y="0.0"/>
      <point x="868.5388627451549" y="0.0" type="qcurve" smooth="yes"/>
      <point x="761.8972549019934" y="0.0"/>
      <point x="636.2982614379383" y="220.0"/>
    </contour>
    <contour>
      <point x="686.141032679725" y="400.0" type="qcurve" smooth="yes"/>
      <point x="686.141032679725" y="229.9013464052233"/>
      <point x="784.0080387080534" y="53.80403921567002"/>
      <point x="876.3442745098283" y="53.80403921567002" type="qcurve" smooth="yes"/>
      <point x="960.3479035761601" y="53.80403921567002"/>
      <point x="1086.60442230285" y="206.73700778661333"/>
      <point x="1129.1609411764948" y="391.8986928104467" type="qcurve" smooth="yes"/>
      <point x="1247.8094052287283" y="935.2492810457734" type="line"/>
      <point x="1216.1626280988567" y="963.7949944989916"/>
      <point x="1111.4840000000002" y="997.1292810457734"/>
      <point x="1062.4181895425434" y="997.1292810457734" type="qcurve" smooth="yes"/>
      <point x="899.7776921021184" y="997.1292810457734"/>
      <point x="686.141032679725" y="656.9206405228866"/>
    </contour>
  </outline>
</glyph>
<glyph name="A" format="2">
  <advance width="1063"/>
  <unicode hex="0041"/>
  <outline>
    <contour>
      <point x="0.0" y="0.0" type="line"/>
      <point x="467.9042483660484" y="1466.0" type="line"/>
      <point x="594.6653594771133" y="1466.0" type="line"/>
      <point x="1063.120915032715" y="0.0" type="line"/>
      <point x="1005.2307189542266" y="0.0" type="line"/>
      <point x="597.4114379084533" y="1279.90392156866" type="line" smooth="yes"/>
      <point x="578.25" y="1330.4620915032299"/>
      <point x="546.5245098039867" y="1421.1323529411682"/>
      <point x="533.0777777777316" y="1464.8104575162884" type="qcurve"/>
      <point x="523.3124183006182" y="1464.8104575162884" type="line"/>
      <point x="509.86568627450157" y="1421.1323529411682"/>
      <point x="475.6901960784884" y="1330.4620915032299"/>
      <point x="457.79477124178663" y="1279.90392156866" type="qcurve" smooth="yes"/>
      <point x="50.875490196013345" y="0.0" type="line"/>
    </contour>
    <contour>
      <point x="164.518954248385" y="435.05261437910667" type="line"/>
      <point x="178.07973856206166" y="484.2493464052233" type="line"/>
      <point x="880.0758169934015" y="484.2493464052233" type="line"/>
      <point x="893.58594771244" y="435.05261437910667" type="line"/>
    </contour>
  </outline>
</glyph>
<glyph name="B" format="2">
  <advance width="1032"/>
  <unicode hex="0042"/>
  <outline>
    <contour>
      <point x="170.0" y="0.0" type="line"/>
      <point x="170.0" y="1456.0" type="line"/>
      <point x="522.642915032715" y="1456.0" type="line" smooth="yes"/>
      <point x="694.9753333333334" y="1456.0"/>
      <point x="885.2541372548451" y="1288.9001307188998"/>
      <point x="885.2541372548451" y="1093.6426666666666" type="qcurve" smooth="yes"/>
      <point x="885.2541372548451" y="963.1693333333333"/>
      <point x="778.8902745098284" y="790.0893333333332"/>
      <point x="695.2837973855667" y="766.1186666666666" type="qcurve"/>
      <point x="695.2837973855667" y="762.1186666666666" type="line"/>
      <point x="802.844980392165" y="737.0813333333333"/>
      <point x="931.1635490196567" y="544.9493333333334"/>
      <point x="931.1635490196567" y="391.52799999999996" type="qcurve" smooth="yes"/>
      <point x="931.1635490196567" y="197.33720261443335"/>
      <point x="730.5103725490033" y="0.0"/>
      <point x="558.210967320275" y="0.0" type="qcurve" smooth="yes"/>
    </contour>
    <contour>
      <point x="221.78879738556662" y="54.87205228756001" type="line"/>
      <point x="558.210967320275" y="54.87205228756001" type="line" smooth="yes"/>
      <point x="723.63003921567" y="54.87205228756001"/>
      <point x="878.3984183006185" y="229.00256209154665"/>
      <point x="878.3984183006185" y="393.54401307189" type="qcurve" smooth="yes"/>
      <point x="878.3984183006185" y="547.5253333333334"/>
      <point x="723.584794280155" y="730.0899738562199"/>
      <point x="558.210967320275" y="730.0899738562199" type="qcurve" smooth="yes"/>
      <point x="221.78879738556662" y="730.0899738562199" type="line"/>
    </contour>
    <contour>
      <point x="221.78879738556662" y="785.9100261437801" type="line"/>
      <point x="522.642915032715" y="785.9100261437801" type="line" smooth="yes"/>
      <point x="687.2166535947766" y="785.9100261437801"/>
      <point x="832.489006535945" y="947.6453333333334"/>
      <point x="832.489006535945" y="1092.6933202614434" type="qcurve" smooth="yes"/>
      <point x="832.489006535945" y="1250.0480915032301"/>
      <point x="687.223550667495" y="1401.1279477124401"/>
      <point x="522.642915032715" y="1401.1279477124401" type="qcurve" smooth="yes"/>
      <point x="221.78879738556662" y="1401.1279477124401" type="line"/>
    </contour>
  </outline>
</glyph>
<glyph name="C" format="2">
  <advance width="1004"/>
  <unicode hex="0043"/>
  <outline>
    <contour>
      <point x="115.0" y="702.8801960784883" type="qcurve" smooth="yes"/>
      <point x="115.0" y="753.1198039215117" type="line" smooth="yes"/>
      <point x="115.0" y="1142.9707581698965"/>
      <point x="380.8002941176634" y="1486.0"/>
      <point x="603.1754575162884" y="1486.0" type="qcurve" smooth="yes"/>
      <point x="805.6905947712717" y="1486.0"/>
      <point x="984.2785228758767" y="1232.4461699347085"/>
      <point x="1032.8308104574567" y="998.1013071895534" type="qcurve" smooth="yes"/>
      <point x="1035.1634901960135" y="988.1013071895534" type="line"/>
      <point x="982.4456928104466" y="988.1013071895534" type="line"/>
      <point x="980.1130130718901" y="998.1013071895534" type="line" smooth="yes"/>
      <point x="947.0768431373199" y="1133.9632287582133"/>
      <point x="802.158683937175" y="1429.8226013072167"/>
      <point x="603.1754575162884" y="1429.8226013072167" type="qcurve" smooth="yes"/>
      <point x="387.64827485384" y="1429.8226013072167"/>
      <point x="166.60379738556665" y="1075.082444444398"/>
      <point x="166.60379738556665" y="796.853137254845" type="qcurve" smooth="yes"/>
      <point x="166.60379738556665" y="660.2135294118217" type="line" smooth="yes"/>
      <point x="166.60379738556665" y="331.43523944465835"/>
      <point x="404.98095459239664" y="26.177398692783328"/>
      <point x="602.1087908496216" y="26.177398692783328" type="qcurve" smooth="yes"/>
      <point x="810.4181610612984" y="26.177398692783328"/>
      <point x="976.66703921567" y="322.30539869278334"/>
      <point x="982.5123594771133" y="457.8986928104467" type="qcurve" smooth="yes"/>
      <point x="982.4456928104466" y="467.8986928104467" type="line"/>
      <point x="1035.1634901960135" y="467.8986928104467" type="line"/>
      <point x="1035.2301568626801" y="457.8986928104467" type="line" smooth="yes"/>
      <point x="1034.6647973855668" y="221.15448366006837"/>
      <point x="805.6905947712717" y="-30.0"/>
      <point x="603.1754575162884" y="-30.0" type="qcurve" smooth="yes"/>
      <point x="378.66696078433" y="-30.0"/>
      <point x="115.0" y="308.8342946317"/>
    </contour>
  </outline>
</glyph>
<glyph name="D" format="2">
  <advance width="1137"/>
  <unicode hex="0044"/>
  <outline>
    <contour>
      <point x="170.0" y="0.0" type="line"/>
      <point x="170.0" y="1456.0" type="line"/>
      <point x="472.862836601375" y="1456.0" type="line" smooth="yes"/>
      <point x="717.9306797385567" y="1456.0"/>
      <point x="1021.7743594771134" y="1114.20009150323"/>
      <point x="1021.7743594771134" y="753.1198039215117" type="qcurve" smooth="yes"/>
      <point x="1021.7743594771134" y="702.8801960784883" type="line" smooth="yes"/>
      <point x="1021.7743594771134" y="341.89449539125167"/>
      <point x="717.9306797385567" y="0.0"/>
      <point x="472.862836601375" y="0.0" type="qcurve" smooth="yes"/>
    </contour>
    <contour>
      <point x="221.6941307189" y="55.82139869278335" type="line"/>
      <point x="472.862836601375" y="55.82139869278335" type="line" smooth="yes"/>
      <point x="700.4537778688467" y="55.82139869278335"/>
      <point x="969.10389542488" y="364.36376797388334"/>
      <point x="969.10389542488" y="702.8801960784883" type="qcurve" smooth="yes"/>
      <point x="969.10389542488" y="753.1198039215117" type="line" smooth="yes"/>
      <point x="969.10389542488" y="1091.7053986927833"/>
      <point x="700.4537778688467" y="1400.1786013072165"/>
      <point x="472.862836601375" y="1400.1786013072165" type="qcurve" smooth="yes"/>
      <point x="221.6941307189" y="1400.1786013072165" type="line"/>
    </contour>
  </outline>
</glyph>
<glyph name="E" format="2">
  <advance width="944"/>
  <unicode hex="0045"/>
  <outline>
    <contour>
      <point x="170.0" y="0.0" type="line"/>
      <point x="170.0" y="1456.0" type="line"/>
      <point x="865.5643660130582" y="1456.0" type="line"/>
      <point x="865.5643660130582" y="1400.1786013072165" type="line"/>
      <point x="221.6941307189" y="1400.1786013072165" type="line"/>
      <point x="221.6941307189" y="778.9693594771134" type="line"/>
      <point x="757.0815424837117" y="778.9693594771134" type="line"/>
      <point x="757.0815424837117" y="723.0306405228866" type="line"/>
      <point x="221.6941307189" y="723.0306405228866" type="line"/>
      <point x="221.6941307189" y="55.82139869278335" type="line"/>
      <point x="876.9563790849484" y="55.82139869278335" type="line"/>
      <point x="876.9563790849484" y="0.0" type="line"/>
    </contour>
  </outline>
</glyph>
<glyph name="F" format="2">
  <advance width="910"/>
  <unicode hex="0046"/>
  <outline>
    <contour>
      <point x="170.0" y="0.0" type="line"/>
      <point x="170.0" y="1456.0" type="line"/>
      <point x="851.0016732026118" y="1456.0" type="line"/>
      <point x="851.0016732026118" y="1400.1786013072165" type="line"/>
      <point x="221.6941307189" y="1400.1786013072165" type="line"/>
      <point x="221.6941307189" y="747.0039999999999" type="line"/>
      <point x="761.312849673265" y="747.0039999999999" type="line"/>
      <point x="761.312849673265" y="692.2492679738833" type="line"/>
      <point x="221.6941307189" y="692.2492679738833" type="line"/>
      <point x="221.6941307189" y="0.0" type="line"/>
    </contour>
  </outline>
</glyph>
<glyph name="G" format="2">
  <advance width="991"/>
  <unicode hex="0047"/>
  <outline>
    <contour>
      <point x="115.0" y="702.8801960784883" type="qcurve" smooth="yes"/>
      <point x="115.0" y="753.1198039215117" type="line" smooth="yes"/>
      <point x="115.0" y="1138.7040915032298"/>
      <point x="381.86696078433" y="1486.0"/>
      <point x="567.7172875817183" y="1486.0" type="qcurve" smooth="yes"/>
      <point x="798.223928104605" y="1486.0"/>
      <point x="999.12810457512" y="1254.9013071895533"/>
      <point x="1027.7848235293466" y="1035.7019607843301" type="qcurve" smooth="yes"/>
      <point x="1029.7341699347085" y="1028.1013071895534" type="line"/>
      <point x="977.0163725490032" y="1028.1013071895534" type="line"/>
      <point x="973.7343464052233" y="1038.1013071895534" type="line" smooth="yes"/>
      <point x="944.3398692810999" y="1216.9013071895533"/>
      <point x="783.7105365340517" y="1429.8226013072167"/>
      <point x="572.515980392165" y="1429.8226013072167" type="qcurve" smooth="yes"/>
      <point x="390.0476212590633" y="1429.8226013072167"/>
      <point x="166.60379738556665" y="1135.3347320261166"/>
      <point x="166.60379738556665" y="795.7864705881783" type="qcurve" smooth="yes"/>
      <point x="166.60379738556665" y="660.2135294118217" type="line" smooth="yes"/>
      <point x="166.60379738556665" y="327.0620368303633"/>
      <point x="402.4277172461167" y="26.177398692783328"/>
      <point x="612.0768431373201" y="26.177398692783328" type="qcurve" smooth="yes"/>
      <point x="734.3773949733317" y="26.177398692783328"/>
      <point x="914.37765724913" y="84.44940290164334"/>
      <point x="981.9927058823366" y="144.36673202611667" type="qcurve"/>
      <point x="981.9927058823366" y="617.26797385622" type="line"/>
      <point x="610.5221372548451" y="617.26797385622" type="line"/>
      <point x="610.5221372548451" y="674.1560392156699" type="line"/>
      <point x="1029.7341699347085" y="674.1560392156699" type="line"/>
      <point x="1029.7341699347085" y="120.68535947711334" type="line"/>
      <point x="963.1533725490035" y="59.218692810446676"/>
      <point x="774.9631918448983" y="-30.0"/>
      <point x="606.7435098039867" y="-30.0" type="qcurve" smooth="yes"/>
      <point x="388.02064052288665" y="-30.0"/>
      <point x="115.0" y="291.66109201726664"/>
    </contour>
  </outline>
</glyph>
<glyph name="H" format="2">
  <advance width="1222"/>
  <unicode hex="0048"/>
  <outline>
    <contour>
      <point x="170.0" y="0.0" type="line"/>
      <point x="170.0" y="1456.0" type="line"/>
      <point x="222.05" y="1456.0" type="line"/>
      <point x="222.05" y="779.45" type="line"/>
      <point x="1001.7666666666667" y="779.45" type="line"/>
      <point x="1001.7666666666667" y="1456.0" type="line"/>
      <point x="1052.4333333333334" y="1456.0" type="line"/>
      <point x="1052.4333333333334" y="0.0" type="line"/>
      <point x="1001.7666666666667" y="0.0" type="line"/>
      <point x="1001.7666666666667" y="722.55" type="line"/>
      <point x="222.05" y="722.55" type="line"/>
      <point x="222.05" y="0.0" type="line"/>
    </contour>
  </outline>
</glyph>
<glyph name="J" format="2">
  <advance width="851"/>
  <unicode hex="004A"/>
  <outline>
    <contour>
      <point x="25.0" y="439.547058823505" type="qcurve" smooth="yes"/>
      <point x="25.0" y="449.547058823505" type="line"/>
      <point x="77.29411764701001" y="449.547058823505" type="line"/>
      <point x="77.29411764701001" y="407.547058823505" type="line" smooth="yes"/>
      <point x="77.29411764701001" y="204.85490196082498"/>
      <point x="224.09052287587667" y="25.51339869278334"/>
      <point x="361.25620915037837" y="25.51339869278334" type="qcurve" smooth="yes"/>
      <point x="497.35522875821334" y="25.51339869278334"/>
      <point x="645.2183006536084" y="222.304901960825"/>
      <point x="645.2183006536084" y="432.547058823505" type="qcurve" smooth="yes"/>
      <point x="645.2183006536084" y="1456.0" type="line"/>
      <point x="695.0624183006182" y="1456.0" type="line"/>
      <point x="695.0624183006182" y="464.547058823505" type="line" smooth="yes"/>
      <point x="695.0624183006182" y="200.55620915037832"/>
      <point x="515.9372549019934" y="-30.0"/>
      <point x="361.25620915037837" y="-30.0" type="qcurve" smooth="yes"/>
      <point x="205.50849673195836" y="-30.0"/>
      <point x="25.0" y="185.55620915037832"/>
    </contour>
  </outline>
</glyph>
<glyph name="K" format="2">
  <advance width="1059"/>
  <unicode hex="004B"/>
  <outline>
    <contour>
      <point x="170.0" y="0.0" type="line"/>
      <point x="170.0" y="1456.0" type="line"/>
      <point x="220.47679738556667" y="1456.0" type="line"/>
      <point x="220.47679738556667" y="632.5029411764951" type="line"/>
      <point x="1007.0123137254984" y="1456.0" type="line"/>
      <point x="1074.4266274509969" y="1456.0" type="line"/>
      <point x="221.6941307189" y="572.5183267973885" type="line"/>
      <point x="221.6941307189" y="0.0" type="line"/>
    </contour>
    <contour>
      <point x="1017.2863921568382" y="0.0" type="line"/>
      <point x="403.51345098034335" y="792.4666928104466" type="line"/>
      <point x="437.16960784316177" y="825.832" type="line"/>
      <point x="1078.6947058823366" y="0.0" type="line"/>
    </contour>
  </outline>
</glyph>
<glyph name="L" format="2">
  <advance width="796"/>
  <unicode hex="004C"/>
  <outline>
    <contour>
      <point x="170.0" y="0.0" type="line"/>
      <point x="170.0" y="1456.0" type="line"/>
      <point x="221.6941307189" y="1456.0" type="line"/>
      <point x="221.6941307189" y="55.82139869278335" type="line"/>
      <point x="844.6329803921649" y="55.82139869278335" type="line"/>
      <point x="844.6329803921649" y="0.0" type="line"/>
    </contour>
  </outline>
</glyph>
<glyph name="M" format="2">
  <advance width="1561"/>
  <unicode hex="004D"/>
  <outline>
    <contour>
      <point x="170.0" y="0.0" type="line"/>
      <point x="170.0" y="1456.0" type="line"/>
      <point x="236.44084967326498" y="1456.0" type="line"/>
      <point x="731.2264705881782" y="169.93039215683834" type="line" smooth="yes"/>
      <point x="744.0584967319583" y="134.597058823505"/>
      <point x="769.6532679738833" y="77.343137254845"/>
      <point x="776.4692810457733" y="46.16993464055" type="qcurve"/>
      <point x="782.33594771244" y="46.16993464055" type="line"/>
      <point x="790.5352941176633" y="77.343137254845"/>
      <point x="812.7666666666667" y="135.66372549017166"/>
      <point x="825.5986928104467" y="170.997058823505" type="qcurve" smooth="yes"/>
      <point x="1329.081045751615" y="1456.0" type="line"/>
      <point x="1390.3052287582134" y="1456.0" type="line"/>
      <point x="1390.3052287582134" y="0.0" type="line"/>
      <point x="1337.5284313725083" y="0.0" type="line"/>
      <point x="1337.5284313725083" y="1205.4117647058415" type="line" smooth="yes"/>
      <point x="1337.5284313725083" y="1241.8117647058416"/>
      <point x="1347.3937908496216" y="1329.6117647058416"/>
      <point x="1346.9277777777318" y="1364.9450980391748" type="qcurve"/>
      <point x="1338.9277777777318" y="1364.9450980391748" type="line"/>
      <point x="1331.6617647058415" y="1329.6117647058416"/>
      <point x="1301.9297385620616" y="1241.8117647058416"/>
      <point x="1289.0977124182816" y="1205.4117647058415" type="qcurve" smooth="yes"/>
      <point x="809.0653594771134" y="0.0" type="line"/>
      <point x="746.643137254845" y="0.0" type="line"/>
      <point x="264.04346405223333" y="1204.0284313725083" type="line" smooth="yes"/>
      <point x="251.21143790845335" y="1240.4284313725084"/>
      <point x="222.34673202611668" y="1328.2284313725083"/>
      <point x="216.46405228756" y="1363.5617647058416" type="qcurve"/>
      <point x="208.46405228756" y="1363.5617647058416" type="line"/>
      <point x="207.99803921567002" y="1328.2284313725083"/>
      <point x="217.74607843134" y="1240.4284313725084"/>
      <point x="217.74607843134" y="1204.0284313725083" type="qcurve" smooth="yes"/>
      <point x="217.74607843134" y="0.0" type="line"/>
    </contour>
  </outline>
</glyph>
<glyph name="N" format="2">
  <advance width="1213"/>
  <unicode hex="004E"/>
  <outline>
    <contour>
      <point x="170.0" y="0.0" type="line"/>
      <point x="170.0" y="1456.0" type="line"/>
      <point x="259.89215686268" y="1456.0" type="line"/>
      <point x="934.9565359477666" y="150.21143790845338" type="line" smooth="yes"/>
      <point x="945.5552287582133" y="124.16143790845337"/>
      <point x="982.0199346405501" y="38.24477124178668"/>
      <point x="994.1019607843301" y="5.660784313676686" type="qcurve"/>
      <point x="1002.1019607843301" y="5.660784313676686" type="line"/>
      <point x="997.0699346405502" y="40.99411764701"/>
      <point x="995.2379084967702" y="105.51143790845333"/>
      <point x="995.2379084967702" y="137.6447712417867" type="qcurve" smooth="yes"/>
      <point x="995.2379084967702" y="1456.0" type="line"/>
      <point x="1043.5633464052232" y="1456.0" type="line"/>
      <point x="1043.5633464052232" y="0.0" type="line"/>
      <point x="952.4918300652918" y="0.0" type="line"/>
      <point x="269.84281045745666" y="1317.2065359477667" type="line" smooth="yes"/>
      <point x="256.04411764701" y="1348.5898692811"/>
      <point x="211.99803921567002" y="1425.3065359477666"/>
      <point x="211.94803921567" y="1452.67385620921" type="qcurve"/>
      <point x="201.54869281044665" y="1452.67385620921" type="line"/>
      <point x="209.34738562089336" y="1415.6405228758767"/>
      <point x="215.0127450980067" y="1331.4732026144334"/>
      <point x="215.0127450980067" y="1297.2065359477667" type="qcurve" smooth="yes"/>
      <point x="215.0127450980067" y="0.0" type="line"/>
    </contour>
  </outline>
</glyph>
<glyph name="O" format="2">
  <advance width="1210"/>
  <unicode hex="004F"/>
  <outline>
    <contour>
      <point x="115.0" y="702.8801960784883" type="qcurve" smooth="yes"/>
      <point x="115.0" y="753.1198039215117" type="line" smooth="yes"/>
      <point x="115.0" y="1134.4374248365632"/>
      <point x="384.0002941176633" y="1486.0"/>
      <point x="605.1888039215117" y="1486.0" type="qcurve" smooth="yes"/>
      <point x="825.2066339869416" y="1486.0"/>
      <point x="1094.310941176495" y="1134.4374248365632"/>
      <point x="1094.310941176495" y="753.1198039215117" type="qcurve" smooth="yes"/>
      <point x="1094.310941176495" y="702.8801960784883" type="line" smooth="yes"/>
      <point x="1094.310941176495" y="321.5277586839333"/>
      <point x="825.2066339869416" y="-30.0"/>
      <point x="605.1888039215117" y="-30.0" type="qcurve" smooth="yes"/>
      <point x="384.9496405228867" y="-30.0"/>
      <point x="115.0" y="321.5277586839333"/>
    </contour>
    <contour>
      <point x="166.60379738556665" y="670.8801960784883" type="line" smooth="yes"/>
      <point x="166.60379738556665" y="334.2180368303633"/>
      <point x="403.6778090160617" y="26.177398692783328"/>
      <point x="605.1888039215117" y="26.177398692783328" type="qcurve" smooth="yes"/>
      <point x="806.4578469892834" y="26.177398692783328"/>
      <point x="1041.6404771241232" y="334.2180368303633"/>
      <point x="1041.6404771241232" y="670.8801960784883" type="qcurve" smooth="yes"/>
      <point x="1041.6404771241232" y="786.1864705881783" type="line" smooth="yes"/>
      <point x="1041.6404771241232" y="1122.8453986927832"/>
      <point x="806.4578469892834" y="1429.8226013072167"/>
      <point x="605.1888039215117" y="1429.8226013072167" type="qcurve" smooth="yes"/>
      <point x="403.6778090160617" y="1429.8226013072167"/>
      <point x="166.60379738556665" y="1122.8453986927832"/>
      <point x="166.60379738556665" y="786.1864705881783" type="qcurve" smooth="yes"/>
    </contour>
  </outline>
</glyph>
<glyph name="P" format="2">
  <advance width="984"/>
  <unicode hex="0050"/>
  <outline>
    <contour>
      <point x="170.0" y="0.0" type="line"/>
      <point x="170.0" y="1456.0" type="line"/>
      <point x="520.7695816993817" y="1456.0" type="line" smooth="yes"/>
      <point x="719.0493594771133" y="1456.0"/>
      <point x="906.0588562092099" y="1249.5807843136765"/>
      <point x="906.0588562092099" y="1034.85396078433" type="qcurve" smooth="yes"/>
      <point x="906.0588562092099" y="822.0258300652916"/>
      <point x="719.0493594771133" y="615.3692810457733"/>
      <point x="520.7695816993817" y="615.3692810457733" type="qcurve" smooth="yes"/>
      <point x="221.6941307189" y="615.3692810457733" type="line"/>
      <point x="221.6941307189" y="0.0" type="line"/>
    </contour>
    <contour>
      <point x="221.6941307189" y="671.3079999999999" type="line"/>
      <point x="520.7695816993817" y="671.3079999999999" type="line" smooth="yes"/>
      <point x="705.1727346952918" y="671.3079999999999"/>
      <point x="853.3410588235049" y="865.11385620921"/>
      <point x="853.3410588235049" y="1034.85396078433" type="qcurve" smooth="yes"/>
      <point x="853.3410588235049" y="1206.61007843134"/>
      <point x="705.1727346952918" y="1400.1786013072165"/>
      <point x="520.7695816993817" y="1400.1786013072165" type="qcurve" smooth="yes"/>
      <point x="221.6941307189" y="1400.1786013072165" type="line"/>
    </contour>
  </outline>
</glyph>
<glyph name="Q" format="2">
  <advance width="1210"/>
  <unicode hex="0051"/>
  <outline>
    <contour>
      <point x="115.0" y="702.8801960784883" type="qcurve" smooth="yes"/>
      <point x="115.0" y="753.1198039215117" type="line" smooth="yes"/>
      <point x="115.0" y="1134.4374248365632"/>
      <point x="384.0002941176633" y="1486.0"/>
      <point x="605.1888039215117" y="1486.0" type="qcurve" smooth="yes"/>
      <point x="825.2066339869416" y="1486.0"/>
      <point x="1094.310941176495" y="1134.4374248365632"/>
      <point x="1094.310941176495" y="753.1198039215117" type="qcurve" smooth="yes"/>
      <point x="1094.310941176495" y="702.8801960784883" type="line" smooth="yes"/>
      <point x="1094.310941176495" y="321.5625751634367"/>
      <point x="825.2066339869416" y="-30.0"/>
      <point x="605.1888039215117" y="-30.0" type="qcurve" smooth="yes"/>
      <point x="384.9496405228867" y="-30.0"/>
      <point x="115.0" y="321.5625751634367"/>
    </contour>
    <contour>
      <point x="166.60379738556665" y="660.2135294118217" type="line" smooth="yes"/>
      <point x="166.60379738556665" y="323.55460130721667"/>
      <point x="403.7156797385567" y="26.177398692783328"/>
      <point x="605.1888039215117" y="26.177398692783328" type="qcurve" smooth="yes"/>
      <point x="806.4405947712717" y="26.177398692783328"/>
      <point x="1041.6404771241232" y="323.55460130721667"/>
      <point x="1041.6404771241232" y="660.2135294118217" type="qcurve" smooth="yes"/>
      <point x="1041.6404771241232" y="795.7864705881783" type="line" smooth="yes"/>
      <point x="1041.6404771241232" y="1132.445398692783"/>
      <point x="806.4405947712717" y="1429.8226013072167"/>
      <point x="605.1888039215117" y="1429.8226013072167" type="qcurve" smooth="yes"/>
      <point x="403.7156797385567" y="1429.8226013072167"/>
      <point x="166.60379738556665" y="1132.445398692783"/>
      <point x="166.60379738556665" y="795.7864705881783" type="qcurve" smooth="yes"/>
    </contour>
    <contour>
      <point x="1105.5073202614435" y="-212.13869281044668" type="line"/>
      <point x="506.61805228756" y="280.78" type="line"/>
      <point x="550.175888888935" y="322.54073202611664" type="line"/>
      <point x="1149.2721699347082" y="-169.13194771244" type="line"/>
    </contour>
  </outline>
</glyph>
<glyph name="R" format="2">
  <advance width="995"/>
  <unicode hex="0052"/>
  <outline>
    <contour>
      <point x="170.0" y="0.0" type="line"/>
      <point x="170.0" y="1456.0" type="line"/>
      <point x="511.37756862749166" y="1456.0" type="line" smooth="yes"/>
      <point x="704.3986666666667" y="1456.0"/>
      <point x="891.6748300652916" y="1261.2754379084533"/>
      <point x="891.6748300652916" y="1049.7352941176634" type="qcurve" smooth="yes"/>
      <point x="891.6748300652916" y="838.1951503267351"/>
      <point x="704.3986666666667" y="644.0639346405501"/>
      <point x="511.37756862749166" y="644.0639346405501" type="qcurve" smooth="yes"/>
      <point x="221.6941307189" y="644.0639346405501" type="line"/>
      <point x="221.6941307189" y="0.0" type="line"/>
    </contour>
    <contour>
      <point x="221.6941307189" y="700.8333333333334" type="line"/>
      <point x="511.37756862749166" y="700.8333333333334" type="line" smooth="yes"/>
      <point x="693.7403770359249" y="700.8333333333334"/>
      <point x="838.957032679725" y="885.86784313732"/>
      <point x="838.957032679725" y="1049.7352941176634" type="qcurve" smooth="yes"/>
      <point x="838.957032679725" y="1214.6694117646732"/>
      <point x="693.7403770359249" y="1400.2972679738834"/>
      <point x="511.37756862749166" y="1400.2972679738834" type="qcurve" smooth="yes"/>
      <point x="221.6941307189" y="1400.2972679738834" type="line"/>
    </contour>
    <contour>
      <point x="882.7676470588317" y="0.0" type="line"/>
      <point x="514.6964052287283" y="672.0" type="line"/>
      <point x="578.6833071895533" y="672.0" type="line"/>
      <point x="953.5545751634368" y="0.0" type="line"/>
    </contour>
  </outline>
</glyph>
<glyph name="S" format="2">
  <advance width="980"/>
  <unicode hex="0053"/>
  <outline>
    <contour>
      <point x="90.0" y="379.8253594771133" type="qcurve" smooth="yes"/>
      <point x="90.0" y="402.49202614378" type="line"/>
      <point x="141.6941307189" y="402.49202614378" type="line"/>
      <point x="141.6941307189" y="379.8253594771133" type="line" smooth="yes"/>
      <point x="141.6941307189" y="213.29005228756"/>
      <point x="329.1327406480134" y="26.177398692783328"/>
      <point x="499.254993464055" y="26.177398692783328" type="qcurve" smooth="yes"/>
      <point x="669.51135998473" y="26.177398692783328"/>
      <point x="849.33584313732" y="215.40003921566998"/>
      <point x="849.33584313732" y="350.4026797385566" type="qcurve" smooth="yes"/>
      <point x="849.33584313732" y="474.2886666666667"/>
      <point x="733.689928104605" y="621.3599084967699"/>
      <point x="511.8381960784883" y="708.4212810457733" type="qcurve" smooth="yes"/>
      <point x="311.697901960825" y="788.1672941176633"/>
      <point x="117.12071895422666" y="969.4512810457734"/>
      <point x="117.12071895422666" y="1118.6479738562198" type="qcurve" smooth="yes"/>
      <point x="117.12071895422666" y="1296.1906535947767"/>
      <point x="315.47854901965667" y="1486.0"/>
      <point x="489.774980392165" y="1486.0" type="qcurve" smooth="yes"/>
      <point x="665.3164117646734" y="1486.0"/>
      <point x="872.0832549019933" y="1252.2838692811"/>
      <point x="872.0832549019933" y="1082.1746405228866" type="qcurve" smooth="yes"/>
      <point x="872.0832549019933" y="1059.50797385622" type="line"/>
      <point x="821.3384705881783" y="1059.50797385622" type="line"/>
      <point x="821.3384705881783" y="1082.1746405228866" type="line" smooth="yes"/>
      <point x="821.3384705881783" y="1228.95596078433"/>
      <point x="654.0546708443067" y="1429.8226013072167"/>
      <point x="489.774980392165" y="1429.8226013072167" type="qcurve" smooth="yes"/>
      <point x="320.3417431634366" y="1429.8226013072167"/>
      <point x="168.86218300659831" y="1258.05196078433"/>
      <point x="168.86218300659831" y="1135.4512418301033" type="qcurve" smooth="yes"/>
      <point x="168.86218300659831" y="1037.1486666666667"/>
      <point x="313.89953594776665" y="860.71606535945"/>
      <point x="526.609150326735" y="771.1053856208932" type="qcurve" smooth="yes"/>
      <point x="722.3694183006182" y="686.9453594771134"/>
      <point x="900.1279607843301" y="507.7267189542267"/>
      <point x="900.1279607843301" y="352.3013725490033" type="qcurve" smooth="yes"/>
      <point x="900.1279607843301" y="163.81802614378"/>
      <point x="684.05510457512" y="-30.0"/>
      <point x="499.254993464055" y="-30.0" type="qcurve" smooth="yes"/>
      <point x="313.4312156863233" y="-30.0"/>
      <point x="90.0" y="168.51267973855667"/>
    </contour>
  </outline>
</glyph>
<glyph name="T" format="2">
  <advance width="979"/>
  <unicode hex="0054"/>
  <outline>
    <contour>
      <point x="24.0" y="1400.1786013072165" type="line"/>
      <point x="24.0" y="1456.0" type="line"/>
      <point x="954.6147058823365" y="1456.0" type="line"/>
      <point x="954.6147058823365" y="1400.1786013072165" type="line"/>
      <point x="514.0877516339517" y="1400.1786013072165" type="line"/>
      <point x="514.0877516339517" y="0.0" type="line"/>
      <point x="464.4096339869417" y="0.0" type="line"/>
      <point x="464.4096339869417" y="1400.1786013072165" type="line"/>
    </contour>
  </outline>
</glyph>
<glyph name="U" format="2">
  <advance width="1128"/>
  <unicode hex="0055"/>
  <outline>
    <contour>
      <point x="155.0" y="509.547058823505" type="qcurve" smooth="yes"/>
      <point x="155.0" y="1456.0" type="line"/>
      <point x="204.67811764701" y="1456.0" type="line"/>
      <point x="204.67811764701" y="466.88039215683835" type="line" smooth="yes"/>
      <point x="204.67811764701" y="242.51434920628336"/>
      <point x="404.31774689196334" y="26.177398692783328"/>
      <point x="564.2336601307218" y="26.177398692783328" type="qcurve" smooth="yes"/>
      <point x="720.9375249504534" y="26.177398692783328"/>
      <point x="919.7571764706535" y="243.58101587295002"/>
      <point x="919.7571764706535" y="466.88039215683835" type="qcurve" smooth="yes"/>
      <point x="919.7571764706535" y="1456.0" type="line"/>
      <point x="971.4513071895533" y="1456.0" type="line"/>
      <point x="971.4513071895533" y="509.547058823505" type="line" smooth="yes"/>
      <point x="971.4513071895533" y="218.44019607848833"/>
      <point x="743.89206535945" y="-30.0"/>
      <point x="563.2843137254985" y="-30.0" type="qcurve" smooth="yes"/>
      <point x="383.62590849677" y="-30.0"/>
      <point x="155.0" y="218.44019607848833"/>
    </contour>
  </outline>
</glyph>
<glyph name="V" format="2">
  <advance width="1014"/>
  <unicode hex="0056"/>
  <outline>
    <contour>
      <point x="0.0" y="1456.0" type="line"/>
      <point x="54.340849673264984" y="1456.0" type="line"/>
      <point x="441.1274509803433" y="185.96274509800668" type="line" smooth="yes"/>
      <point x="455.6235294118217" y="140.26862745099666"/>
      <point x="496.6957516339516" y="19.408169934708326"/>
      <point x="508.94248366006826" y="-32.53464052288666" type="qcurve"/>
      <point x="514.543137254845" y="-32.53464052288666" type="line"/>
      <point x="525.7232026144334" y="19.408169934708326"/>
      <point x="563.96209150323" y="140.26862745099666"/>
      <point x="578.89215686268" y="185.96274509800668" type="qcurve" smooth="yes"/>
      <point x="965.5287581698965" y="1456.0" type="line"/>
      <point x="1013.2888888889349" y="1456.0" type="line"/>
      <point x="565.0666666666666" y="-10.0" type="line"/>
      <point x="446.83888888893506" y="-10.0" type="line"/>
    </contour>
  </outline>
</glyph>
<glyph name="W" format="2">
  <advance width="1667"/>
  <unicode hex="0057"/>
  <outline>
    <contour>
      <point x="412.6607843136767" y="-10.0" type="line"/>
      <point x="50.0" y="1456.0" type="line"/>
      <point x="105.30620915037832" y="1456.0" type="line"/>
      <point x="408.06209150323" y="167.093137254845" type="line" smooth="yes"/>
      <point x="415.94477124178667" y="130.95980392151168"/>
      <point x="431.172875817045" y="76.30620915037832"/>
      <point x="439.2055555556017" y="40.106209150378334" type="qcurve"/>
      <point x="442.4068627451551" y="40.106209150378334" type="line"/>
      <point x="449.17352941182173" y="76.30620915037832"/>
      <point x="462.06895424838507" y="130.95980392151168"/>
      <point x="470.0022875817184" y="167.093137254845" type="qcurve" smooth="yes"/>
      <point x="793.29803921567" y="1456.0" type="line"/>
      <point x="880.9264705881783" y="1456.0" type="line"/>
      <point x="1205.8401960784881" y="167.093137254845" type="line" smooth="yes"/>
      <point x="1214.722875817045" y="130.95980392151168"/>
      <point x="1228.4862745098283" y="76.30620915037832"/>
      <point x="1238.6522875817184" y="40.106209150378334" type="qcurve"/>
      <point x="1244.252941176495" y="40.106209150378334" type="line"/>
      <point x="1251.0196078431616" y="76.30620915037832"/>
      <point x="1261.633006535945" y="130.95980392151168"/>
      <point x="1268.449019607835" y="167.093137254845" type="qcurve" smooth="yes"/>
      <point x="1567.968954248385" y="1456.0" type="line"/>
      <point x="1617.161111111065" y="1456.0" type="line"/>
      <point x="1255.566993464055" y="-10.0" type="line"/>
      <point x="1188.83202614378" y="-10.0" type="line"/>
      <point x="854.8215686274917" y="1302.3336601307217" type="line" smooth="yes"/>
      <point x="845.938888888935" y="1338.466993464055"/>
      <point x="833.3267973855667" y="1403.4473856208933"/>
      <point x="830.6594771241233" y="1424.7473856208933" type="qcurve"/>
      <point x="822.6594771241233" y="1424.7473856208933" type="line"/>
      <point x="819.9921568626801" y="1403.4473856208933"/>
      <point x="808.4467320261167" y="1338.466993464055"/>
      <point x="800.5133986927833" y="1302.3336601307217" type="qcurve" smooth="yes"/>
      <point x="477.26241830061826" y="-10.0" type="line"/>
    </contour>
  </outline>
</glyph>
<glyph name="X" format="2">
  <advance width="1129"/>
  <unicode hex="0058"/>
  <outline>
    <contour>
      <point x="25.0" y="0.0" type="line"/>
      <point x="546.2018039215117" y="763.418" type="line"/>
      <point x="556.5332418301034" y="763.418" type="line"/>
      <point x="1014.7820915032299" y="1456.0" type="line"/>
      <point x="1077.377045751615" y="1456.0" type="line"/>
      <point x="582.4336274509966" y="712.582" type="line"/>
      <point x="574.2355228758767" y="712.582" type="line"/>
      <point x="86.64560784316166" y="0.0" type="line"/>
    </contour>
    <contour>
      <point x="51.301385620893335" y="1456.0" type="line"/>
      <point x="123.992084967285" y="1456.0" type="line"/>
      <point x="582.28393464055" y="763.418" type="line"/>
      <point x="584.5239607843299" y="763.418" type="line"/>
      <point x="1102.7290849672852" y="0.0" type="line"/>
      <point x="1028.9717189542266" y="0.0" type="line"/>
      <point x="546.4688169934018" y="712.582" type="line"/>
      <point x="545.178137254845" y="712.582" type="line"/>
    </contour>
  </outline>
</glyph>
<glyph name="Y" format="2">
  <advance width="1017"/>
  <unicode hex="0059"/>
  <outline>
    <contour>
      <point x="482.27767320261165" y="0.0" type="line"/>
      <point x="482.27767320261165" y="595.9626274509967" type="line"/>
      <point x="15.0" y="1456.0" type="line"/>
      <point x="77.55294117649501" y="1456.0" type="line"/>
      <point x="433.56960784316175" y="782.51797385622" type="line" smooth="yes"/>
      <point x="449.21764705883174" y="752.51797385622"/>
      <point x="485.7477124182816" y="658.9245098039867"/>
      <point x="504.49640522872824" y="621.7264705881782" type="qcurve"/>
      <point x="516.3457516339516" y="621.7264705881782" type="line"/>
      <point x="534.6604575162883" y="658.9245098039867"/>
      <point x="567.0405228758766" y="752.51797385622"/>
      <point x="583.1225490196566" y="782.51797385622" type="qcurve" smooth="yes"/>
      <point x="943.41790849677" y="1456.0" type="line"/>
      <point x="1001.2494771241234" y="1456.0" type="line"/>
      <point x="533.0224575162883" y="595.9626274509967" type="line"/>
      <point x="533.0224575162883" y="0.0" type="line"/>
    </contour>
  </outline>
</glyph>
<glyph name="Z" format="2">
  <advance width="911"/>
  <unicode hex="005A"/>
  <outline>
    <contour>
      <point x="-33.58104575161501" y="0.0" type="line"/>
      <point x="-33.58104575161501" y="36.87205228756001" type="line"/>
      <point x="832.6377516339517" y="1400.1786013072165" type="line"/>
      <point x="-19.01835294116833" y="1400.1786013072165" type="line"/>
      <point x="-19.01835294116833" y="1456.0" type="line"/>
      <point x="909.8097973855665" y="1456.0" type="line"/>
      <point x="909.8097973855665" y="1419.1279477124401" type="line"/>
      <point x="43.59100000000001" y="55.82139869278335" type="line"/>
      <point x="947.377849673265" y="55.82139869278335" type="line"/>
      <point x="947.377849673265" y="0.0" type="line"/>
    </contour>
  </outline>
</glyph>
<glyph name="bracketleft" format="2">
  <advance width="399"/>
  <unicode hex="005B"/>
  <outline>
    <contour>
      <point x="144.0" y="-310.0" type="line"/>
      <point x="144.0" y="1456.0" type="line"/>
      <point x="506.23356862749165" y="1456.0" type="line"/>
      <point x="506.23356862749165" y="1401.0092810457732" type="line"/>
      <point x="195.93411764700997" y="1401.0092810457732" type="line"/>
      <point x="195.93411764700997" y="-255.00928104577332" type="line"/>
      <point x="506.23356862749165" y="-255.00928104577332" type="line"/>
      <point x="506.23356862749165" y="-310.0" type="line"/>
    </contour>
  </outline>
</glyph>
<glyph name="backslash" format="2">
  <advance width="491"/>
  <unicode hex="005C"/>
  <outline>
    <contour>
      <point x="-119.72679738556667" y="1456.0" type="line"/>
      <point x="-28.12908496728501" y="1456.0" type="line"/>
      <point x="611.6088235293466" y="-125.0" type="line"/>
      <point x="518.7450980391749" y="-125.0" type="line"/>
    </contour>
  </outline>
</glyph>
<glyph name="bracketright" format="2">
  <advance width="399"/>
  <unicode hex="005D"/>
  <outline>
    <contour>
      <point x="253.91614379079004" y="-310.0" type="line"/>
      <point x="-109.26677124178667" y="-310.0" type="line"/>
      <point x="-109.26677124178667" y="-255.00928104577332" type="line"/>
      <point x="201.03267973855668" y="-255.00928104577332" type="line"/>
      <point x="201.03267973855668" y="1401.0092810457732" type="line"/>
      <point x="-109.26677124178667" y="1401.0092810457732" type="line"/>
      <point x="-109.26677124178667" y="1456.0" type="line"/>
      <point x="253.91614379079004" y="1456.0" type="line"/>
    </contour>
  </outline>
</glyph>
<glyph name="asciicircum" format="2">
  <advance width="1085"/>
  <unicode hex="005E"/>
  <outline>
    <contour>
      <point x="25.0" y="720.0" type="line"/>
      <point x="522.7742483660484" y="1456.0" type="line"/>
      <point x="562.5564052287283" y="1456.0" type="line"/>
      <point x="1060.3306535947768" y="720.0" type="line"/>
      <point x="990.5484967319584" y="720.0" type="line"/>
      <point x="542.6653267973884" y="1388.7148235293469" type="line"/>
      <point x="94.78215686267998" y="720.0" type="line"/>
    </contour>
  </outline>
</glyph>
<glyph name="underscore" format="2">
  <advance width="722"/>
  <unicode hex="005F"/>
  <outline>
    <contour>
      <point x="0.0" y="204.72124183010328" type="line"/>
      <point x="0.0" y="245.50588235298994" type="line"/>
      <point x="721.6395424837117" y="245.50588235298994" type="line"/>
      <point x="721.6395424837117" y="204.72124183010328" type="line"/>
    </contour>
  </outline>
</glyph>
<glyph name="grave" format="2">
  <advance width="1019"/>
  <unicode hex="0060"/>
  <outline>
    <contour>
      <point x="656.85" y="1204.0" type="line"/>
      <point x="359.23333333333335" y="1480.3833333333334" type="line"/>
      <point x="416.78333333333336" y="1520.3666666666666" type="line"/>
      <point x="673.3166666666667" y="1215.2166666666667" type="line"/>
    </contour>
  </outline>
</glyph>
<glyph name="a" format="2">
  <advance width="941"/>
  <unicode hex="0061"/>
  <outline>
    <contour>
      <point x="90.0" y="280.2" type="qcurve" smooth="yes"/>
      <point x="90.0" y="440.75947712412335"/>
      <point x="283.5506535947767" y="600.73202614378"/>
      <point x="455.4411764706533" y="600.73202614378" type="qcurve" smooth="yes"/>
      <point x="740.4415032680417" y="600.73202614378" type="line"/>
      <point x="740.4415032680417" y="720.0" type="line" smooth="yes"/>
      <point x="740.4415032680417" y="858.11797385622"/>
      <point x="622.4457516339515" y="1027.1526143791066"/>
      <point x="477.42189542488" y="1027.1526143791066" type="qcurve" smooth="yes"/>
      <point x="333.7813725490033" y="1027.1526143791066"/>
      <point x="208.886928104605" y="882.07810457512"/>
      <point x="208.886928104605" y="769.0506535947767" type="qcurve" smooth="yes"/>
      <point x="208.886928104605" y="764.0506535947767" type="line"/>
      <point x="162.20947712412334" y="764.0506535947767" type="line"/>
      <point x="162.20947712412334" y="769.0506535947767" type="line" smooth="yes"/>
      <point x="162.20947712412334" y="918.3607843136766"/>
      <point x="327.27941176467334" y="1082.0"/>
      <point x="483.68790849677" y="1082.0" type="qcurve" smooth="yes"/>
      <point x="630.0964052287283" y="1082.0"/>
      <point x="791.8349673202752" y="910.6666666666666"/>
      <point x="791.8349673202752" y="720.0" type="qcurve" smooth="yes"/>
      <point x="791.8349673202752" y="240.0" type="line" smooth="yes"/>
      <point x="791.8349673202752" y="175.0"/>
      <point x="813.933006535945" y="60.0"/>
      <point x="834.0310457516149" y="16.0" type="qcurve"/>
      <point x="834.0310457516149" y="0.0" type="line"/>
      <point x="789.4696078431617" y="0.0" type="line"/>
      <point x="772.6209150327151" y="27.016666666666666"/>
      <point x="748.0741830065984" y="115.08333333333333"/>
      <point x="742.6241830065984" y="158.8" type="qcurve"/>
      <point x="705.1794117646733" y="97.23464052288666"/>
      <point x="516.9627450980067" y="-20.0"/>
      <point x="383.83758169938164" y="-20.0" type="qcurve" smooth="yes"/>
      <point x="249.02254901965665" y="-20.0"/>
      <point x="90.0" y="109.40653594776666"/>
    </contour>
    <contour>
      <point x="140.44411764701002" y="269.85" type="qcurve" smooth="yes"/>
      <point x="140.44411764701002" y="136.80522875821333"/>
      <point x="269.4212418301033" y="34.847385620893334"/>
      <point x="397.13104575161503" y="34.847385620893334" type="qcurve" smooth="yes"/>
      <point x="526.89215686268" y="34.847385620893334"/>
      <point x="740.4415032680417" y="186.66470588233668"/>
      <point x="740.4415032680417" y="312.24803921567" type="qcurve"/>
      <point x="740.4415032680417" y="546.66797385622" type="line"/>
      <point x="477.42189542488" y="546.66797385622" type="line" smooth="yes"/>
      <point x="313.6993464052233" y="546.66797385622"/>
      <point x="140.44411764701002" y="417.39411764701003"/>
    </contour>
  </outline>
</glyph>
<glyph name="b" format="2">
  <advance width="1002"/>
  <unicode hex="0062"/>
  <outline>
    <contour>
      <point x="148.0" y="0.0" type="line"/>
      <point x="148.0" y="1536.0" type="line"/>
      <point x="198.88678431367666" y="1536.0" type="line"/>
      <point x="198.88678431367666" y="923.1198039215117" type="line"/>
      <point x="256.06282792661665" y="988.3124803050849"/>
      <point x="428.59927311923997" y="1072.0"/>
      <point x="546.40198692811" y="1072.0" type="qcurve" smooth="yes"/>
      <point x="723.2158300652917" y="1072.0"/>
      <point x="915.5744444443983" y="772.0"/>
      <point x="915.5744444443983" y="542.0" type="qcurve" smooth="yes"/>
      <point x="915.5744444443983" y="510.0" type="line" smooth="yes"/>
      <point x="915.5744444443983" y="280.0"/>
      <point x="723.2158300652917" y="-20.0"/>
      <point x="546.40198692811" y="-20.0" type="qcurve" smooth="yes"/>
      <point x="428.660705699135" y="-20.0"/>
      <point x="243.03969523890004" y="75.74274356136833"/>
      <point x="193.71610457512" y="141.88019607848835" type="qcurve"/>
      <point x="197.89881045745665" y="141.88019607848835" type="line"/>
      <point x="197.54146405223332" y="0.0" type="line"/>
    </contour>
    <contour>
      <point x="198.88678431367666" y="217.96026143793836" type="line"/>
      <point x="237.07995456612497" y="144.78237409409667"/>
      <point x="402.87257697006663" y="37.48141176467334"/>
      <point x="521.31985620921" y="37.48141176467334" type="qcurve" smooth="yes"/>
      <point x="699.5345218141083" y="37.48141176467334"/>
      <point x="863.8329803921649" y="267.8232287582133"/>
      <point x="863.8329803921649" y="478.0" type="qcurve" smooth="yes"/>
      <point x="863.8329803921649" y="574.0" type="line" smooth="yes"/>
      <point x="863.8329803921649" y="784.1767712417867"/>
      <point x="699.5345218141083" y="1014.5185882353267"/>
      <point x="525.5865228758767" y="1014.5185882353267" type="qcurve" smooth="yes"/>
      <point x="410.3392436367333" y="1014.5185882353267"/>
      <point x="232.7931966990934" y="898.6505028263067"/>
      <point x="198.88678431367666" y="834.0397385620616" type="qcurve"/>
    </contour>
  </outline>
</glyph>
<glyph name="c" format="2">
  <advance width="784"/>
  <unicode hex="0063"/>
  <outline>
    <contour>
      <point x="85.0" y="510.0" type="qcurve" smooth="yes"/>
      <point x="85.0" y="542.0" type="line" smooth="yes"/>
      <point x="85.0" y="801.3333333333334"/>
      <point x="300.26601307189003" y="1082.0"/>
      <point x="486.36993464055" y="1082.0" type="qcurve" smooth="yes"/>
      <point x="659.8584967319582" y="1082.0"/>
      <point x="829.5303921568383" y="868.8673202614433"/>
      <point x="829.5303921568383" y="713.1013071895534" type="qcurve" smooth="yes"/>
      <point x="829.5303921568383" y="708.1013071895534" type="line"/>
      <point x="782.3196078431617" y="708.1013071895534" type="line"/>
      <point x="782.3196078431617" y="713.1013071895534" type="line" smooth="yes"/>
      <point x="782.3196078431617" y="846.1287581698966"/>
      <point x="648.8604575162883" y="1023.9032679738833"/>
      <point x="485.30326797388335" y="1023.9032679738833" type="qcurve" smooth="yes"/>
      <point x="309.93267973855666" y="1023.9032679738833"/>
      <point x="135.29411764701" y="786.8447712417867"/>
      <point x="135.29411764701" y="574.0" type="qcurve" smooth="yes"/>
      <point x="135.29411764701" y="478.0" type="line" smooth="yes"/>
      <point x="135.29411764701" y="263.77189542488"/>
      <point x="309.81601307189" y="27.030065359450006"/>
      <point x="475.7032679738833" y="27.030065359450006" type="qcurve" smooth="yes"/>
      <point x="641.3937908496216" y="27.030065359450006"/>
      <point x="782.3196078431617" y="205.87124183010332"/>
      <point x="782.3196078431617" y="338.8986928104467" type="qcurve" smooth="yes"/>
      <point x="782.3196078431617" y="343.8986928104467" type="line"/>
      <point x="829.5303921568383" y="343.8986928104467" type="line"/>
      <point x="829.5303921568383" y="338.8986928104467" type="line" smooth="yes"/>
      <point x="829.5303921568383" y="183.13267973855667"/>
      <point x="659.8584967319582" y="-30.0"/>
      <point x="477.83660130721665" y="-30.0" type="qcurve" smooth="yes"/>
      <point x="300.26601307189003" y="-30.0"/>
      <point x="85.0" y="250.66666666666666"/>
    </contour>
  </outline>
</glyph>
<glyph name="d" format="2">
  <advance width="1002"/>
  <unicode hex="0064"/>
  <outline>
    <contour>
      <point x="85.0" y="510.0" type="qcurve" smooth="yes"/>
      <point x="85.0" y="542.0" type="line" smooth="yes"/>
      <point x="85.0" y="772.0"/>
      <point x="277.3586143791067" y="1072.0"/>
      <point x="454.1724575162883" y="1072.0" type="qcurve" smooth="yes"/>
      <point x="572.9778888889349" y="1072.0"/>
      <point x="745.53514379079" y="988.4118823529899"/>
      <point x="801.6876601307217" y="923.1198039215117" type="qcurve"/>
      <point x="801.6876601307217" y="1536.0" type="line"/>
      <point x="853.5237908496216" y="1536.0" type="line"/>
      <point x="853.5237908496216" y="0.0" type="line"/>
      <point x="803.9823267973883" y="0.0" type="line"/>
      <point x="802.6756339869416" y="141.88019607848835" type="line"/>
      <point x="805.908993464055" y="141.88019607848835" type="line"/>
      <point x="757.4738366013751" y="75.74278431367667"/>
      <point x="572.7565555556016" y="-20.0"/>
      <point x="454.1724575162883" y="-20.0" type="qcurve" smooth="yes"/>
      <point x="277.3586143791067" y="-20.0"/>
      <point x="85.0" y="280.0"/>
    </contour>
    <contour>
      <point x="135.79211764701" y="478.0" type="line" smooth="yes"/>
      <point x="135.79211764701" y="267.8232287582133"/>
      <point x="302.0353333333333" y="37.48141176467334"/>
      <point x="478.30524183010334" y="37.48141176467334" type="qcurve" smooth="yes"/>
      <point x="597.7696470588318" y="37.48141176467334"/>
      <point x="764.3382091503782" y="145.912849673265"/>
      <point x="801.6876601307217" y="217.96026143793836" type="qcurve"/>
      <point x="801.6876601307217" y="834.0397385620616" type="line"/>
      <point x="764.5595424837118" y="906.087150326735"/>
      <point x="597.7696470588318" y="1014.5185882353267"/>
      <point x="478.30524183010334" y="1014.5185882353267" type="qcurve" smooth="yes"/>
      <point x="302.0353333333333" y="1014.5185882353267"/>
      <point x="135.79211764701" y="784.1767712417867"/>
      <point x="135.79211764701" y="574.0" type="qcurve" smooth="yes"/>
    </contour>
  </outline>
</glyph>
<glyph name="e" format="2">
  <advance width="894"/>
  <unicode hex="0065"/>
  <outline>
    <contour>
      <point x="85.0" y="510.0" type="qcurve" smooth="yes"/>
      <point x="85.0" y="542.0" type="line" smooth="yes"/>
      <point x="85.0" y="801.3333333333334"/>
      <point x="299.4993464052233" y="1082.0"/>
      <point x="475.53790849677" y="1082.0" type="qcurve" smooth="yes"/>
      <point x="647.4264705881783" y="1082.0"/>
      <point x="832.8797385620616" y="837.9333333333334"/>
      <point x="832.8797385620616" y="560.0" type="qcurve" smooth="yes"/>
      <point x="832.8797385620616" y="530.3186274509967" type="line"/>
      <point x="89.36732026144334" y="530.3186274509967" type="line"/>
      <point x="89.36732026144334" y="584.73202614378" type="line"/>
      <point x="780.3689542483851" y="584.73202614378" type="line"/>
      <point x="780.3689542483851" y="564.249019607835" type="line" smooth="yes"/>
      <point x="780.3689542483851" y="807.5846405228866"/>
      <point x="644.7186274509967" y="1024.0205882353266"/>
      <point x="456.3431372548449" y="1024.0205882353266" type="qcurve" smooth="yes"/>
      <point x="305.3333333333333" y="1024.0205882353266"/>
      <point x="130.19542483656335" y="810.9447712417866"/>
      <point x="130.19542483656335" y="574.0" type="qcurve" smooth="yes"/>
      <point x="130.19542483656335" y="478.0" type="line" smooth="yes"/>
      <point x="130.19542483656335" y="250.97189542488"/>
      <point x="302.8653594771133" y="27.979411764673344"/>
      <point x="496.7346405228867" y="27.979411764673344" type="qcurve" smooth="yes"/>
      <point x="601.3843137254984" y="27.979411764673344"/>
      <point x="730.29215686268" y="101.27810457512001"/>
      <point x="781.4689542483851" y="166.69411764701002" type="qcurve"/>
      <point x="836.3323529411682" y="135.55" type="line"/>
      <point x="786.4042483660485" y="54.11666666666667"/>
      <point x="621.6656862745016" y="-30.0"/>
      <point x="507.40130718955334" y="-30.0" type="qcurve" smooth="yes"/>
      <point x="303.64934640522335" y="-30.0"/>
      <point x="85.0" y="250.66666666666666"/>
    </contour>
  </outline>
</glyph>
<glyph name="f" format="2">
  <advance width="530"/>
  <unicode hex="0066"/>
  <outline>
    <contour>
      <point x="226.32862745099663" y="0.0" type="line"/>
      <point x="226.32862745099663" y="1168.3623529411684" type="line" smooth="yes"/>
      <point x="226.32862745099663" y="1357.1323544099434"/>
      <point x="371.0552815620967" y="1556.0"/>
      <point x="496.98002614378004" y="1556.0" type="qcurve" smooth="yes"/>
      <point x="525.88809150323" y="1556.0"/>
      <point x="589.600915032715" y="1546.1186666666667"/>
      <point x="615.306980392165" y="1540.0" type="qcurve"/>
      <point x="604.5389673202751" y="1489.2392810457734" type="line"/>
      <point x="585.5535816993815" y="1495.2466143791066"/>
      <point x="525.3307973855666" y="1505.0092810457732"/>
      <point x="495.5707320261166" y="1505.0092810457732" type="qcurve" smooth="yes"/>
      <point x="391.3033960784884" y="1505.0092810457732"/>
      <point x="276.26606535944995" y="1336.1524836600684"/>
      <point x="276.26606535944995" y="1168.3623529411684" type="qcurve" smooth="yes"/>
      <point x="276.26606535944995" y="1029.8613071895534" type="line"/>
      <point x="276.26606535944995" y="1019.1493071895534" type="line"/>
      <point x="276.26606535944995" y="0.0" type="line"/>
    </contour>
    <contour>
      <point x="25.0" y="995.1119215686601" type="line"/>
      <point x="25.0" y="1052.0" type="line"/>
      <point x="242.63793464055" y="1052.0" type="line"/>
      <point x="257.17273202611665" y="1052.0" type="line"/>
      <point x="540.2028235293467" y="1052.0" type="line"/>
      <point x="540.2028235293467" y="995.1119215686601" type="line"/>
    </contour>
  </outline>
</glyph>
<glyph name="g" format="2">
  <advance width="1002"/>
  <unicode hex="0067"/>
  <outline>
    <contour>
      <point x="127.16413071890001" y="-333.1666666666667" type="qcurve"/>
      <point x="138.64202614378" y="-282.99928104577333" type="line"/>
      <point x="187.267862745155" y="-326.53130718955333"/>
      <point x="361.12849019601333" y="-380.8906143791067"/>
      <point x="458.2785490196566" y="-380.8906143791067" type="qcurve" smooth="yes"/>
      <point x="616.8640242244066" y="-380.8906143791067"/>
      <point x="801.6876601307217" y="-168.1912810457733"/>
      <point x="801.6876601307217" y="23.79738562089333" type="qcurve" smooth="yes"/>
      <point x="801.6876601307217" y="128.88019607848835" type="line"/>
      <point x="745.53514379079" y="63.58811764701"/>
      <point x="572.9778888889349" y="-20.0"/>
      <point x="440.30579084962164" y="-20.0" type="qcurve" smooth="yes"/>
      <point x="266.69194771244" y="-20.0"/>
      <point x="85.0" y="269.3333333333333"/>
      <point x="85.0" y="510.0" type="qcurve" smooth="yes"/>
      <point x="85.0" y="542.0" type="line" smooth="yes"/>
      <point x="85.0" y="772.0"/>
      <point x="277.3586143791067" y="1072.0"/>
      <point x="454.1724575162883" y="1072.0" type="qcurve" smooth="yes"/>
      <point x="572.7565555556016" y="1072.0"/>
      <point x="757.4738366013751" y="976.2572156863233"/>
      <point x="805.908993464055" y="910.1198039215117" type="qcurve"/>
      <point x="802.6756339869416" y="910.1198039215117" type="line"/>
      <point x="803.9823267973883" y="1052.0" type="line"/>
      <point x="853.5237908496216" y="1052.0" type="line"/>
      <point x="853.5237908496216" y="23.79738562089333" type="line" smooth="yes"/>
      <point x="853.5237908496216" y="-198.10130718955332"/>
      <point x="636.7307647058417" y="-436.0"/>
      <point x="463.4998823529901" y="-436.0" type="qcurve" smooth="yes"/>
      <point x="358.7822091503783" y="-436.0"/>
      <point x="188.17698039216498" y="-380.3533333333333"/>
    </contour>
    <contour>
      <point x="135.79211764701" y="473.73333333333335" type="line" smooth="yes"/>
      <point x="135.79211764701" y="263.55656209154665"/>
      <point x="298.8353333333333" y="37.48141176467334"/>
      <point x="470.83857516343664" y="37.48141176467334" type="qcurve" smooth="yes"/>
      <point x="600.9696470588317" y="37.48141176467334"/>
      <point x="772.0262091503783" y="145.912849673265"/>
      <point x="801.6876601307217" y="217.96026143793836" type="qcurve"/>
      <point x="801.6876601307217" y="834.0397385620616" type="line"/>
      <point x="768.6048758170449" y="894.3538169934017"/>
      <point x="605.2363137254983" y="1014.5185882353267"/>
      <point x="485.77190849677" y="1014.5185882353267" type="qcurve" smooth="yes"/>
      <point x="302.0353333333333" y="1014.5185882353267"/>
      <point x="135.79211764701" y="779.91010457512"/>
      <point x="135.79211764701" y="569.7333333333333" type="qcurve" smooth="yes"/>
    </contour>
  </outline>
</glyph>
<glyph name="h" format="2">
  <advance width="964"/>
  <unicode hex="0068"/>
  <outline>
    <contour>
      <point x="148.0" y="0.0" type="line"/>
      <point x="148.0" y="1536.0" type="line"/>
      <point x="198.88678431367666" y="1536.0" type="line"/>
      <point x="198.88678431367666" y="868.700915032715" type="line"/>
      <point x="254.9154052287283" y="968.9912026144333"/>
      <point x="406.86849019601334" y="1072.0"/>
      <point x="531.9801764706533" y="1072.0" type="qcurve" smooth="yes"/>
      <point x="676.0150980391751" y="1072.0"/>
      <point x="825.5222483660484" y="909.9556732026117"/>
      <point x="825.5222483660484" y="746.7192810457733" type="qcurve" smooth="yes"/>
      <point x="825.5222483660484" y="0.0" type="line"/>
      <point x="773.68611764701" y="0.0" type="line"/>
      <point x="773.68611764701" y="748.7192810457733" type="line" smooth="yes"/>
      <point x="773.68611764701" y="882.058967320275"/>
      <point x="652.4723006536084" y="1016.2972679738834"/>
      <point x="530.9065098039866" y="1016.2972679738834" type="qcurve" smooth="yes"/>
      <point x="411.6848104574567" y="1016.2972679738834"/>
      <point x="244.07864705883162" y="880.9157124182817"/>
      <point x="198.88678431367666" y="791.5595424837118" type="qcurve"/>
      <point x="198.88678431367666" y="0.0" type="line"/>
    </contour>
  </outline>
</glyph>
<glyph name="i" format="2">
  <advance width="364"/>
  <unicode hex="0069"/>
  <outline>
    <contour>
      <point x="157.0" y="0.0" type="line"/>
      <point x="157.0" y="1052.0" type="line"/>
      <point x="207.88678431367666" y="1052.0" type="line"/>
      <point x="207.88678431367666" y="0.0" type="line"/>
    </contour>
    <contour>
      <point x="152.49738562089334" y="1408.7932941176634" type="qcurve" smooth="yes"/>
      <point x="152.49738562089334" y="1431.9452810457733"/>
      <point x="168.20938562089333" y="1464.0032679738836"/>
      <point x="181.96871895422666" y="1464.0032679738836" type="qcurve" smooth="yes"/>
      <point x="195.72805228756" y="1464.0032679738836"/>
      <point x="211.44005228755998" y="1431.9452810457733"/>
      <point x="211.44005228755998" y="1408.7932941176634" type="qcurve" smooth="yes"/>
      <point x="211.44005228755998" y="1384.6919607843301"/>
      <point x="195.72805228756" y="1353.5833202614433"/>
      <point x="182.91806535945" y="1353.5833202614433" type="qcurve" smooth="yes"/>
      <point x="169.15873202611667" y="1353.5833202614433"/>
      <point x="152.49738562089334" y="1384.6919607843301"/>
    </contour>
  </outline>
</glyph>
<glyph name="j" format="2">
  <advance width="364"/>
  <unicode hex="006A"/>
  <outline>
    <contour>
      <point x="-133.59281045745666" y="-415.53333333333336" type="qcurve"/>
      <point x="-133.59281045745666" y="-362.5192810457733" type="line"/>
      <point x="-114.69542483656333" y="-368.5192810457733"/>
      <point x="-53.721241830103324" y="-381.13594771244"/>
      <point x="-27.707843137319998" y="-381.13594771244" type="qcurve" smooth="yes"/>
      <point x="60.09705882350501" y="-381.13594771244"/>
      <point x="157.0" y="-261.96928104577336"/>
      <point x="157.0" y="-126.20261437910666" type="qcurve" smooth="yes"/>
      <point x="157.0" y="1052.0" type="line"/>
      <point x="207.44411764701002" y="1052.0" type="line"/>
      <point x="207.44411764701002" y="-90.0" type="line" smooth="yes"/>
      <point x="207.44411764701002" y="-270.0"/>
      <point x="84.46241830061835" y="-436.0"/>
      <point x="-33.95326797388333" y="-436.0" type="qcurve" smooth="yes"/>
      <point x="-64.08137254900333" y="-436.0"/>
      <point x="-115.86143790845334" y="-420.81732026144334"/>
    </contour>
    <contour>
      <point x="152.49738562089334" y="1409.4019607843302" type="qcurve" smooth="yes"/>
      <point x="152.49738562089334" y="1431.5026143791067"/>
      <point x="168.43071895422668" y="1464.0032679738836"/>
      <point x="181.74738562089334" y="1464.0032679738836" type="qcurve" smooth="yes"/>
      <point x="195.06405228756" y="1464.0032679738836"/>
      <point x="210.99738562089334" y="1431.5026143791067"/>
      <point x="210.99738562089334" y="1409.4019607843302" type="qcurve" smooth="yes"/>
      <point x="210.99738562089334" y="1384.9686274509968"/>
      <point x="195.06405228756" y="1353.4173202614434"/>
      <point x="182.69673202611665" y="1353.4173202614434" type="qcurve" smooth="yes"/>
      <point x="169.38006535945001" y="1353.4173202614434"/>
      <point x="152.49738562089334" y="1384.9686274509968"/>
    </contour>
  </outline>
</glyph>
<glyph name="k" format="2">
  <advance width="891"/>
  <unicode hex="006B"/>
  <outline>
    <contour>
      <point x="148.0" y="0.0" type="line"/>
      <point x="148.0" y="1536.0" type="line"/>
      <point x="198.88678431367666" y="1536.0" type="line"/>
      <point x="198.88678431367666" y="578.3666797385566" type="line"/>
      <point x="741.4575163399318" y="1052.0" type="line"/>
      <point x="853.4665163399318" y="1052.0" type="line"/>
      <point x="198.44411764701002" y="497.8473856208933" type="line"/>
      <point x="198.44411764701002" y="0.0" type="line"/>
    </contour>
    <contour>
      <point x="817.3145751634368" y="0.0" type="line"/>
      <point x="355.48870588233666" y="668.1968888889351" type="line"/>
      <point x="415.789993464055" y="716.4075163399317" type="line"/>
      <point x="906.4183006536083" y="0.0" type="line"/>
    </contour>
  </outline>
</glyph>
<glyph name="m" format="2">
  <advance width="1549"/>
  <unicode hex="006D"/>
  <outline>
    <contour>
      <point x="148.0" y="0.0" type="line"/>
      <point x="148.0" y="1052.0" type="line"/>
      <point x="197.54146405223332" y="1052.0" type="line"/>
      <point x="197.89881045745665" y="891.2396078431617" type="line"/>
      <point x="193.71610457512" y="891.2396078431617" type="line"/>
      <point x="256.947058823505" y="982.1458692811"/>
      <point x="419.5952875817183" y="1072.0"/>
      <point x="527.3056666666666" y="1072.0" type="qcurve" smooth="yes"/>
      <point x="627.1406078431617" y="1072.0"/>
      <point x="763.8843725490034" y="971.7005359477668"/>
      <point x="787.6927973855667" y="882.409071895395" type="qcurve"/>
      <point x="783.7314248365633" y="882.409071895395" type="line"/>
      <point x="835.6947828971449" y="967.453487225565"/>
      <point x="1019.6181917211918" y="1072.0"/>
      <point x="1132.55106535945" y="1072.0" type="qcurve" smooth="yes"/>
      <point x="1255.2836790624815" y="1072.0"/>
      <point x="1411.2083660130586" y="909.9556732026117"/>
      <point x="1411.2083660130586" y="798.98594771244" type="qcurve" smooth="yes"/>
      <point x="1411.2083660130586" y="0.0" type="line"/>
      <point x="1360.2042614379382" y="0.0" type="line"/>
      <point x="1360.2042614379382" y="767.9192810457733" type="line" smooth="yes"/>
      <point x="1357.6415686274916" y="899.1256339869417"/>
      <point x="1227.041098039175" y="1016.2972679738834"/>
      <point x="1110.4753071895534" y="1016.2972679738834" type="qcurve" smooth="yes"/>
      <point x="997.4536078431618" y="1016.2972679738834"/>
      <point x="845.1594444443983" y="902.2710326797251"/>
      <point x="805.5222483660484" y="834.2262091503784" type="qcurve"/>
      <point x="805.5222483660484" y="0.0" type="line"/>
      <point x="752.6194509803432" y="0.0" type="line"/>
      <point x="752.6194509803432" y="770.0526143791067" type="line" smooth="yes"/>
      <point x="751.00610457512" y="899.1256339869417"/>
      <point x="613.0562875817184" y="1016.2972679738834"/>
      <point x="508.1065098039867" y="1016.2972679738834" type="qcurve" smooth="yes"/>
      <point x="406.7008235293467" y="1016.2972679738834"/>
      <point x="242.7906470588317" y="902.2710326797251"/>
      <point x="198.88678431367666" y="834.2262091503784" type="qcurve"/>
      <point x="198.88678431367666" y="0.0" type="line"/>
    </contour>
  </outline>
</glyph>
<glyph name="n" format="2">
  <advance width="964"/>
  <unicode hex="006E"/>
  <outline>
    <contour>
      <point x="148.0" y="0.0" type="line"/>
      <point x="148.0" y="1052.0" type="line"/>
      <point x="197.54146405223332" y="1052.0" type="line"/>
      <point x="197.89881045745665" y="891.2396078431617" type="line"/>
      <point x="193.71610457512" y="891.2396078431617" type="line"/>
      <point x="255.85672549017164" y="983.0285490196566"/>
      <point x="426.628209015735" y="1072.0"/>
      <point x="537.3056666666666" y="1072.0" type="qcurve" smooth="yes"/>
      <point x="671.7484313725083" y="1072.0"/>
      <point x="825.5222483660484" y="909.9959412264184"/>
      <point x="825.5222483660484" y="718.98594771244" type="qcurve" smooth="yes"/>
      <point x="825.5222483660484" y="0.0" type="line"/>
      <point x="773.68611764701" y="0.0" type="line"/>
      <point x="773.68611764701" y="731.6526143791067" type="line" smooth="yes"/>
      <point x="773.68611764701" y="880.1623329717332"/>
      <point x="643.9442192977183" y="1016.2972679738834"/>
      <point x="511.7065098039867" y="1016.2972679738834" type="qcurve" smooth="yes"/>
      <point x="397.77934122031" y="1016.2972679738834"/>
      <point x="241.88170234760167" y="895.8921877830833"/>
      <point x="198.88678431367666" y="823.5595424837118" type="qcurve"/>
      <point x="198.88678431367666" y="0.0" type="line"/>
    </contour>
  </outline>
</glyph>
<glyph name="o" format="2">
  <advance width="995"/>
  <unicode hex="006F"/>
  <outline>
    <contour>
      <point x="85.0" y="510.0" type="qcurve" smooth="yes"/>
      <point x="85.0" y="542.0" type="line" smooth="yes"/>
      <point x="85.0" y="801.3333333333334"/>
      <point x="309.53737254900335" y="1082.0"/>
      <point x="497.5186274509967" y="1082.0" type="qcurve" smooth="yes"/>
      <point x="685.4998823529901" y="1082.0"/>
      <point x="911.10392156866" y="801.3333333333334"/>
      <point x="911.10392156866" y="542.0" type="qcurve" smooth="yes"/>
      <point x="911.10392156866" y="510.0" type="line" smooth="yes"/>
      <point x="911.10392156866" y="250.66666666666666"/>
      <point x="685.4998823529901" y="-30.0"/>
      <point x="497.5186274509967" y="-30.0" type="qcurve" smooth="yes"/>
      <point x="309.53737254900335" y="-30.0"/>
      <point x="85.0" y="250.66666666666666"/>
    </contour>
    <contour>
      <point x="135.79211764701" y="574.0" type="qcurve" smooth="yes"/>
      <point x="135.79211764701" y="478.0" type="line" smooth="yes"/>
      <point x="135.79211764701" y="265.7725751634366"/>
      <point x="320.45071895422666" y="27.48141176467334"/>
      <point x="497.5186274509967" y="27.48141176467334" type="qcurve" smooth="yes"/>
      <point x="674.5865359477667" y="27.48141176467334"/>
      <point x="860.3118039215117" y="265.7725751634366"/>
      <point x="860.3118039215117" y="478.0" type="qcurve" smooth="yes"/>
      <point x="860.3118039215117" y="574.0" type="line" smooth="yes"/>
      <point x="860.3118039215117" y="791.5607581698966"/>
      <point x="680.9865359477667" y="1024.5185882353267"/>
      <point x="497.5186274509967" y="1024.5185882353267" type="qcurve" smooth="yes"/>
      <point x="314.0507189542267" y="1024.5185882353267"/>
      <point x="135.79211764701" y="786.2274248365634"/>
    </contour>
  </outline>
</glyph>
<glyph name="p" format="2">
  <advance width="1002"/>
  <unicode hex="0070"/>
  <outline>
    <contour>
      <point x="148.0" y="-416.0" type="line"/>
      <point x="148.0" y="1052.0" type="line"/>
      <point x="197.54146405223332" y="1052.0" type="line"/>
      <point x="197.89881045745665" y="910.1198039215117" type="line"/>
      <point x="193.71610457512" y="910.1198039215117" type="line"/>
      <point x="244.049954248385" y="976.2572156863233"/>
      <point x="428.76723529415835" y="1072.0"/>
      <point x="546.40198692811" y="1072.0" type="qcurve" smooth="yes"/>
      <point x="723.2158300652917" y="1072.0"/>
      <point x="915.5744444443983" y="772.0"/>
      <point x="915.5744444443983" y="542.0" type="qcurve" smooth="yes"/>
      <point x="915.5744444443983" y="510.0" type="line" smooth="yes"/>
      <point x="915.5744444443983" y="280.0"/>
      <point x="723.2158300652917" y="-20.0"/>
      <point x="546.40198692811" y="-20.0" type="qcurve" smooth="yes"/>
      <point x="428.545901960825" y="-20.0"/>
      <point x="255.9886470588317" y="56.12145098034334"/>
      <point x="198.88678431367666" y="121.41352941182168" type="qcurve"/>
      <point x="198.88678431367666" y="-416.0" type="line"/>
    </contour>
    <contour>
      <point x="198.88678431367666" y="205.16026143793835" type="line"/>
      <point x="230.68156862749163" y="151.2461830065983"/>
      <point x="392.1381307189" y="37.48141176467334"/>
      <point x="521.31985620921" y="37.48141176467334" type="qcurve" smooth="yes"/>
      <point x="695.339111111065" y="37.48141176467334"/>
      <point x="863.8329803921649" y="267.8232287582133"/>
      <point x="863.8329803921649" y="478.0" type="qcurve" smooth="yes"/>
      <point x="863.8329803921649" y="574.0" type="line" smooth="yes"/>
      <point x="863.8329803921649" y="784.1767712417867"/>
      <point x="698.5391111110649" y="1014.5185882353267"/>
      <point x="526.6531895425434" y="1014.5185882353267" type="qcurve" smooth="yes"/>
      <point x="404.93813071889997" y="1014.5185882353267"/>
      <point x="235.05224836604836" y="907.1538169934016"/>
      <point x="198.88678431367666" y="844.7064052287283" type="qcurve"/>
    </contour>
  </outline>
</glyph>
<glyph name="q" format="2">
  <advance width="1002"/>
  <unicode hex="0071"/>
  <outline>
    <contour>
      <point x="85.0" y="510.0" type="qcurve" smooth="yes"/>
      <point x="85.0" y="542.0" type="line" smooth="yes"/>
      <point x="85.0" y="772.0"/>
      <point x="277.4692810457733" y="1072.0"/>
      <point x="454.3937908496216" y="1072.0" type="qcurve" smooth="yes"/>
      <point x="573.0055555556017" y="1072.0"/>
      <point x="757.224836601375" y="976.5892156863233"/>
      <point x="805.3003267973884" y="909.8431372548449" type="qcurve"/>
      <point x="803.1183006536085" y="909.8431372548449" type="line"/>
      <point x="803.6503267973884" y="1052.0" type="line"/>
      <point x="854.077124182955" y="1052.0" type="line"/>
      <point x="854.077124182955" y="-416.0" type="line"/>
      <point x="801.3003267973884" y="-416.0" type="line"/>
      <point x="801.3003267973884" y="129.156862745155" type="line"/>
      <point x="801.3003267973884" y="129.156862745155" type="line"/>
      <point x="745.0094771241234" y="63.47745098034334"/>
      <point x="573.0055555556017" y="-20.0"/>
      <point x="454.3937908496216" y="-20.0" type="qcurve" smooth="yes"/>
      <point x="277.4692810457733" y="-20.0"/>
      <point x="85.0" y="280.0"/>
    </contour>
    <contour>
      <point x="135.79211764701" y="478.0" type="line" smooth="yes"/>
      <point x="135.79211764701" y="267.8232287582133"/>
      <point x="302.0353333333333" y="37.48141176467334"/>
      <point x="478.30524183010334" y="37.48141176467334" type="qcurve" smooth="yes"/>
      <point x="597.7696470588318" y="37.48141176467334"/>
      <point x="764.5595424837118" y="145.912849673265"/>
      <point x="801.6876601307217" y="217.96026143793836" type="qcurve"/>
      <point x="801.6876601307217" y="844.7064052287283" type="line"/>
      <point x="768.6048758170449" y="907.1538169934016"/>
      <point x="610.5696470588317" y="1014.5185882353267"/>
      <point x="488.97190849676997" y="1014.5185882353267" type="qcurve" smooth="yes"/>
      <point x="312.702" y="1014.5185882353267"/>
      <point x="135.79211764701" y="795.91010457512"/>
      <point x="135.79211764701" y="574.0" type="qcurve" smooth="yes"/>
    </contour>
  </outline>
</glyph>
<glyph name="r" format="2">
  <advance width="623"/>
  <unicode hex="0072"/>
  <outline>
    <contour>
      <point x="148.0" y="0.0" type="line"/>
      <point x="148.0" y="1052.0" type="line"/>
      <point x="197.54146405223332" y="1052.0" type="line"/>
      <point x="197.89881045745665" y="910.4930718953949" type="line"/>
      <point x="193.71610457512" y="910.4930718953949" type="line"/>
      <point x="244.3243598580333" y="979.0636426795517"/>
      <point x="397.77031202211333" y="1082.0"/>
      <point x="503.2104836600684" y="1082.0" type="qcurve" smooth="yes"/>
      <point x="528.6452026144333" y="1082.0"/>
      <point x="581.4853202614433" y="1072.0"/>
      <point x="593.2026797385566" y="1068.0" type="qcurve"/>
      <point x="593.2026797385566" y="1013.3465882353267" type="line"/>
      <point x="569.9892941176633" y="1017.3465882353267"/>
      <point x="522.2025359477667" y="1025.1092549019934"/>
      <point x="493.7304705881784" y="1025.1092549019934" type="qcurve" smooth="yes"/>
      <point x="396.08729150323" y="1025.1092549019934"/>
      <point x="241.63707883741165" y="909.5370783701416"/>
      <point x="198.88678431367666" y="826.1303267973883" type="qcurve"/>
      <point x="198.88678431367666" y="0.0" type="line"/>
    </contour>
  </outline>
</glyph>
<glyph name="s" format="2">
  <advance width="837"/>
  <unicode hex="0073"/>
  <outline>
    <contour>
      <point x="80.0" y="311.8986928104467" type="line"/>
      <point x="130.44411764701002" y="311.8986928104467" type="line"/>
      <point x="130.44411764701002" y="305.9493464052233" type="line" smooth="yes"/>
      <point x="130.44411764701002" y="163.53137254900332"/>
      <point x="292.6326797385567" y="21.814052287560003"/>
      <point x="422.39379084962167" y="21.814052287560003" type="qcurve" smooth="yes"/>
      <point x="554.0535947712717" y="21.814052287560003"/>
      <point x="696.94607843134" y="141.78529411766334"/>
      <point x="696.94607843134" y="254.11601307189" type="qcurve" smooth="yes"/>
      <point x="696.94607843134" y="359.76666666666665"/>
      <point x="572.5823529411682" y="478.66862745099667"/>
      <point x="416.3277777777317" y="520.80196078433" type="qcurve" smooth="yes"/>
      <point x="260.07320261443334" y="562.9352941176634"/>
      <point x="134.736928104605" y="711.01797385622"/>
      <point x="134.736928104605" y="812.36797385622" type="qcurve" smooth="yes"/>
      <point x="134.736928104605" y="938.9673202614433"/>
      <point x="308.04411764701" y="1082.0"/>
      <point x="447.33660130721665" y="1082.0" type="qcurve" smooth="yes"/>
      <point x="593.3457516339516" y="1082.0"/>
      <point x="757.8669934640551" y="909.48790849677"/>
      <point x="757.8669934640551" y="747.05392156866" type="qcurve" smooth="yes"/>
      <point x="757.8669934640551" y="742.05392156866" type="line"/>
      <point x="707.0395424837118" y="742.05392156866" type="line"/>
      <point x="707.0395424837118" y="757.8405228758767" type="line" smooth="yes"/>
      <point x="707.0395424837118" y="896.6712418301033"/>
      <point x="569.1957516339515" y="1030.1859477124399"/>
      <point x="447.33660130721665" y="1030.1859477124399" type="qcurve" smooth="yes"/>
      <point x="326.54411764701" y="1030.1859477124399"/>
      <point x="187.96372549017167" y="930.6647058823366"/>
      <point x="187.96372549017167" y="827.58398692811" type="qcurve" smooth="yes"/>
      <point x="187.96372549017167" y="733.2"/>
      <point x="291.30261437910667" y="613.0486928104467"/>
      <point x="447.5571895425433" y="568.34803921567" type="qcurve" smooth="yes"/>
      <point x="603.8117647058416" y="522.69803921567"/>
      <point x="756.9209150327151" y="392.29869281044665"/>
      <point x="756.9209150327151" y="271.46535947711334" type="qcurve" smooth="yes"/>
      <point x="756.9209150327151" y="134.86601307189"/>
      <point x="590.3490196078349" y="-30.0"/>
      <point x="422.39379084962167" y="-30.0" type="qcurve" smooth="yes"/>
      <point x="247.92124183010333" y="-30.0"/>
      <point x="80.0" y="143.71601307189"/>
      <point x="80.0" y="305.9493464052233" type="qcurve" smooth="yes"/>
    </contour>
  </outline>
</glyph>
<glyph name="t" format="2">
  <advance width="587"/>
  <unicode hex="0074"/>
  <outline>
    <contour>
      <point x="0.0" y="995.1119215686601" type="line"/>
      <point x="0.0" y="1052.0" type="line"/>
      <point x="537.3575294118217" y="1052.0" type="line"/>
      <point x="537.3575294118217" y="995.1119215686601" type="line"/>
    </contour>
    <contour>
      <point x="215.76593464055" y="263.79738562089335" type="qcurve" smooth="yes"/>
      <point x="215.76593464055" y="1018.91197385622" type="line"/>
      <point x="215.76593464055" y="1030.0986405228866" type="line"/>
      <point x="215.36666666666667" y="1312.0" type="line"/>
      <point x="266.95" y="1312.0" type="line"/>
      <point x="266.6527189542267" y="256.33071895422665" type="line" smooth="yes"/>
      <point x="266.6527189542267" y="124.43138562089334"/>
      <point x="337.014875817045" y="24.990718954226665"/>
      <point x="413.6143790849483" y="24.990718954226665" type="qcurve" smooth="yes"/>
      <point x="440.0957908496217" y="24.990718954226665"/>
      <point x="485.09657516343674" y="31.909385620893346"/>
      <point x="508.58130718955334" y="39.776052287560006" type="qcurve"/>
      <point x="508.58130718955334" y="-9.406666666666666" type="line"/>
      <point x="490.515241428585" y="-17.534980529753334"/>
      <point x="436.1650338190017" y="-30.0"/>
      <point x="402.192993464055" y="-30.0" type="qcurve" smooth="yes"/>
      <point x="316.1222328860767" y="-30.0"/>
      <point x="215.76593464055" y="111.89869281044666"/>
    </contour>
  </outline>
</glyph>
<glyph name="u" format="2">
  <advance width="964"/>
  <unicode hex="0075"/>
  <outline>
    <contour>
      <point x="138.0" y="333.01405228756" type="qcurve" smooth="yes"/>
      <point x="138.0" y="1052.0" type="line"/>
      <point x="188.88678431367666" y="1052.0" type="line"/>
      <point x="188.88678431367666" y="331.01405228756" type="line" smooth="yes"/>
      <point x="188.88678431367666" y="173.14103267972501"/>
      <point x="317.44994771244" y="35.70273202611668"/>
      <point x="449.79972549017174" y="35.70273202611668" type="qcurve" smooth="yes"/>
      <point x="562.6214248365634" y="35.70273202611668"/>
      <point x="707.8275882353266" y="134.8176209150517"/>
      <point x="763.68611764701" y="217.77379084962172" type="qcurve"/>
      <point x="763.68611764701" y="1052.0" type="line"/>
      <point x="815.5222483660484" y="1052.0" type="line"/>
      <point x="815.5222483660484" y="0.0" type="line"/>
      <point x="765.9807843136766" y="0.0" type="line"/>
      <point x="765.7407581698967" y="139.42705882350498" type="line"/>
      <point x="767.7901307189001" y="139.42705882350498" type="line"/>
      <point x="708.7321895425433" y="61.504784313676666"/>
      <point x="545.4602941176634" y="-20.0"/>
      <point x="415.54991503271503" y="-20.0" type="qcurve" smooth="yes"/>
      <point x="292.84048366006834" y="-20.0"/>
      <point x="138.0" y="142.04432679738835"/>
    </contour>
  </outline>
</glyph>
<glyph name="v" format="2">
  <advance width="906"/>
  <unicode hex="0076"/>
  <outline>
    <contour>
      <point x="0.0" y="1052.0" type="line"/>
      <point x="78.202941176495" y="1052.0" type="line"/>
      <point x="402.702941176495" y="200.94738562089333" type="line" smooth="yes"/>
      <point x="418.68366013072165" y="160.94738562089333"/>
      <point x="438.4437908496217" y="107.73725490199334"/>
      <point x="449.20653594776667" y="50.18366013072168" type="qcurve"/>
      <point x="456.5898692811" y="50.18366013072168" type="line"/>
      <point x="467.23529411766333" y="107.73725490199334"/>
      <point x="488.06209150323" y="160.94738562089333"/>
      <point x="503.09346405223334" y="200.94738562089333" type="qcurve" smooth="yes"/>
      <point x="830.8915032680418" y="1052.0" type="line"/>
      <point x="905.7637254901716" y="1052.0" type="line"/>
      <point x="488.27432026144334" y="0.0" type="line"/>
      <point x="418.513071895395" y="0.0" type="line"/>
    </contour>
  </outline>
</glyph>
<glyph name="w" format="2">
  <advance width="1458"/>
  <unicode hex="0077"/>
  <outline>
    <contour>
      <point x="25.0" y="1052.0" type="line"/>
      <point x="93.27556862749167" y="1052.0" type="line"/>
      <point x="308.9601307189" y="244.33725490199333" type="line" smooth="yes"/>
      <point x="320.674836601375" y="204.33725490199333"/>
      <point x="350.71764705883163" y="76.85686274515501"/>
      <point x="358.28431372549835" y="36.85686274515501" type="qcurve"/>
      <point x="365.6676470588317" y="36.85686274515501" type="line"/>
      <point x="374.300980392165" y="76.85686274515501"/>
      <point x="408.177124182955" y="204.33725490199333"/>
      <point x="420.9424836600683" y="244.33725490199333" type="qcurve" smooth="yes"/>
      <point x="690.711111111065" y="1052.0" type="line"/>
      <point x="770.2107843136766" y="1052.0" type="line"/>
      <point x="1023.3013071895533" y="244.33725490199333" type="line" smooth="yes"/>
      <point x="1034.6166666666668" y="204.33725490199333"/>
      <point x="1068.809477124123" y="76.85686274515501"/>
      <point x="1076.059477124123" y="36.85686274515501" type="qcurve"/>
      <point x="1082.059477124123" y="36.85686274515501" type="line"/>
      <point x="1089.309477124123" y="76.85686274515501"/>
      <point x="1127.9843137254984" y="204.33725490199333"/>
      <point x="1138.6323529411684" y="244.33725490199333" type="qcurve" smooth="yes"/>
      <point x="1366.1283137254984" y="1052.0" type="line"/>
      <point x="1431.1104967319582" y="1052.0" type="line"/>
      <point x="1149.8810588235049" y="0.0" type="line"/>
      <point x="1042.9963725490034" y="0.0" type="line"/>
      <point x="773.88006535945" y="806.4127450980067" type="line" smooth="yes"/>
      <point x="760.1653594771133" y="846.4127450980067"/>
      <point x="742.2186274509967" y="912.5794117646733"/>
      <point x="733.6372549019933" y="952.5794117646733" type="qcurve"/>
      <point x="724.8705882353266" y="952.5794117646733" type="line"/>
      <point x="715.2225490196566" y="912.5794117646733"/>
      <point x="699.4091503267349" y="846.4127450980067"/>
      <point x="685.6944444443983" y="806.4127450980067" type="qcurve" smooth="yes"/>
      <point x="415.13013725484495" y="0.0" type="line"/>
      <point x="307.62810457512" y="0.0" type="line"/>
    </contour>
  </outline>
</glyph>
<glyph name="x" format="2">
  <advance width="909"/>
  <unicode hex="0078"/>
  <outline>
    <contour>
      <point x="20.0" y="0.0" type="line"/>
      <point x="424.68762091505164" y="551.6466666666666" type="line"/>
      <point x="438.645098039175" y="552.2" type="line"/>
      <point x="806.2952418301032" y="1052.0" type="line"/>
      <point x="867.8621830065983" y="1052.0" type="line"/>
      <point x="471.5318562092101" y="514.3533333333334" type="line"/>
      <point x="455.1643790849483" y="513.8" type="line"/>
      <point x="80.72160784316168" y="0.0" type="line"/>
    </contour>
    <contour>
      <point x="43.43471895422667" y="1052.0" type="line"/>
      <point x="110.10837908494833" y="1052.0" type="line"/>
      <point x="482.07647058817827" y="560.5" type="line"/>
      <point x="483.05261437910667" y="561.8833333333333" type="line"/>
      <point x="890.2302352941583" y="0.0" type="line"/>
      <point x="822.6072287582133" y="0.0" type="line"/>
      <point x="443.04052287587666" y="513.8" type="line"/>
      <point x="440.83171241828165" y="514.3533333333334" type="line"/>
    </contour>
  </outline>
</glyph>
<glyph name="y" format="2">
  <advance width="1062"/>
  <unicode hex="0079"/>
  <outline>
    <contour>
      <point x="172.29346405223333" y="-416.0" type="qcurve"/>
      <point x="172.29346405223333" y="-366.05261437910667" type="line"/>
      <point x="201.10620915037833" y="-374.05261437910667"/>
      <point x="268.2816993463917" y="-386.8192810457733"/>
      <point x="294.9284313725083" y="-386.8192810457733" type="qcurve" smooth="yes"/>
      <point x="366.88398692810995" y="-386.8192810457733"/>
      <point x="430.71078431367664" y="-331.5503267973883"/>
      <point x="565.3624183006183" y="11.313398692783332" type="qcurve"/>
      <point x="565.3624183006183" y="10.93006535945" type="line"/>
      <point x="140.58333333333331" y="1052.0" type="line"/>
      <point x="221.55294117649498" y="1052.0" type="line"/>
      <point x="559.3150326797249" y="170.03725490199335" type="line" smooth="yes"/>
      <point x="570.8290849672849" y="145.25392156866"/>
      <point x="583.27385620921" y="100.34379084962168"/>
      <point x="592.7392156863233" y="50.18366013072168" type="qcurve"/>
      <point x="600.1225490196566" y="50.18366013072168" type="line"/>
      <point x="607.0712418301033" y="100.34379084962168"/>
      <point x="618.3006535947767" y="145.25392156866"/>
      <point x="629.2486928104466" y="170.03725490199335" type="qcurve" smooth="yes"/>
      <point x="989.0222222222684" y="1052.0" type="line"/>
      <point x="1060.061111111065" y="1052.0" type="line"/>
      <point x="617.2931372548449" y="26.51666666666665" type="line" smooth="yes"/>
      <point x="501.80098039216506" y="-273.95130718955335"/>
      <point x="402.89803921567" y="-436.0"/>
      <point x="297.0264705881783" y="-436.0" type="qcurve" smooth="yes"/>
      <point x="256.1483660130583" y="-436.0"/>
      <point x="199.272875817045" y="-424.6166666666667"/>
    </contour>
  </outline>
</glyph>
<glyph name="z" format="2">
  <advance width="875"/>
  <unicode hex="007A"/>
  <outline>
    <contour>
      <point x="54.0" y="0.0" type="line"/>
      <point x="54.0" y="69.81873202611666" type="line"/>
      <point x="719.8002875817183" y="994.5185882353267" type="line"/>
      <point x="63.49602614378001" y="994.5185882353267" type="line"/>
      <point x="63.49602614378001" y="1052.0" type="line"/>
      <point x="792.03811764701" y="1052.0" type="line"/>
      <point x="792.03811764701" y="982.3592679738833" type="line"/>
      <point x="125.84249673195833" y="57.48141176467334" type="line"/>
      <point x="825.9021960784883" y="57.48141176467334" type="line"/>
      <point x="825.9021960784883" y="0.0" type="line"/>
    </contour>
  </outline>
</glyph>
<glyph name="braceleft" format="2">
  <advance width="566"/>
  <unicode hex="007B"/>
  <outline>
    <contour>
      <point x="550.9773986927834" y="-312.0" type="line"/>
      <point x="363.13610457512004" y="-312.0"/>
      <point x="169.15044444439832" y="-81.08266666666667"/>
      <point x="224.07461437910666" y="129.506928104605" type="qcurve" smooth="yes"/>
      <point x="274.1013071895533" y="332.1013071895533" type="line" smooth="yes"/>
      <point x="306.2193464052233" y="461.8033071895533"/>
      <point x="169.97581699340168" y="545.8613071895534"/>
      <point x="55.31966013072167" y="545.8613071895534" type="qcurve"/>
      <point x="55.31966013072167" y="602.1386928104466" type="line"/>
      <point x="169.97581699340168" y="602.1386928104466"/>
      <point x="306.2193464052233" y="686.1966928104467"/>
      <point x="274.1013071895533" y="815.8986928104466" type="qcurve" smooth="yes"/>
      <point x="224.07461437910666" y="1018.4930718953949" type="line" smooth="yes"/>
      <point x="169.15044444439832" y="1229.0826666666665"/>
      <point x="363.13610457512004" y="1460.0"/>
      <point x="550.9773986927834" y="1460.0" type="qcurve"/>
      <point x="550.9773986927834" y="1404.7732810457733" type="line"/>
      <point x="373.59811764701" y="1404.7732810457733"/>
      <point x="226.78760130721668" y="1208.6332549019933"/>
      <point x="277.0087320261166" y="1016.5943790849483" type="qcurve" smooth="yes"/>
      <point x="327.9847712417867" y="814.0" type="line" smooth="yes"/>
      <point x="350.24881045745667" y="731.3920130718901"/>
      <point x="276.01146405223335" y="598.3732679738833"/>
      <point x="179.50749019601332" y="574.0" type="qcurve"/>
      <point x="276.01146405223335" y="549.6267320261167"/>
      <point x="348.8567973855667" y="417.77866666666665"/>
      <point x="327.9847712417867" y="334.0" type="qcurve" smooth="yes"/>
      <point x="277.0087320261166" y="131.40562091505168" type="line" smooth="yes"/>
      <point x="226.78760130721668" y="-60.63325490199333"/>
      <point x="373.59811764701" y="-256.77328104577333"/>
      <point x="550.9773986927834" y="-256.77328104577333" type="qcurve"/>
    </contour>
  </outline>
</glyph>
<glyph name="bar" format="2">
  <advance width="465"/>
  <unicode hex="007C"/>
  <outline>
    <contour>
      <point x="210.0" y="-416.0" type="line"/>
      <point x="210.0" y="1264.0522875817185" type="line"/>
      <point x="254.27541176467332" y="1264.0522875817185" type="line"/>
      <point x="254.27541176467332" y="-416.0" type="line"/>
    </contour>
  </outline>
</glyph>
<glyph name="braceright" format="2">
  <advance width="566"/>
  <unicode hex="007D"/>
  <outline>
    <contour>
      <point x="14.058026143779998" y="-312.0" type="qcurve"/>
      <point x="14.058026143779998" y="-256.77328104577333" type="line"/>
      <point x="191.43730718955334" y="-256.77328104577333"/>
      <point x="339.19716993470837" y="-60.63325490199333"/>
      <point x="288.02669281044666" y="131.40562091505168" type="qcurve" smooth="yes"/>
      <point x="238.0" y="334.0" type="line" smooth="yes"/>
      <point x="217.12797385622" y="417.77866666666665"/>
      <point x="289.02396078433003" y="549.6267320261167"/>
      <point x="386.47728104577334" y="574.0" type="qcurve"/>
      <point x="289.02396078433003" y="598.3732679738833"/>
      <point x="217.12797385622" y="730.2213333333333"/>
      <point x="238.0" y="814.0" type="qcurve" smooth="yes"/>
      <point x="288.02669281044666" y="1016.5943790849483" type="line" smooth="yes"/>
      <point x="339.19716993470837" y="1208.6332549019933"/>
      <point x="191.43730718955334" y="1404.7732810457733"/>
      <point x="14.058026143779998" y="1404.7732810457733" type="qcurve"/>
      <point x="14.058026143779998" y="1460.0" type="line"/>
      <point x="201.89932026144334" y="1460.0"/>
      <point x="397.900993464055" y="1229.0826666666665"/>
      <point x="341.91015686267997" y="1018.4930718953949" type="qcurve" smooth="yes"/>
      <point x="290.93411764701" y="815.8986928104466" type="line" smooth="yes"/>
      <point x="258.81607843134" y="686.1966928104467"/>
      <point x="395.05960784316164" y="602.1386928104466"/>
      <point x="510.665111111065" y="602.1386928104466" type="qcurve"/>
      <point x="510.665111111065" y="545.8613071895534" type="line"/>
      <point x="395.05960784316164" y="545.8613071895534"/>
      <point x="258.81607843134" y="461.8033071895533"/>
      <point x="290.93411764701" y="332.1013071895533" type="qcurve" smooth="yes"/>
      <point x="341.91015686267997" y="129.506928104605" type="line" smooth="yes"/>
      <point x="397.900993464055" y="-81.08266666666667"/>
      <point x="201.89932026144334" y="-312.0"/>
    </contour>
  </outline>
</glyph>
<glyph name="asciitilde" format="2">
  <advance width="1718"/>
  <unicode hex="007E"/>
  <outline>
    <contour>
      <point x="584.4993464052234" y="617.7666666666667" type="qcurve"/>
      <point x="584.4993464052234" y="675.9" type="line"/>
      <point x="606.6133986927833" y="700.7"/>
      <point x="664.904901960825" y="720.95"/>
      <point x="706.600980392165" y="720.8833333333333" type="qcurve" smooth="yes"/>
      <point x="662.25" y="720.8166666666666"/>
      <point x="808.5905228758767" y="708.43594771244"/>
      <point x="857.6872549019934" y="701.9006535947767" type="qcurve" smooth="yes"/>
      <point x="904.16797385622" y="699.01405228756"/>
      <point x="1052.1258169934017" y="680.95"/>
      <point x="1012.9735294118218" y="680.95" type="qcurve" smooth="yes"/>
      <point x="1060.0029411764951" y="680.95"/>
      <point x="1120.2617647058416" y="710.5"/>
      <point x="1142.3758169934015" y="739.0833333333334" type="qcurve"/>
      <point x="1142.3758169934015" y="678.5666666666666" type="line"/>
      <point x="1121.3284313725082" y="657.2833333333333"/>
      <point x="1059.9362745098283" y="634.65"/>
      <point x="1016.106862745155" y="634.65" type="qcurve" smooth="yes"/>
      <point x="1061.5431372548449" y="634.65"/>
      <point x="938.1692810457733" y="638.8807189542267"/>
      <point x="902.8725490196566" y="636.5506535947767" type="qcurve" smooth="yes"/>
      <point x="843.6584967319583" y="647.23594771244"/>
      <point x="672.8006535947767" y="674.9"/>
      <point x="710.8676470588316" y="674.9" type="qcurve" smooth="yes"/>
      <point x="667.0382352941583" y="674.9"/>
      <point x="607.68006535945" y="648.4833333333333"/>
    </contour>
  </outline>
</glyph>
<glyph name="exclamdown" format="2">
  <advance width="463"/>
  <unicode hex="00A1"/>
  <outline>
    <contour>
      <point x="277.45000000000005" y="1093.8666666666666" type="qcurve" smooth="yes"/>
      <point x="277.45000000000005" y="1062.5333333333333"/>
      <point x="252.93333333333334" y="1018.5"/>
      <point x="231.03333333333333" y="1018.5" type="qcurve" smooth="yes"/>
      <point x="209.13333333333333" y="1018.5"/>
      <point x="186.0" y="1062.5333333333333"/>
      <point x="186.0" y="1093.8666666666666" type="qcurve" smooth="yes"/>
      <point x="186.0" y="1125.2"/>
      <point x="209.13333333333333" y="1169.2333333333333"/>
      <point x="231.03333333333333" y="1169.2333333333333" type="qcurve" smooth="yes"/>
      <point x="252.93333333333334" y="1169.2333333333333"/>
      <point x="277.45000000000005" y="1125.2"/>
    </contour>
    <contour>
      <point x="248.96666666666667" y="737.2333333333333" type="line"/>
      <point x="251.83333333333334" y="-308.76666666666665" type="line"/>
      <point x="211.3" y="-308.76666666666665" type="line"/>
      <point x="215.55" y="737.2333333333333" type="line"/>
    </contour>
  </outline>
</glyph>
<glyph name="cent" format="2">
  <advance width="886"/>
  <unicode hex="00A2"/>
  <outline>
    <contour>
      <point x="511.1" y="194.85000000000002" type="qcurve" smooth="yes"/>
      <point x="721.1166666666667" y="194.85000000000002"/>
      <point x="816.55" y="389.9666666666667"/>
      <point x="806.4" y="526.3" type="qcurve"/>
      <point x="860.55" y="526.3" type="line"/>
      <point x="872.15" y="365.0333333333333"/>
      <point x="751.1" y="138.41666666666666"/>
      <point x="513.2333333333333" y="138.41666666666666" type="qcurve" smooth="yes"/>
      <point x="358.7" y="138.41666666666666"/>
      <point x="114.0" y="387.18333333333334"/>
      <point x="114.0" y="678.4166666666666" type="qcurve" smooth="yes"/>
      <point x="114.0" y="695.9166666666666" type="line" smooth="yes"/>
      <point x="114.0" y="987.15"/>
      <point x="358.7" y="1235.9166666666667"/>
      <point x="521.7666666666667" y="1235.9166666666667" type="qcurve" smooth="yes"/>
      <point x="725.0" y="1235.9166666666667"/>
      <point x="870.7" y="1020.9"/>
      <point x="860.55" y="891.5333333333333" type="qcurve"/>
      <point x="806.4" y="891.5333333333333" type="line"/>
      <point x="816.55" y="1016.2666666666667"/>
      <point x="712.6333333333333" y="1178.4166666666667"/>
      <point x="520.7" y="1178.4166666666667" type="qcurve" smooth="yes"/>
      <point x="371.26666666666665" y="1178.4166666666667"/>
      <point x="169.85" y="973.4333333333334"/>
      <point x="169.85" y="727.9166666666666" type="qcurve" smooth="yes"/>
      <point x="169.85" y="646.4166666666666" type="line" smooth="yes"/>
      <point x="169.85" y="402.4166666666667"/>
      <point x="374.05" y="194.85000000000002"/>
    </contour>
    <contour>
      <point x="420.3" y="0.0" type="line"/>
      <point x="420.3" y="181.66666666666669" type="line"/>
      <point x="419.76666666666665" y="195.66666666666669" type="line"/>
      <point x="419.76666666666665" y="708.0" type="line"/>
      <point x="476.76666666666665" y="708.0" type="line"/>
      <point x="476.76666666666665" y="194.66666666666669" type="line"/>
      <point x="476.23333333333335" y="184.66666666666669" type="line"/>
      <point x="476.23333333333335" y="0.0" type="line"/>
    </contour>
    <contour>
      <point x="419.76666666666665" y="708.0" type="line"/>
      <point x="419.76666666666665" y="1182.0" type="line"/>
      <point x="420.3" y="1192.0" type="line"/>
      <point x="420.3" y="1402.0" type="line"/>
      <point x="476.23333333333335" y="1402.0" type="line"/>
      <point x="476.23333333333335" y="1192.0" type="line"/>
      <point x="476.76666666666665" y="1179.0" type="line"/>
      <point x="476.76666666666665" y="708.0" type="line"/>
    </contour>
  </outline>
</glyph>
<glyph name="sterling" format="2">
  <advance width="805"/>
  <unicode hex="00A3"/>
  <outline>
    <contour>
      <point x="796.8333333333333" y="0.0" type="line"/>
      <point x="36.0" y="0.0" type="line"/>
      <point x="36.0" y="39.650000000000006" type="line"/>
      <point x="64.33333333333334" y="39.650000000000006" type="line" smooth="yes"/>
      <point x="195.06666666666666" y="39.650000000000006"/>
      <point x="364.98333333333335" y="252.06666666666666"/>
      <point x="344.06666666666666" y="408.9" type="qcurve" smooth="yes"/>
      <point x="258.6333333333333" y="1039.0" type="line" smooth="yes"/>
      <point x="226.05" y="1290.2"/>
      <point x="353.85" y="1488.45"/>
      <point x="512.45" y="1488.45" type="qcurve" smooth="yes"/>
      <point x="643.7666666666667" y="1488.45"/>
      <point x="773.5833333333333" y="1339.2"/>
      <point x="773.5833333333333" y="1158.3333333333333" type="qcurve" smooth="yes"/>
      <point x="773.5833333333333" y="1142.3333333333333" type="line"/>
      <point x="732.3666666666667" y="1142.3333333333333" type="line"/>
      <point x="732.3666666666667" y="1158.3333333333333" type="line" smooth="yes"/>
      <point x="725.7212418301033" y="1295.0"/>
      <point x="629.1833333333334" y="1436.2666666666667"/>
      <point x="514.45" y="1436.2666666666667" type="qcurve" smooth="yes"/>
      <point x="387.3666666666667" y="1436.2666666666667"/>
      <point x="292.28333333333336" y="1267.5333333333333"/>
      <point x="315.2166666666667" y="1039.0" type="qcurve" smooth="yes"/>
      <point x="378.6666666666667" y="422.23333333333335" type="line" smooth="yes"/>
      <point x="393.05" y="286.23333333333335"/>
      <point x="307.6166666666667" y="92.18333333333334"/>
      <point x="237.61666666666667" y="51.18333333333334" type="qcurve"/>
      <point x="796.8333333333333" y="51.18333333333334" type="line"/>
    </contour>
    <contour>
      <point x="648.1666666666666" y="734.4" type="line"/>
      <point x="79.66666666666666" y="734.4" type="line"/>
      <point x="79.66666666666666" y="761.9" type="line"/>
      <point x="648.1666666666666" y="761.9" type="line"/>
    </contour>
  </outline>
</glyph>
<glyph name="currency" format="2">
  <advance width="1051"/>
  <unicode hex="00A4"/>
  <guideline x="0" y="901.0" angle="0" identifier="bRYxxRaQQf"/>
  <guideline x="0" y="555.0" angle="0" identifier="917FhrihjR"/>
  <outline>
    <contour>
      <point x="212.58333333333334" y="712.0" type="qcurve"/>
      <point x="212.58333333333334" y="551.7833333333333"/>
      <point x="370.91666666666663" y="337.0333333333333"/>
      <point x="522.6666666666666" y="337.0333333333333" type="qcurve" smooth="yes"/>
      <point x="673.4166666666666" y="337.0333333333333"/>
      <point x="830.75" y="551.7833333333333"/>
      <point x="830.75" y="712.0" type="qcurve" smooth="yes"/>
      <point x="830.75" y="870.2166666666667"/>
      <point x="673.4166666666666" y="1084.9666666666667"/>
      <point x="522.6666666666666" y="1084.9666666666667" type="qcurve" smooth="yes"/>
      <point x="370.91666666666663" y="1084.9666666666667"/>
      <point x="212.58333333333334" y="870.2166666666667"/>
    </contour>
    <contour>
      <point x="155.46666666666667" y="718.0" type="qcurve"/>
      <point x="155.46666666666667" y="898.4166666666666"/>
      <point x="351.1" y="1144.7666666666667"/>
      <point x="521.6666666666666" y="1144.7666666666667" type="qcurve" smooth="yes"/>
      <point x="692.2333333333333" y="1144.7666666666667"/>
      <point x="887.8666666666667" y="898.4166666666666"/>
      <point x="887.8666666666667" y="718.0" type="qcurve" smooth="yes"/>
      <point x="887.8666666666667" y="537.2"/>
      <point x="692.2333333333333" y="289.23333333333335"/>
      <point x="521.6666666666666" y="289.23333333333335" type="qcurve" smooth="yes"/>
      <point x="351.1" y="289.23333333333335"/>
      <point x="155.46666666666667" y="537.2"/>
    </contour>
    <contour>
      <point x="970.8333333333333" y="1220.2666666666667" type="line"/>
      <point x="768.8333333333333" y="1014.2666666666667" type="line"/>
      <point x="731.2166666666667" y="1054.1166666666666" type="line"/>
      <point x="933.2166666666667" y="1260.1166666666666" type="line"/>
    </contour>
    <contour>
      <point x="293.5" y="398.26666666666665" type="line"/>
      <point x="91.5" y="192.26666666666665" type="line"/>
      <point x="54.88333333333333" y="231.11666666666667" type="line"/>
      <point x="256.8833333333333" y="436.1166666666667" type="line"/>
    </contour>
    <contour>
      <point x="959.2166666666667" y="199.26666666666665" type="line"/>
      <point x="757.2166666666667" y="405.26666666666665" type="line"/>
      <point x="795.8333333333333" y="444.1166666666667" type="line"/>
      <point x="997.8333333333333" y="239.11666666666667" type="line"/>
    </contour>
    <contour>
      <point x="273.8833333333333" y="1028.2666666666667" type="line"/>
      <point x="71.88333333333333" y="1234.2666666666667" type="line"/>
      <point x="108.5" y="1273.1166666666666" type="line"/>
      <point x="310.5" y="1067.1166666666666" type="line"/>
    </contour>
  </outline>
</glyph>
<glyph name="yen" format="2">
  <advance width="969"/>
  <unicode hex="00A5"/>
  <outline>
    <contour>
      <point x="86.66666666666666" y="366.3333333333333" type="line"/>
      <point x="86.66666666666666" y="414.6666666666667" type="line"/>
      <point x="889.8666666666667" y="414.6666666666667" type="line"/>
      <point x="889.8666666666667" y="366.3333333333333" type="line"/>
    </contour>
    <contour>
      <point x="86.66666666666666" y="662.5" type="line"/>
      <point x="86.66666666666666" y="705.8333333333334" type="line"/>
      <point x="388.73333333333335" y="705.8333333333334" type="line"/>
      <point x="441.73333333333335" y="669.0" type="line"/>
      <point x="550.7333333333333" y="669.0" type="line"/>
      <point x="598.7333333333333" y="705.8333333333334" type="line"/>
      <point x="889.8666666666667" y="705.8333333333334" type="line"/>
      <point x="889.8666666666667" y="662.5" type="line"/>
    </contour>
    <contour>
      <point x="470.2833333333333" y="0.0" type="line"/>
      <point x="470.2833333333333" y="595.0333333333333" type="line"/>
      <point x="36.33333333333333" y="1456.0" type="line"/>
      <point x="100.08333333333333" y="1456.0" type="line"/>
      <point x="429.73333333333335" y="766.0" type="line" smooth="yes"/>
      <point x="444.3666666666667" y="734.6166666666667"/>
      <point x="462.9" y="716.0"/>
      <point x="483.73333333333335" y="679.0" type="qcurve"/>
      <point x="503.73333333333335" y="679.0" type="line"/>
      <point x="537.6333333333333" y="735.0"/>
      <point x="542.35" y="736.0"/>
      <point x="557.7333333333333" y="766.0" type="qcurve" smooth="yes"/>
      <point x="869.5333333333333" y="1456.0" type="line"/>
      <point x="932.2" y="1456.0" type="line"/>
      <point x="515.95" y="595.0333333333333" type="line"/>
      <point x="515.95" y="0.0" type="line"/>
    </contour>
  </outline>
</glyph>
<glyph name="section" format="2">
  <advance width="1256"/>
  <unicode hex="00A7"/>
  <guideline x="0" y="1658.0" angle="0" identifier="QzZ5gIiCyn"/>
  <guideline x="0" y="578.0" angle="0" identifier="9Hxjf2sdFw"/>
  <outline>
    <contour>
      <point x="728.35" y="137.15" type="qcurve"/>
      <point x="728.35" y="199.43333333333334" type="line"/>
      <point x="867.25" y="221.56666666666666"/>
      <point x="983.6666666666666" y="378.96666666666664"/>
      <point x="983.6666666666666" y="497.5833333333333" type="qcurve"/>
      <point x="983.6666666666666" y="604.4166666666666"/>
      <point x="897.6666666666666" y="745.3166666666666"/>
      <point x="651.65" y="804.55" type="qcurve" smooth="yes"/>
      <point x="414.81666666666666" y="864.8666666666667"/>
      <point x="281.15" y="1065.0666666666666"/>
      <point x="281.15" y="1153.9" type="qcurve" smooth="yes"/>
      <point x="281.15" y="1286.2666666666667"/>
      <point x="472.76666666666665" y="1490.0"/>
      <point x="625.7666666666667" y="1489.6166666666666" type="qcurve" smooth="yes"/>
      <point x="775.4166666666666" y="1489.2333333333333"/>
      <point x="963.15" y="1265.439054726395"/>
      <point x="963.5333333333333" y="1109.6833333333334" type="qcurve"/>
      <point x="909.2" y="1109.6833333333334" type="line"/>
      <point x="908.8166666666666" y="1270.2666666666667"/>
      <point x="744.3666666666667" y="1440.75"/>
      <point x="625.7666666666667" y="1440.75" type="qcurve" smooth="yes"/>
      <point x="505.55" y="1440.75"/>
      <point x="345.1666666666667" y="1269.3166666666666"/>
      <point x="345.1666666666667" y="1149.6833333333334" type="qcurve" smooth="yes"/>
      <point x="345.1666666666667" y="1059.9833333333333"/>
      <point x="524.3666666666667" y="887.85"/>
      <point x="700.6" y="848.5833333333334" type="qcurve" smooth="yes"/>
      <point x="942.7" y="787.8166666666667"/>
      <point x="1041.55" y="625.7166666666667"/>
      <point x="1041.55" y="491.8333333333333" type="qcurve" smooth="yes"/>
      <point x="1041.55" y="369.3"/>
      <point x="901.2666666666667" y="159.28333333333333"/>
    </contour>
    <contour>
      <point x="490.95" y="928.5833333333334" type="qcurve"/>
      <point x="491.3333333333333" y="869.4333333333334" type="line"/>
      <point x="371.23333333333335" y="848.6833333333334"/>
      <point x="264.4166666666667" y="682.2"/>
      <point x="264.4166666666667" y="560.0833333333334" type="qcurve" smooth="yes"/>
      <point x="264.4166666666667" y="449.65"/>
      <point x="370.9166666666667" y="301.23333333333335"/>
      <point x="604.1833333333333" y="240.91666666666669" type="qcurve" smooth="yes"/>
      <point x="859.8166666666666" y="172.28333333333333"/>
      <point x="950.4" y="-20.78333333333333"/>
      <point x="950.4" y="-139.28333333333333" type="qcurve" smooth="yes"/>
      <point x="950.4" y="-301.6333333333333"/>
      <point x="765.9" y="-503.46666666666664"/>
      <point x="575.4833333333333" y="-503.46666666666664" type="qcurve" smooth="yes"/>
      <point x="375.4666666666667" y="-503.46666666666664"/>
      <point x="216.15" y="-262.23805970149664"/>
      <point x="216.15" y="-106.58333333333334" type="qcurve"/>
      <point x="272.25" y="-107.35" type="line"/>
      <point x="272.25" y="-219.3"/>
      <point x="392.93333333333334" y="-450.45"/>
      <point x="575.4833333333333" y="-450.45" type="qcurve" smooth="yes"/>
      <point x="750.4666666666667" y="-450.45"/>
      <point x="887.3833333333333" y="-258.4666666666667"/>
      <point x="887.3833333333333" y="-130.46666666666667" type="qcurve" smooth="yes"/>
      <point x="887.3833333333333" y="-14.133333333333333"/>
      <point x="745.8166666666666" y="141.81666666666666"/>
      <point x="564.9" y="188.66666666666666" type="qcurve" smooth="yes"/>
      <point x="327.3333333333333" y="252.43333333333334"/>
      <point x="208.3" y="415.85"/>
      <point x="208.3" y="556.25" type="qcurve" smooth="yes"/>
      <point x="208.3" y="681.0"/>
      <point x="315.2" y="905.0666666666667"/>
    </contour>
  </outline>
</glyph>
<glyph name="dieresis" format="2">
  <advance width="1024"/>
  <unicode hex="00A8"/>
  <outline>
    <contour>
      <point x="272.55" y="1272.2666666666667" type="qcurve" smooth="yes"/>
      <point x="272.55" y="1299.2833333333333"/>
      <point x="306.4166666666667" y="1337.7666666666667"/>
      <point x="338.6666666666667" y="1337.7666666666667" type="qcurve" smooth="yes"/>
      <point x="371.9166666666667" y="1337.7666666666667"/>
      <point x="405.7833333333333" y="1299.2833333333333"/>
      <point x="405.7833333333333" y="1272.2666666666667" type="qcurve" smooth="yes"/>
      <point x="405.7833333333333" y="1244.4833333333333"/>
      <point x="371.9166666666667" y="1207.0"/>
      <point x="338.6666666666667" y="1207.0" type="qcurve" smooth="yes"/>
      <point x="306.4166666666667" y="1207.0"/>
      <point x="272.55" y="1244.4833333333333"/>
    </contour>
    <contour>
      <point x="618.2166666666667" y="1270.2666666666667" type="qcurve" smooth="yes"/>
      <point x="618.2166666666667" y="1297.2833333333333"/>
      <point x="652.4666666666667" y="1335.7666666666667"/>
      <point x="684.3333333333334" y="1335.7666666666667" type="qcurve" smooth="yes"/>
      <point x="716.5833333333334" y="1335.7666666666667"/>
      <point x="751.45" y="1297.2833333333333"/>
      <point x="751.45" y="1270.2666666666667" type="qcurve" smooth="yes"/>
      <point x="751.45" y="1242.4833333333333"/>
      <point x="716.5833333333334" y="1205.0"/>
      <point x="684.3333333333334" y="1205.0" type="qcurve" smooth="yes"/>
      <point x="652.4666666666667" y="1205.0"/>
      <point x="618.2166666666667" y="1242.4833333333333"/>
    </contour>
  </outline>
</glyph>
<glyph name="copyright" format="2">
  <advance width="1541"/>
  <unicode hex="00A9"/>
  <guideline x="0" y="901.0" angle="0" identifier="0Pjz0qKr8z"/>
  <guideline x="0" y="555.0" angle="0" identifier="sJo8BlDiJ7"/>
  <outline>
    <contour>
      <point x="1037.7166666666667" y="514.1833333333333" type="qcurve"/>
      <point x="1084.15" y="514.1833333333333" type="line"/>
      <point x="1084.15" y="415.6666666666667"/>
      <point x="984.2166666666667" y="205.0"/>
      <point x="796.5833333333334" y="205.0" type="qcurve" smooth="yes"/>
      <point x="601.8666666666667" y="205.0"/>
      <point x="429.6333333333333" y="484.9"/>
      <point x="429.6333333333333" y="676.45" type="qcurve" smooth="yes"/>
      <point x="429.6333333333333" y="700.2333333333333" type="line" smooth="yes"/>
      <point x="429.6333333333333" y="894.6"/>
      <point x="610.0166666666667" y="1167.2333333333333"/>
      <point x="790.0666666666667" y="1167.2333333333333" type="qcurve" smooth="yes"/>
      <point x="935.8166666666667" y="1167.2333333333333"/>
      <point x="1083.7666666666667" y="981.2166666666667"/>
      <point x="1083.7666666666667" y="858.05" type="qcurve"/>
      <point x="1037.3333333333333" y="858.05" type="line"/>
      <point x="1037.3333333333333" y="955.3"/>
      <point x="922.5833333333334" y="1130.5"/>
      <point x="790.45" y="1130.5" type="qcurve" smooth="yes"/>
      <point x="632.0166666666667" y="1130.5"/>
      <point x="478.76666666666665" y="870.8833333333333"/>
      <point x="478.76666666666665" y="683.3666666666667" type="qcurve" smooth="yes"/>
      <point x="478.76666666666665" y="692.9333333333334" type="line" smooth="yes"/>
      <point x="478.76666666666665" y="505.48333333333335"/>
      <point x="627.3833333333333" y="244.41666666666669"/>
      <point x="787.0" y="244.41666666666669" type="qcurve" smooth="yes"/>
      <point x="913.8" y="244.41666666666669"/>
      <point x="1037.7166666666667" y="414.1166666666667"/>
    </contour>
    <contour>
      <point x="115.01666666666667" y="687.0" type="qcurve" smooth="yes"/>
      <point x="115.01666666666667" y="350.2"/>
      <point x="455.2833333333333" y="-74.85"/>
      <point x="771.4666666666667" y="-74.85" type="qcurve" smooth="yes"/>
      <point x="1086.65" y="-74.85"/>
      <point x="1425.5333333333333" y="350.2"/>
      <point x="1425.5333333333333" y="687.0" type="qcurve" smooth="yes"/>
      <point x="1425.5333333333333" y="1022.0333333333333"/>
      <point x="1086.65" y="1447.2333333333333"/>
      <point x="771.4666666666667" y="1447.2333333333333" type="qcurve" smooth="yes"/>
      <point x="455.2833333333333" y="1447.2333333333333"/>
      <point x="115.01666666666667" y="1022.0333333333333"/>
    </contour>
    <contour>
      <point x="48.63333333333333" y="687.0" type="qcurve" smooth="yes"/>
      <point x="48.63333333333333" y="1039.0"/>
      <point x="444.4666666666667" y="1505.1666666666667"/>
      <point x="770.4666666666667" y="1505.1666666666667" type="qcurve" smooth="yes"/>
      <point x="1095.4666666666667" y="1505.1666666666667"/>
      <point x="1492.3" y="1039.0"/>
      <point x="1492.3" y="687.0" type="qcurve" smooth="yes"/>
      <point x="1492.3" y="337.0"/>
      <point x="1095.4666666666667" y="-133.16666666666666"/>
      <point x="770.4666666666667" y="-133.16666666666666" type="qcurve" smooth="yes"/>
      <point x="444.4666666666667" y="-133.16666666666666"/>
      <point x="48.63333333333333" y="337.0"/>
    </contour>
  </outline>
</glyph>
<glyph name="ordfeminine" format="2">
  <advance width="798"/>
  <unicode hex="00AA"/>
  <guideline x="0" y="1681.0" angle="0" identifier="3CJlALCfkl"/>
  <guideline x="0" y="909.0" angle="0" identifier="Zdl6NZVQAy"/>
  <outline>
    <contour>
      <point x="537.0" y="862.0" type="line"/>
      <point x="537.0" y="821.0"/>
      <point x="557.0" y="736.0"/>
      <point x="580.0" y="706.0" type="qcurve"/>
      <point x="620.9333333333334" y="706.0" type="line"/>
      <point x="606.9333333333334" y="749.0"/>
      <point x="594.9333333333334" y="838.0"/>
      <point x="594.9333333333334" y="887.0" type="qcurve" smooth="yes"/>
      <point x="594.9333333333334" y="1201.0" type="line" smooth="yes"/>
      <point x="594.9333333333334" y="1328.2"/>
      <point x="502.0833333333333" y="1477.0"/>
      <point x="398.93333333333334" y="1477.0" type="qcurve" smooth="yes"/>
      <point x="293.43333333333334" y="1477.0"/>
      <point x="197.93333333333334" y="1357.3"/>
      <point x="197.93333333333334" y="1247.1666666666667" type="qcurve" smooth="yes"/>
      <point x="197.93333333333334" y="1234.0" type="line"/>
      <point x="245.03333333333333" y="1234.0" type="line"/>
      <point x="245.03333333333333" y="1247.0" type="line" smooth="yes"/>
      <point x="245.03333333333333" y="1332.55"/>
      <point x="326.3666666666667" y="1422.0833333333333"/>
      <point x="400.93333333333334" y="1422.0833333333333" type="qcurve" smooth="yes"/>
      <point x="467.0333333333333" y="1422.0833333333333"/>
      <point x="537.0" y="1298.3333333333333"/>
      <point x="537.0" y="1202.0" type="qcurve" smooth="yes"/>
    </contour>
    <contour>
      <point x="582.6" y="1135.1666666666667" type="line"/>
      <point x="411.93333333333334" y="1135.1666666666667" type="line" smooth="yes"/>
      <point x="306.6333333333333" y="1135.1666666666667"/>
      <point x="173.93333333333334" y="1023.5333333333333"/>
      <point x="173.93333333333334" y="918.0" type="qcurve" smooth="yes"/>
      <point x="173.93333333333334" y="812.6833333333333"/>
      <point x="286.51666666666665" y="692.0"/>
      <point x="363.43333333333334" y="692.0" type="qcurve" smooth="yes"/>
      <point x="449.2166666666667" y="692.0"/>
      <point x="556.6333333333333" y="792.15"/>
      <point x="580.3" y="878.5" type="qcurve"/>
      <point x="562.3" y="976.6666666666666" type="line"/>
      <point x="562.3" y="895.7833333333333"/>
      <point x="474.73333333333335" y="745.9166666666666"/>
      <point x="360.93333333333334" y="745.9166666666666" type="qcurve" smooth="yes"/>
      <point x="312.1" y="745.9166666666666"/>
      <point x="227.18333333333334" y="843.2333333333333"/>
      <point x="227.18333333333334" y="922.0" type="qcurve" smooth="yes"/>
      <point x="227.18333333333334" y="1009.7833333333333"/>
      <point x="332.25" y="1076.5833333333333"/>
      <point x="412.93333333333334" y="1069.6666666666667" type="qcurve" smooth="yes"/>
      <point x="582.6" y="1069.6666666666667" type="line"/>
    </contour>
  </outline>
</glyph>
<glyph name="guillemotleft" format="2">
  <advance width="1031"/>
  <unicode hex="00AB"/>
  <guideline x="0" y="901.0" angle="0" identifier="ZftBQarVKw"/>
  <guideline x="0" y="555.0" angle="0" identifier="MVJpdoVRVd"/>
  <outline>
    <contour>
      <point x="135.66666666666666" y="535.8333333333334" type="line"/>
      <point x="135.66666666666666" y="567.1666666666666" type="line"/>
      <point x="377.3333333333333" y="949.0" type="line"/>
      <point x="454.95" y="949.0" type="line"/>
      <point x="189.41666666666669" y="551.0" type="line"/>
      <point x="454.95" y="153.0" type="line"/>
      <point x="377.3333333333333" y="153.0" type="line"/>
    </contour>
    <contour>
      <point x="575.6666666666666" y="535.8333333333334" type="line"/>
      <point x="575.6666666666666" y="567.1666666666666" type="line"/>
      <point x="817.3333333333334" y="949.0" type="line"/>
      <point x="894.95" y="949.0" type="line"/>
      <point x="629.4166666666666" y="551.0" type="line"/>
      <point x="894.95" y="153.0" type="line"/>
      <point x="817.3333333333334" y="153.0" type="line"/>
    </contour>
  </outline>
</glyph>
<glyph name="logicalnot" format="2">
  <advance width="943"/>
  <unicode hex="00AC"/>
  <outline>
    <contour>
      <point x="793.6666666666666" y="773.3333333333334" type="line"/>
      <point x="793.6666666666666" y="376.0" type="line"/>
      <point x="754.7833333333333" y="376.0" type="line"/>
      <point x="754.7833333333333" y="722.25" type="line"/>
      <point x="58.0" y="722.25" type="line"/>
      <point x="58.0" y="773.3333333333334" type="line"/>
    </contour>
  </outline>
</glyph>
<glyph name="registered" format="2">
  <advance width="1541"/>
  <unicode hex="00AE"/>
  <outline>
    <contour>
      <point x="48.63333333333333" y="687.0" type="qcurve" smooth="yes"/>
      <point x="48.63333333333333" y="1039.0"/>
      <point x="444.4666666666667" y="1505.1666666666667"/>
      <point x="770.4666666666667" y="1505.1666666666667" type="qcurve" smooth="yes"/>
      <point x="1095.4666666666667" y="1505.1666666666667"/>
      <point x="1492.3" y="1039.0"/>
      <point x="1492.3" y="687.0" type="qcurve" smooth="yes"/>
      <point x="1492.3" y="337.0"/>
      <point x="1095.4666666666667" y="-133.16666666666666"/>
      <point x="770.4666666666667" y="-133.16666666666666" type="qcurve" smooth="yes"/>
      <point x="444.4666666666667" y="-133.16666666666666"/>
      <point x="48.63333333333333" y="337.0"/>
    </contour>
    <contour>
      <point x="115.01666666666667" y="687.0" type="qcurve" smooth="yes"/>
      <point x="115.01666666666667" y="350.2"/>
      <point x="455.2833333333333" y="-74.85"/>
      <point x="771.4666666666667" y="-74.85" type="qcurve" smooth="yes"/>
      <point x="1086.65" y="-74.85"/>
      <point x="1425.5333333333333" y="350.2"/>
      <point x="1425.5333333333333" y="687.0" type="qcurve" smooth="yes"/>
      <point x="1425.5333333333333" y="1022.0333333333333"/>
      <point x="1086.65" y="1447.2333333333333"/>
      <point x="771.4666666666667" y="1447.2333333333333" type="qcurve" smooth="yes"/>
      <point x="455.2833333333333" y="1447.2333333333333"/>
      <point x="115.01666666666667" y="1022.0333333333333"/>
    </contour>
    <contour>
      <point x="859.3333333333334" y="612.2166666666667" type="line"/>
      <point x="580.5666666666666" y="612.2166666666667" type="line"/>
      <point x="580.5666666666666" y="225.0" type="line"/>
      <point x="523.4666666666667" y="225.0" type="line"/>
      <point x="523.4666666666667" y="1158.0" type="line"/>
      <point x="764.4666666666667" y="1158.0" type="line" smooth="yes"/>
      <point x="920.4666666666667" y="1158.0"/>
      <point x="1059.4666666666667" y="1011.6"/>
      <point x="1059.4666666666667" y="892.2166666666667" type="qcurve" smooth="yes"/>
      <point x="1059.4666666666667" y="792.5333333333333"/>
      <point x="961.6833333333334" y="649.8833333333333"/>
      <point x="896.2666666666667" y="633.2166666666667" type="qcurve"/>
      <point x="909.2833333333333" y="610.2166666666667"/>
      <point x="952.7" y="550.0666666666667"/>
      <point x="965.1166666666667" y="516.1666666666666" type="qcurve" smooth="yes"/>
      <point x="1058.5666666666666" y="243.0" type="line"/>
      <point x="1058.5666666666666" y="225.0" type="line"/>
      <point x="1008.2166666666667" y="225.0" type="line"/>
    </contour>
    <contour>
      <point x="765.4666666666667" y="1099.6833333333334" type="qcurve" smooth="yes"/>
      <point x="580.5666666666666" y="1099.6833333333334" type="line"/>
      <point x="580.5666666666666" y="671.6" type="line"/>
      <point x="790.4666666666667" y="671.6" type="line" smooth="yes"/>
      <point x="928.0166666666667" y="671.6"/>
      <point x="1007.1166666666667" y="797.25"/>
      <point x="1007.1166666666667" y="889.4333333333333" type="qcurve" smooth="yes"/>
      <point x="1007.1166666666667" y="976.6833333333333"/>
      <point x="846.4166666666666" y="1100.0666666666666"/>
    </contour>
  </outline>
</glyph>
<glyph name="macron" format="2">
  <advance width="1024"/>
  <unicode hex="00AF"/>
  <outline>
    <contour>
      <point x="745.0" y="1335.9333333333334" type="line"/>
      <point x="745.0" y="1278.0" type="line"/>
      <point x="279.0" y="1278.0" type="line"/>
      <point x="279.0" y="1335.9333333333334" type="line"/>
    </contour>
  </outline>
</glyph>
<glyph name="degree" format="2">
  <advance width="765"/>
  <unicode hex="00B0"/>
  <outline>
    <contour>
      <point x="169.33333333333331" y="1247.4333333333334" type="qcurve"/>
      <point x="169.33333333333331" y="1348.45"/>
      <point x="290.1217149546867" y="1477.0"/>
      <point x="384.6166666666667" y="1477.0" type="qcurve" smooth="yes"/>
      <point x="477.28583065071166" y="1477.0"/>
      <point x="595.9" y="1348.493283582135"/>
      <point x="595.9" y="1247.4333333333334" type="qcurve" smooth="yes"/>
      <point x="595.9" y="1147.13880597008"/>
      <point x="477.32164179099505" y="1020.8666666666667"/>
      <point x="384.6166666666667" y="1020.8666666666667" type="qcurve" smooth="yes"/>
      <point x="289.47711442788665" y="1020.8666666666667"/>
      <point x="169.33333333333331" y="1147.55"/>
    </contour>
    <contour>
      <point x="238.0" y="1247.4333333333334" type="qcurve"/>
      <point x="238.0" y="1180.8371671056668"/>
      <point x="321.35539947319995" y="1092.15"/>
      <point x="384.6166666666667" y="1092.15" type="qcurve" smooth="yes"/>
      <point x="447.1279338601334" y="1092.15"/>
      <point x="527.2333333333333" y="1180.8371671056668"/>
      <point x="527.2333333333333" y="1247.4333333333334" type="qcurve" smooth="yes"/>
      <point x="527.2333333333333" y="1316.7049556141835"/>
      <point x="447.1279338601334" y="1405.7166666666667"/>
      <point x="384.6166666666667" y="1405.7166666666667" type="qcurve" smooth="yes"/>
      <point x="321.35539947319995" y="1405.7166666666667"/>
      <point x="238.0" y="1316.7049556141835"/>
    </contour>
  </outline>
</glyph>
<glyph name="plusminus" format="2">
  <advance width="1024"/>
  <unicode hex="00B1"/>
  <outline>
    <contour>
      <point x="84.73333333333333" y="668.4666666666667" type="line"/>
      <point x="84.73333333333333" y="720.3" type="line"/>
      <point x="939.2666666666667" y="720.3" type="line"/>
      <point x="939.2666666666667" y="668.4666666666667" type="line"/>
    </contour>
    <contour>
      <point x="494.05" y="248.0" type="line"/>
      <point x="494.05" y="1160.0" type="line"/>
      <point x="535.4833333333333" y="1160.0" type="line"/>
      <point x="535.4833333333333" y="248.0" type="line"/>
    </contour>
    <contour>
      <point x="84.73333333333333" y="1.0" type="line"/>
      <point x="84.73333333333333" y="57.10000000000001" type="line"/>
      <point x="939.2666666666667" y="57.10000000000001" type="line"/>
      <point x="939.2666666666667" y="1.0" type="line"/>
    </contour>
  </outline>
</glyph>
<glyph name="twosuperior" format="2">
  <advance width="614"/>
  <unicode hex="00B2"/>
  <outline>
    <contour>
      <point x="105.19999999999999" y="697.0" type="line"/>
      <point x="105.19999999999999" y="777.3333333333334" type="line"/>
      <point x="272.48333333333335" y="1009.2833333333333" type="line" smooth="yes"/>
      <point x="330.25" y="1082.9666666666667"/>
      <point x="463.28333333333336" y="1207.7"/>
      <point x="463.28333333333336" y="1284.9666666666667" type="qcurve" smooth="yes"/>
      <point x="463.28333333333336" y="1348.9333333333334"/>
      <point x="380.01666666666665" y="1438.1"/>
      <point x="298.7166666666667" y="1438.1" type="qcurve" smooth="yes"/>
      <point x="208.1" y="1438.1"/>
      <point x="125.75" y="1345.25"/>
      <point x="128.13333333333333" y="1239.5" type="qcurve"/>
      <point x="88.58333333333334" y="1239.5" type="line"/>
      <point x="86.19999999999999" y="1376.2666666666667"/>
      <point x="194.88333333333333" y="1487.0"/>
      <point x="297.48333333333335" y="1487.0" type="qcurve" smooth="yes"/>
      <point x="405.91666666666663" y="1487.0"/>
      <point x="509.98333333333335" y="1382.0"/>
      <point x="509.98333333333335" y="1284.2" type="qcurve" smooth="yes"/>
      <point x="509.98333333333335" y="1203.5166666666667"/>
      <point x="369.43333333333334" y="1032.1833333333334"/>
      <point x="281.31666666666666" y="933.65" type="qcurve" smooth="yes"/>
      <point x="125.43333333333334" y="748.1666666666666" type="line"/>
      <point x="527.15" y="748.1666666666666" type="line"/>
      <point x="527.15" y="697.0" type="line"/>
    </contour>
  </outline>
</glyph>
<glyph name="threesuperior" format="2">
  <advance width="625"/>
  <unicode hex="00B3"/>
  <outline>
    <contour>
      <point x="110.98333333333332" y="928.5" type="qcurve"/>
      <point x="153.16666666666669" y="928.5" type="line"/>
      <point x="153.16666666666669" y="827.1"/>
      <point x="225.66666666666669" y="734.2833333333333"/>
      <point x="330.8" y="734.2833333333333" type="qcurve" smooth="yes"/>
      <point x="406.56666666666666" y="734.2833333333333"/>
      <point x="504.9166666666667" y="829.6"/>
      <point x="504.9166666666667" y="911.1666666666666" type="qcurve" smooth="yes"/>
      <point x="504.9166666666667" y="984.9166666666666"/>
      <point x="422.3833333333333" y="1093.5666666666666"/>
      <point x="335.55" y="1091.05" type="qcurve" smooth="yes"/>
      <point x="284.93333333333334" y="1091.05" type="line"/>
      <point x="284.93333333333334" y="1133.2166666666667" type="line"/>
      <point x="335.55" y="1133.2166666666667" type="line" smooth="yes"/>
      <point x="421.3833333333333" y="1134.6"/>
      <point x="486.3833333333333" y="1209.7666666666667"/>
      <point x="486.3833333333333" y="1282.6666666666667" type="qcurve" smooth="yes"/>
      <point x="486.3833333333333" y="1365.5166666666667"/>
      <point x="389.93333333333334" y="1442.8666666666666"/>
      <point x="330.56666666666666" y="1442.8666666666666" type="qcurve" smooth="yes"/>
      <point x="226.76666666666665" y="1442.8666666666666"/>
      <point x="164.16666666666669" y="1336.9"/>
      <point x="164.16666666666669" y="1247.5" type="qcurve"/>
      <point x="121.98333333333332" y="1247.5" type="line"/>
      <point x="121.98333333333332" y="1352.8833333333334"/>
      <point x="201.53333333333333" y="1487.0"/>
      <point x="333.1" y="1487.0" type="qcurve" smooth="yes"/>
      <point x="430.5333333333333" y="1487.0"/>
      <point x="519.6333333333333" y="1387.5333333333333"/>
      <point x="519.6333333333333" y="1296.2" type="qcurve" smooth="yes"/>
      <point x="519.6333333333333" y="1210.6166666666666"/>
      <point x="437.26666666666665" y="1131.0666666666666"/>
      <point x="374.5" y="1117.3666666666666" type="qcurve"/>
      <point x="445.26666666666665" y="1104.05"/>
      <point x="541.7" y="983.0"/>
      <point x="541.7" y="917.0" type="qcurve" smooth="yes"/>
      <point x="541.7" y="814.2333333333333"/>
      <point x="446.55" y="686.0"/>
      <point x="325.8" y="686.0" type="qcurve" smooth="yes"/>
      <point x="220.20359477127167" y="686.0"/>
      <point x="110.98333333333332" y="822.1526143791067"/>
    </contour>
  </outline>
</glyph>
<glyph name="acute" format="2">
  <advance width="1024"/>
  <unicode hex="00B4"/>
  <outline>
    <contour>
      <point x="357.76666666666665" y="1212.5333333333333" type="line"/>
      <point x="618.1333333333333" y="1520.3666666666666" type="line"/>
      <point x="675.6833333333334" y="1480.3833333333334" type="line"/>
      <point x="378.06666666666666" y="1204.0" type="line"/>
    </contour>
  </outline>
</glyph>
<glyph name="micro" format="2">
  <advance width="1064"/>
  <unicode hex="00B5"/>
  <outline>
    <contour>
      <point x="309.0333333333333" y="1052.0" type="line"/>
      <point x="348.16666666666663" y="1052.0" type="line"/>
      <point x="216.16666666666666" y="371.0" type="line" smooth="yes"/>
      <point x="187.01666666666665" y="216.7"/>
      <point x="238.8" y="35.016666666666666"/>
      <point x="334.23333333333335" y="35.016666666666666" type="qcurve" smooth="yes"/>
      <point x="420.8333333333333" y="35.016666666666666"/>
      <point x="600.3166666666667" y="157.9"/>
      <point x="704.1" y="308.0" type="qcurve"/>
      <point x="848.1" y="1052.0" type="line"/>
      <point x="895.7666666666667" y="1052.0" type="line"/>
      <point x="691.7666666666667" y="0.0" type="line"/>
      <point x="662.1" y="0.0" type="line"/>
      <point x="699.4666666666667" y="211.08333333333331" type="line"/>
      <point x="693.4666666666667" y="211.08333333333331" type="line"/>
      <point x="577.8" y="79.6"/>
      <point x="407.3333333333333" y="-20.0"/>
      <point x="355.81666666666666" y="-20.0" type="qcurve" smooth="yes"/>
      <point x="260.85" y="-20.0"/>
      <point x="163.23333333333335" y="80.45"/>
      <point x="178.45" y="172.03333333333333" type="qcurve"/>
      <point x="64.16666666666666" y="-416.0" type="line"/>
      <point x="25.03333333333333" y="-416.0" type="line"/>
    </contour>
  </outline>
</glyph>
<glyph name="paragraph" format="2">
  <advance width="887"/>
  <unicode hex="00B6"/>
  <guideline x="0" y="901.0" angle="0" identifier="27539Lsr1A"/>
  <guideline x="0" y="555.0" angle="0" identifier="e34wUdCmXR"/>
  <outline>
    <contour>
      <point x="390.95000000000005" y="-146.0" type="line"/>
      <point x="353.95" y="-146.0" type="line"/>
      <point x="353.95" y="919.3" type="line"/>
      <point x="290.4666666666667" y="919.3" type="line" smooth="yes"/>
      <point x="229.85" y="919.3"/>
      <point x="139.11666666666667" y="1068.6666666666667"/>
      <point x="139.11666666666667" y="1187.65" type="qcurve" smooth="yes"/>
      <point x="139.11666666666667" y="1306.7666666666667"/>
      <point x="229.85" y="1456.0"/>
      <point x="290.4666666666667" y="1456.0" type="qcurve" smooth="yes"/>
      <point x="390.95000000000005" y="1456.0" type="line"/>
    </contour>
    <contour>
      <point x="671.2833333333333" y="1459.0" type="line"/>
      <point x="708.2833333333333" y="1459.0" type="line"/>
      <point x="708.2833333333333" y="-146.0" type="line"/>
      <point x="671.2833333333333" y="-146.0" type="line"/>
    </contour>
  </outline>
</glyph>
<glyph name="periodcentered" format="2">
  <advance width="365"/>
  <unicode hex="00B7"/>
  <outline>
    <contour>
      <point x="106.83333333333333" y="749.0" type="qcurve" smooth="yes"/>
      <point x="106.83333333333333" y="780.0166666666667"/>
      <point x="145.93333333333334" y="822.35"/>
      <point x="182.41666666666669" y="822.35" type="qcurve" smooth="yes"/>
      <point x="218.9" y="822.35"/>
      <point x="256.6166666666667" y="780.0166666666667"/>
      <point x="256.6166666666667" y="749.0" type="qcurve" smooth="yes"/>
      <point x="256.6166666666667" y="717.9833333333333"/>
      <point x="218.9" y="675.65"/>
      <point x="182.41666666666669" y="675.65" type="qcurve" smooth="yes"/>
      <point x="145.93333333333334" y="675.65"/>
      <point x="106.83333333333333" y="717.9833333333333"/>
    </contour>
  </outline>
</glyph>
<glyph name="cedilla" format="2">
  <advance width="1024"/>
  <unicode hex="00B8"/>
  <outline>
    <contour>
      <point x="440.0" y="42.0" type="line"/>
      <point x="505.3666666666667" y="42.0" type="line"/>
      <point x="466.3" y="-88.96666666666667" type="line"/>
      <point x="542.6666666666666" y="-101.73333333333333"/>
      <point x="603.65" y="-177.73333333333335"/>
      <point x="603.65" y="-226.0" type="qcurve" smooth="yes"/>
      <point x="603.65" y="-305.1666666666667"/>
      <point x="462.85" y="-408.7166666666667"/>
      <point x="346.6166666666667" y="-408.7166666666667" type="qcurve"/>
      <point x="343.76666666666665" y="-361.2" type="line"/>
      <point x="422.8833333333333" y="-357.05"/>
      <point x="555.8333333333334" y="-286.53333333333336"/>
      <point x="555.8333333333334" y="-228.0" type="qcurve" smooth="yes"/>
      <point x="555.8333333333334" y="-179.0"/>
      <point x="483.0" y="-142.0"/>
      <point x="399.0" y="-135.0" type="qcurve"/>
    </contour>
  </outline>
</glyph>
<glyph name="onesuperior" format="2">
  <advance width="453"/>
  <unicode hex="00B9"/>
  <outline>
    <contour>
      <point x="63.516666666666666" y="1307.8333333333333" type="line"/>
      <point x="63.516666666666666" y="1370.0" type="line"/>
      <point x="273.6333333333333" y="1486.0" type="line"/>
      <point x="291.35" y="1486.0" type="line"/>
      <point x="291.35" y="697.0" type="line"/>
      <point x="235.86666666666667" y="697.0" type="line"/>
      <point x="235.86666666666667" y="1385.2333333333333" type="line"/>
    </contour>
  </outline>
</glyph>
<glyph name="ordmasculine" format="2">
  <advance width="859"/>
  <unicode hex="00BA"/>
  <guideline x="0" y="1975.0" angle="0" identifier="Jnt0R9CyOf"/>
  <outline>
    <contour>
      <point x="161.3" y="1043.0" type="qcurve"/>
      <point x="161.3" y="1124.0" type="line"/>
      <point x="161.3" y="1295.0666666666666"/>
      <point x="280.65895522394663" y="1477.0"/>
      <point x="429.8" y="1477.0" type="qcurve" smooth="yes"/>
      <point x="579.5557213930617" y="1477.0"/>
      <point x="698.3" y="1294.8116183786467"/>
      <point x="698.3" y="1124.0" type="qcurve"/>
      <point x="698.3" y="1043.0" type="line"/>
      <point x="698.3" y="872.1883816213534"/>
      <point x="579.6051604722167" y="691.0"/>
      <point x="431.8" y="691.0" type="qcurve" smooth="yes"/>
      <point x="280.7792410496817" y="691.0"/>
      <point x="161.3" y="872.1883816213534"/>
    </contour>
    <contour>
      <point x="219.16666666666669" y="1124.0" type="qcurve"/>
      <point x="219.16666666666669" y="1043.0" type="line"/>
      <point x="219.16666666666669" y="886.59082528533"/>
      <point x="336.74837089059" y="742.85"/>
      <point x="431.8" y="742.85" type="qcurve" smooth="yes"/>
      <point x="526.3157984586984" y="742.85"/>
      <point x="640.05" y="886.59082528533"/>
      <point x="640.05" y="1043.0" type="qcurve"/>
      <point x="640.05" y="1124.0" type="line"/>
      <point x="640.05" y="1282.0157984586983"/>
      <point x="525.7833869865967" y="1421.7666666666667"/>
      <point x="429.8" y="1421.7666666666667" type="qcurve" smooth="yes"/>
      <point x="333.8166130134033" y="1421.7666666666667"/>
      <point x="219.16666666666669" y="1282.0157984586983"/>
    </contour>
  </outline>
</glyph>
<glyph name="guillemotright" format="2">
  <advance width="1031"/>
  <unicode hex="00BB"/>
  <guideline x="0" y="98.0" angle="0" identifier="MTEldNnfdj"/>
  <guideline x="0" y="443.0" angle="0" identifier="G9bQni2n1K"/>
  <outline>
    <contour>
      <point x="605.5833333333334" y="153.0" type="line"/>
      <point x="871.1166666666667" y="551.0" type="line"/>
      <point x="605.5833333333334" y="949.0" type="line"/>
      <point x="683.2" y="949.0" type="line"/>
      <point x="924.8666666666666" y="566.1" type="line"/>
      <point x="924.8666666666666" y="534.7666666666667" type="line"/>
      <point x="683.2" y="153.0" type="line"/>
    </contour>
    <contour>
      <point x="106.91666666666663" y="153.0" type="line"/>
      <point x="372.45" y="551.0" type="line"/>
      <point x="106.91666666666663" y="949.0" type="line"/>
      <point x="184.5333333333333" y="949.0" type="line"/>
      <point x="426.20000000000005" y="566.1" type="line"/>
      <point x="426.20000000000005" y="534.7666666666667" type="line"/>
      <point x="184.5333333333333" y="153.0" type="line"/>
    </contour>
  </outline>
</glyph>
<glyph name="questiondown" format="2">
  <advance width="951"/>
  <unicode hex="00BF"/>
  <guideline x="0" y="-181.0" angle="0" identifier="apukwP5ffL"/>
  <guideline x="0" y="921.0" angle="0" identifier="5ZPZZL8Rim"/>
  <outline>
    <contour>
      <point x="549.4333333333334" y="1094.6333333333334" type="qcurve" smooth="yes"/>
      <point x="549.4333333333334" y="1063.3"/>
      <point x="524.9166666666666" y="1019.2666666666667"/>
      <point x="504.0833333333333" y="1019.2666666666667" type="qcurve" smooth="yes"/>
      <point x="482.18333333333334" y="1019.2666666666667"/>
      <point x="457.6666666666667" y="1063.3"/>
      <point x="457.6666666666667" y="1094.6333333333334" type="qcurve" smooth="yes"/>
      <point x="457.6666666666667" y="1125.9666666666667"/>
      <point x="481.1166666666667" y="1170.0"/>
      <point x="503.01666666666665" y="1170.0" type="qcurve" smooth="yes"/>
      <point x="524.9166666666666" y="1170.0"/>
      <point x="549.4333333333334" y="1125.9666666666667"/>
    </contour>
    <contour>
      <point x="702.7833333333333" y="53.0" type="line"/>
      <point x="702.7833333333333" y="33.0" type="line" smooth="yes"/>
      <point x="702.7833333333333" y="-136.7"/>
      <point x="576.4" y="-328.0"/>
      <point x="466.3833333333333" y="-328.0" type="qcurve" smooth="yes"/>
      <point x="357.75" y="-328.0"/>
      <point x="234.91666666666666" y="-145.75"/>
      <point x="234.91666666666666" y="-1.1666666666666643" type="qcurve" smooth="yes"/>
      <point x="234.91666666666666" y="140.18333333333334"/>
      <point x="294.55" y="300.4"/>
      <point x="369.4" y="400.05" type="qcurve" smooth="yes"/>
      <point x="438.7166666666667" y="496.6166666666667"/>
      <point x="484.15" y="650.45"/>
      <point x="484.15" y="728.0" type="qcurve" smooth="yes"/>
      <point x="484.15" y="738.0" type="line"/>
      <point x="527.4333333333334" y="738.0" type="line"/>
      <point x="527.4333333333334" y="728.0" type="line" smooth="yes"/>
      <point x="527.4333333333334" y="618.9666666666667"/>
      <point x="459.75" y="459.43333333333334"/>
      <point x="393.0333333333333" y="363.18333333333334" type="qcurve" smooth="yes"/>
      <point x="327.98333333333335" y="273.25"/>
      <point x="278.2" y="117.88333333333333"/>
      <point x="278.2" y="-1.1666666666666643" type="qcurve" smooth="yes"/>
      <point x="278.2" y="-124.16666666666667"/>
      <point x="371.98333333333335" y="-276.46666666666664"/>
      <point x="466.3833333333333" y="-276.46666666666664" type="qcurve" smooth="yes"/>
      <point x="560.7833333333333" y="-276.46666666666664"/>
      <point x="660.5" y="-117.88333333333333"/>
      <point x="660.5" y="33.0" type="qcurve" smooth="yes"/>
      <point x="660.5" y="53.0" type="line"/>
    </contour>
  </outline>
</glyph>
<glyph name="AE" format="2">
  <advance width="1466"/>
  <unicode hex="00C6"/>
  <outline>
    <contour>
      <point x="268.6166666666667" y="457.73333333333335" type="line"/>
      <point x="292.5333333333333" y="477.5333333333333" type="line"/>
      <point x="805.2166666666667" y="477.5333333333333" type="line"/>
      <point x="805.2166666666667" y="457.73333333333335" type="line"/>
    </contour>
    <contour>
      <point x="21.75" y="0.0" type="line"/>
      <point x="775.8166666666666" y="1456.0" type="line"/>
      <point x="1388.9333333333334" y="1456.0" type="line"/>
      <point x="1388.9333333333334" y="1404.3166666666666" type="line"/>
      <point x="847.7166666666667" y="1404.3166666666666" type="line"/>
      <point x="847.7166666666667" y="776.6833333333334" type="line"/>
      <point x="1291.4" y="776.6833333333334" type="line"/>
      <point x="1291.4" y="725.3166666666666" type="line"/>
      <point x="847.7166666666667" y="725.3166666666666" type="line"/>
      <point x="847.7166666666667" y="51.68333333333334" type="line"/>
      <point x="1398.9333333333334" y="51.68333333333334" type="line"/>
      <point x="1398.9333333333334" y="0.0" type="line"/>
      <point x="805.35" y="0.0" type="line"/>
      <point x="805.35" y="1436.4" type="line"/>
      <point x="23.683333333333337" y="0.0" type="line"/>
    </contour>
  </outline>
</glyph>
<glyph name="multiply" format="2">
  <advance width="901"/>
  <unicode hex="00D7"/>
  <outline>
    <contour>
      <point x="208.61666666666667" y="331.06666666666666" type="line"/>
      <point x="165.63333333333333" y="372.51666666666665" type="line"/>
      <point x="695.9833333333333" y="1003.0166666666667" type="line"/>
      <point x="738.9666666666667" y="961.95" type="line"/>
    </contour>
    <contour>
      <point x="719.8" y="310.31666666666666" type="line"/>
      <point x="143.73333333333335" y="986.9166666666666" type="line"/>
      <point x="183.88333333333333" y="1023.7666666666667" type="line"/>
      <point x="758.5666666666666" y="348.93333333333334" type="line"/>
    </contour>
  </outline>
</glyph>
<glyph name="Thorn" format="2">
  <advance width="893"/>
  <unicode hex="00DE"/>
  <guideline x="0" y="901.0" angle="0" identifier="i9jYwjBDP4"/>
  <guideline x="0" y="555.0" angle="0" identifier="T8KKW8oxop"/>
  <outline>
    <contour>
      <point x="170.0" y="1456.0" type="line"/>
      <point x="221.45000000000002" y="1456.0" type="line"/>
      <point x="221.45000000000002" y="1169.2833333333333" type="line"/>
      <point x="481.5333333333333" y="1169.2833333333333" type="line" smooth="yes"/>
      <point x="656.6666666666667" y="1169.2833333333333"/>
      <point x="815.1666666666666" y="951.9833333333333"/>
      <point x="815.1666666666666" y="745.35" type="qcurve" smooth="yes"/>
      <point x="815.1666666666666" y="537.3333333333334"/>
      <point x="655.2833333333333" y="311.8666666666667"/>
      <point x="481.5333333333333" y="310.8" type="qcurve" smooth="yes"/>
      <point x="222.51666666666668" y="310.8" type="line"/>
      <point x="222.51666666666668" y="0.0" type="line"/>
      <point x="170.0" y="0.0" type="line"/>
    </contour>
    <contour>
      <point x="481.5333333333333" y="1107.45" type="qcurve" smooth="yes"/>
      <point x="222.51666666666668" y="1107.45" type="line"/>
      <point x="222.51666666666668" y="373.7" type="line"/>
      <point x="481.5333333333333" y="373.7" type="line" smooth="yes"/>
      <point x="648.1833333333334" y="373.7"/>
      <point x="761.2666666666667" y="603.2833333333333"/>
      <point x="761.2666666666667" y="748.25" type="qcurve" smooth="yes"/>
      <point x="761.2666666666667" y="892.9"/>
      <point x="648.1833333333334" y="1106.3833333333334"/>
    </contour>
  </outline>
</glyph>
<glyph name="germandbls" format="2">
  <advance width="1177"/>
  <unicode hex="00DF"/>
  <outline>
    <contour>
      <point x="299.0" y="1092.0" type="qcurve" name="hr00"/>
      <point x="299.0" y="0.0" type="line"/>
      <point x="251.75" y="0.0" type="line"/>
      <point x="251.75" y="1092.0" type="line" smooth="yes"/>
      <point x="251.75" y="1308.8333333333333"/>
      <point x="423.7833333333333" y="1534.0"/>
      <point x="582.6666666666666" y="1534.0" type="qcurve" smooth="yes"/>
      <point x="728.6833333333333" y="1534.0"/>
      <point x="856.9333333333334" y="1372.0666666666666"/>
      <point x="856.9333333333334" y="1215.0" type="qcurve" smooth="yes"/>
      <point x="856.9333333333334" y="1165.7333333333333"/>
      <point x="821.75" y="1036.75"/>
      <point x="776.45" y="978.5333333333333" type="qcurve" smooth="yes"/>
      <point x="745.8333333333334" y="940.5333333333333"/>
      <point x="679.7166666666667" y="838.25"/>
      <point x="679.7166666666667" y="803.7166666666667" type="qcurve" smooth="yes"/>
      <point x="679.7166666666667" y="759.8666666666667"/>
      <point x="785.65" y="639.5"/>
      <point x="868.0333333333333" y="578.8833333333333" type="qcurve" smooth="yes"/>
      <point x="970.9333333333334" y="501.9"/>
      <point x="1042.7666666666667" y="375.0333333333333"/>
      <point x="1042.7666666666667" y="282.0" type="qcurve" smooth="yes"/>
      <point x="1042.7666666666667" y="134.6"/>
      <point x="918.9333333333333" y="-20.0"/>
      <point x="753.0" y="-20.0" type="qcurve" smooth="yes"/>
      <point x="617.9666666666667" y="-20.0"/>
      <point x="490.0" y="152.31666666666666"/>
      <point x="490.0" y="289.06666666666666" type="qcurve" smooth="yes"/>
      <point x="490.0" y="304.0" type="line"/>
      <point x="556.1666666666666" y="304.0" type="line"/>
      <point x="556.1666666666666" y="283.93333333333334" type="line" smooth="yes"/>
      <point x="556.1666666666666" y="172.06666666666666"/>
      <point x="663.9833333333333" y="35.55"/>
      <point x="755.0" y="35.55" type="qcurve" smooth="yes"/>
      <point x="866.4833333333333" y="35.55"/>
      <point x="989.5" y="175.86666666666667"/>
      <point x="989.5" y="302.0" type="qcurve" smooth="yes"/>
      <point x="989.5" y="340.56666666666666"/>
      <point x="943.65" y="453.55"/>
      <point x="846.5333333333333" y="525.8333333333334" type="qcurve" smooth="yes"/>
      <point x="773.15" y="580.0666666666667"/>
      <point x="632.1666666666666" y="712.9166666666666"/>
      <point x="632.1666666666666" y="799.7666666666667" type="qcurve" smooth="yes"/>
      <point x="632.1666666666666" y="866.85"/>
      <point x="690.6666666666666" y="961.25"/>
      <point x="722.6666666666666" y="1005.25" type="qcurve" smooth="yes"/>
      <point x="766.8833333333333" y="1066.0"/>
      <point x="803.6666666666666" y="1172.5166666666667"/>
      <point x="803.6666666666666" y="1212.3" type="qcurve" smooth="yes"/>
      <point x="803.6666666666666" y="1334.5"/>
      <point x="700.7833333333333" y="1478.45"/>
      <point x="578.6666666666666" y="1478.45" type="qcurve" smooth="yes"/>
      <point x="445.23333333333335" y="1478.45"/>
      <point x="299.0" y="1274.2"/>
    </contour>
  </outline>
</glyph>
